<mxfile host="app.diagrams.net" agent="Mozilla/5.0 (X11; Linux x86_64) AppleWebKit/537.36 (KHTML, like Gecko) Chrome/128.0.0.0 Safari/537.36" version="27.0.6">
  <diagram name="Page-1" id="KkbsHed4Ppitiadcmdjg">
    <mxGraphModel dx="2240" dy="1478" grid="1" gridSize="10" guides="1" tooltips="1" connect="1" arrows="1" fold="1" page="1" pageScale="1" pageWidth="827" pageHeight="1169" math="1" shadow="0">
      <root>
        <mxCell id="0" />
        <mxCell id="1" parent="0" />
        <mxCell id="fkhzhb3UsODcdzvoW7---21" value="" style="shape=cube;whiteSpace=wrap;html=1;boundedLbl=1;backgroundOutline=1;darkOpacity=0.05;darkOpacity2=0.1;rotation=90;size=20;aspect=fixed;strokeColor=#99479B;strokeWidth=5;" vertex="1" parent="1">
          <mxGeometry x="1238" y="374" width="293.06" height="296" as="geometry" />
        </mxCell>
        <mxCell id="fkhzhb3UsODcdzvoW7---11" value="" style="shape=cube;whiteSpace=wrap;html=1;boundedLbl=1;backgroundOutline=1;darkOpacity=0.05;darkOpacity2=0.1;rotation=90;size=106;strokeColor=#99479B;fillColor=#f5f5f5;strokeWidth=5;fontColor=#333333;" vertex="1" parent="1">
          <mxGeometry x="537" y="293" width="382" height="377" as="geometry" />
        </mxCell>
        <mxCell id="fkhzhb3UsODcdzvoW7---1" value="" style="shape=image;verticalLabelPosition=bottom;labelBackgroundColor=default;verticalAlign=top;aspect=fixed;imageAspect=0;image=data:image/png,iVBORw0KGgoAAAANSUhEUgAAAFUAAABVCAIAAAC3lz8NAAABAGlDQ1BpY2MAABiVY2BgPMEABCwGDAy5eSVFQe5OChGRUQrsDxgYgRAMEpOLCxhwA6Cqb9cgai/r4lGHC3CmpBYnA+kPQKxSBLQcaKQIkC2SDmFrgNhJELYNiF1eUlACZAeA2EUhQc5AdgqQrZGOxE5CYicXFIHU9wDZNrk5pckIdzPwpOaFBgNpDiCWYShmCGJwZ3AC+R+iJH8RA4PFVwYG5gkIsaSZDAzbWxkYJG4hxFQWMDDwtzAwbDuPEEOESUFiUSJYiAWImdLSGBg+LWdg4I1kYBC+wMDAFQ0LCBxuUwC7zZ0hHwjTGXIYUoEingx5DMkMekCWEYMBgyGDGQCm1j8/yRb+6wAAACBjSFJNAAB6JgAAgIQAAPoAAACA6AAAdTAAAOpgAAA6mAAAF3CculE8AAAABmJLR0QA/wD/AP+gvaeTAAAAB3RJTUUH6QQVChQD1ejivgAAAAl2cEFnAAAA/wAAAP8AYjLrtwAAFM5JREFUeNrNfNuOHDm23VqbzCpJPT1jY84YGPgCw4Dh3/In+Kf8OX6xX45tjIHzYMzBdPeou9UqqSqDa/lhkwxGVpZUpelpNyGksiLjQm5u7svai8H/+l/+M44tDAAkAdCHn4r1KmqxAAMglFcAwJbnBygagEDDLLqBud8cCKEYRSgGHWHkzwY2vn71D//hjNe40uLxoVu9+zdvPp78AT61ANBAFdW7k/779/90d3JRAaRoBoTT+9PpH88f3596f8xrN/1ke+L8ZYRwrAfXX566yCnOL2khBhBmwGGGkfIM0YD6NECgAjltWq+vTw4JVzsuABq/5JWpIyKACAQgOEAAouNCBDJIOA/uFy53f0kzwygNJ+PGlIgwG0NsSPUkAIFb7yUDEFB8HMLP2wJILYirk++xbPRJ7XhmE6FADt5ACxghMKyUJ4EwaNJI9VhbPXRhWe58pJH8Ah31k/IVo7iLYz/9kyPdhbscNJt4hmUE2AC2cUr0Ptf+lwtcgfMci5m/0TCvjU9Ifd4/ASpksE8hHYACkeOguwoTgvsd5sO6DhrA5Tx8caNRLDNgDYUKM6ddudCU1gEhQjxIvA7zEICOfSIoGIs9B70RJDSXauQIu7XQNKgxhhru8yogrQLdZyYWceRFo2PTDjxWn4MW0DgJNwqBZogSoyGAKFbYLddFXx1sIYXE/bYV2I6PXAQLzHkenw63gOh1pQiuxQBizv8uAogOA2VKBCjqZpoXC/KF5sCMM28Z6uYGaEBjgaNIJ22F3cqIhGNrfrXpvM4/w7Ov4/EGUKI86o+K/bs3r6dpCQgOOoDS7lt6dzinUQDo0APp3RDSCJOBEyvdhTLNRInbGgUsx1EGAGmdoS4zsX57FnHKKYnuUDbE/b//4x8Rd/lcdq+od6fXd9/++OPNHl/U3egw/dZ4DNk92aIagY3YZvwzPCpoCBqaLDhiXEUTCHjaj4P+d7nPLrzQKJix8YaIsEinNAUEPp5k4pxGJ21BsR4ibptut2X+e0e7nwT2YbCPnIvgbVqBNl3LmGcQjm7zutoDiIy8ICBi2L+YIljG/KmB88mwgEZtURyEYiirCJqEirUNa9cIWAq1kJYb1qnby+dy5LD+0X1tNxnZ9YAFMmygrAYsDFCBAmefXja3z2ycEUBXxIDhQBFYRKAxwkFDuTwXj0vv449H479sMdV7KMN1e+UY5vUZ4ZxX8xefisdyJvzY/2/mWdjCgG8EKboqpGUDAj71fMUl7zB98MXt4hnfPzOew1UOHSNcYBpkePlJ48hLm4dLzzu0QCOMIEQflO5qxFHXHnOfUXXdnoLvIrAY+xrfe5ExRnrw0DgjEGNpKyMTPDJyKYIlJtEea31+8CHcIFWRCJcMcvrdmGlPEAQBnMk08NkZCKjV2xLhASkz6mT3+egGDABqi2iv4Fdz2GOeKyS4ChHep1Fm23Whd6vbCpbYRdgdZEM5dRldrp1HR/LPBjbgDLQ+4EiTcD4XNNaNaAwUhNEQjShut63NCax/+M3pMH6aRlhvbl+lzzw8Ul+V7V9Rw39yjA149bqH2Y/sXAyrvw7mQifZF4Jjc0EX/dH7yEeVy9z23LZ3jR85DIkMSw9x/ub+DGastmXsHdZ29j+8+WrjaeIXtfoMwGjDwCiMsE8uhMo+fImABN2i/faKLo6g5WL4vqbJu4JcGFDmBT1jp1eHahzWjkCBZ/ADeB+5cqkuSeocYd6aFmcWXMyoUskUCAJUsfv/p9pLs/K/sT1+XFwTLOCAmStnBq6RSYgzJIN5MHvz1mkusSYSqVH0fNKjiIC/lCCoJ5/lGAZ7/XwsrDW46mcOIGAfPOBKdGvN+Z+f0AY/2wv+LWOH4KcFfZDLk/HC2n/uKyjMAM951TBLjovRjmQlOOMHBBDh+EyI8jOM/hMqpvFvW773rOgSQdzVhENSy0/zE6zpmXaJWRnS9rxlgUoub/T3bWukkLnGhtTMzNO6vBroFY/MhMzcR9S1mTF+yBBYcmDin5zO2YE9bFyyQcMUTPqLsdq/oTH9/IQxc2Q0H0wl2oMeA8BECwSR6WVmO2FmuGkOl0QAqAUhLiaUIFCM7QwaXpaiCUmnl6rAC63mtm3HCCLR23b34QdgA9uKDpnbme8dbWSWA+0BNrW2B6I9kDHi/bkp1z+EzP/Chz7SXYfCgMt6PFxfCtG8TFa+miYa2IANPKcs1gzOITGNW5//dHuZBcxUNxJEYQg2OdJBjvifj7tyQPJmfAb+3U3A8Nh770GDDRwiGDroicAsoVSfODYNLDSFMtJBCRHodqTOR4rrs5HrP5ZAVX/PmX+6af/Sld/oWUW3WAnypBH3wGE/b6XS/nEkQ4Hdw2cKBP5CPv/RgDsY0aPa55THevC+HlpDu8OY17zmmJBy4DaPr/wlG3d8fZmAOFaLmJjvRQlpAhsX1Z71yJrU1UvZcqQc7Onvc1Tp52saHYinUYAEDMKoMMCNA7OMCbQtMjlUGSgeVbre6EG7nneoI4DiiOE2CJsIUNgC9+kvLzvFMnswPmPkXk+3i/XVbVUCWDPIIXAyTjCBOlDprOds4QfZCWksvjoMtxV07HaBGyXGcAeq//GPv8vamIgJjMDx07vzIn6ZgKt8+/btP8M34zH74M7nhqWS1jNu6oxNq72+kNrxiHH79e/+tX2b0zCm5BbU1/U1IB3WJMH7P3/7j4j7RpsQM3kPke/oFiiKjNxEKNRYz7yBT70wDdWTzgDtG4Bgy1BAqFWt+5Xwohdb8b0mqLPoZ0lQuKdd3acKILbg7q+X3sdyfQwxdy99cRoQRgHgi6VI79eyq0AYQgKBQSKAxjDVGI2xsQo3gQIAbBUuQNDFXG/Pkeosdc5hh0OxnIa16xdyCSp2pepByGPZ8Rle5gkbJEBicyIc42Bk8sZeZStGo4qhgSnlsjQVwBRBAKQj1z9G8rxEBOKgNDy37XnY89vLwoxR3lR+rhlLjDIEoWLQnhZtDqr2lKhHgdGTCC/YpHkR89EXXcyMal64H9duzC/Pv/b9xU2E6WeSKEa5NYygoxittLpoTgLDyXAh4D2Wwm7VkHmXudg5mYFe65cWqznnJ2kCY2HvgHpYWJPrHX16fpujj1izta6uwzqMtUuTYPdNjuo45+migc3R8uwWyuTHBCgTYBhONQtF1vrHp7r5OWbHImyJvso9wqO/3R3NxcEnJ79rbs/KNCQYyT1riETZgZLchoYC10CoM6VQG2v3q4Z6dBjwybZxyvqvsMEGClzFB1OtCEBzIEuLQBvlfqBNAE2EZFPtwIADALotk5f/yT69cPJTBCWcOpvYDsxoxMZwRLIPQBl4KPWHm3JfaqiIcKjefbjFKMa6a0vItx/vAd0aFczEI8vDdrkHRwF5gYa0tTmf4z4w1XA+TnLEJxTcp80bpMenZP3/MgeTdA6XNEAUGMbmOJfYSjmDGyKWJfz2Jv7na759hU4WoGrjCQBce45IwRU42VV4DVcDwEOXNM/GyhHoq91Eiw07201dOZH15j0uBNR4wSlSRkp0fFHKEVRNYxTTz7o0sjGAgr2+5rtavn3Db94EVYodqNU850hyfYoCbZcWhNRHMgma3cfsvTS6AcsYaz/ebafkDsgc4tMDuK60IDG09Gp7IvsOOMA64Lk8ws4LZMbL6JU8Sqyw4QJUQwKqmJPgjjTlkDLbX/iZnSaFmZzFVH+To39aqz2JXpi7hR92fh98VvXE8fklJYZJN42Z/8NpAmP2c+A3zBgnGQGgaqdAmJiF3Y4QjwSz24YuQjgCoYPdWq6aCczQl5eP52XNy2LEMZRcOX3TOhdFMUJ7ra2kPgxsuMPj8ThXgek9HMekiPnyyNKFl8Z/XxQOdcVZ6qUUkhGSFUGDUFwDF2u4outipQ1oDnNYM2Oo6FDakZ06tJ9yqDEMq9tJG5+O0HaPcG31i0/+ZMr7qtEKjgfI5aqwaBQHKKP0exL17jSHlWl3EaJoa6VRAO4BgOcFkDkZ6TI6pAwGAajkmDuM2K39VuTdXy652pURAqAU948zAD9BDXFsjVWDXJhybIyHiHeneH+TpPCeyBTjp5vyEGysBM1CoP63b/40e5YJg4Cbhv/0h397ah9nD/s5er1t/xKj/l965wjg9NVx0vIC3v/w0z9Nezmj0aC27WFHHDxX1fnPf/3f2Eu6e2nyoSkZ7hhWMyD59sP2RviqdJxFKanvavyJD3+taEm1SJqscEf/6dsf359qshxo1I8nDc+cxkMmHE1xD28Y0X4fv4vxG/jNcRauqfT4j67EOadnoC5dR8KZEWgMPgAp7vMPc4IdkUNzBJxxd6fk2iFU+xZmJu8ONOIh9O7kt6+UhYAUYRXOpT58rELpVp9RJxtxbVxKwMntAwDrC6KTOWlP1mp9oGHFgJ6zrrcziVKreOhtkp8hFQetFAKJsGKaA2p63wEQHUR+cBKrkVy4AH9jm0Dt+Nf9wjWJcI8LsCZ3neH36PSu3vv5YXFQLCc986I/e/6/FjxmhhsL5wmUn6gRPa8RuYB2EEFPnDeF3hdz+AILA9Apg8RSBYamq/fTPLoLmCAHPvYGHImRI2EYCrAvhi8TwVPtMen0+PMy+GS4w7nhpycUmcMOtlt3EymCOcyp7TTgyI0gGIpdHwvY3P/pELF+SX7ivaaZCYJ7rJKVTCQm3zLR9h5zXJBcwrRQPaD3xkLDjC1CHltJZoWbMGMSWZYRjhivB8vs6cFaPxOlScik9nIUEHw2NbGPvsK3x0QiJ2KDCTcQC9slUf3zMLQx7F80FgFiSfs/zz6zvL+J8+BUT/Ljuxvc1fhQk6/QZ7EYG+tkRCmdwrltQmLmqVRSiGrv7z9urfUAazyR2025EOhnxn/6zVf/7pgF9D1p3739y9iqo13buT1s32MvWqfaW8BZaIPiNsd/V+LPtd3VlmZ7dvW7E/7X/Y9/LfORAaAIQHy4f8gYN4VSR+jYPyeRNrWoxYL8GYXyy0xAco9XeWWFq8G3cDuIxsnaiKzPg+67WlDFIlAMo0xnaeMh6rsb/nQzA9pUr/jpBu8Rd3VNhxiRyH2sxbLanXO38PvwcuY72jcERKLgC9qBROdexm7gBuxoQpgtgSYOgkrf1Uh1v1zcJ2ygKwwxNrKVneoWSboeuy0mmyDBX3kHcrHw/49quyC/2N3Bl27XmztLdt7SsPwTVgDAsX1o2XSy9wHMtHW6dhEiW3Rkae+bZ0p2icfP6oZGdaROi/4pVG6vrn9JPm8M1sgB/84OLdRjdA7rDN2uiXtHNTAz7p0nppgY3LLXxAMFGegIOx2MSyTEhX7zc1X+1fvwKNpb6yv9HGAGoGMuaMXnehJLYt/Dtrlh7yDr41VjmJXHjQFa/gzvyQO6Frx0/mMyl3eAyDEILDkJ43ufBoX3vVKCiAgoQEORS2AU88Ml7Cr1sr8DYLE4Zn7uXHyq1aLVpGeZ2En7bgyt6+JKJeuZbQRo/WaRpYQkWvaS/jiT7TXiNB6Yy7UqSgMfWJwh0LDWH2p9f/KPtz1SNHKTb3yooXP0/fWAxga86Q6mRauv62rRe803Ct99uCuXXGjE9vG3yo2mj4bIq57BvkiiehZ0+u3Xf1jvPO6iwLsJHBmRWxc/lvjLux/uXcRo7Cuc0nfE/3j4/tuSbhIZ7dLRGn98uG/3CPUAPwe8GQUQ7QE01/Aa4CcO1PvUOEqdI+T+mfivab2uuR4DatO4dQyaRMQZHx8iEroamWz5UPAuyttX6Dw3B8BQBNC2LouUa9m3OI/dFUTyv3+NbS0CFl2xx53PtAs0jona9TZc+B7E//L0ts+26DX7SdfvYHSYXHZvL7ywo/POQov3EGg/CFjJhRmyOCjhIEldEfYv1pbNZly3B2ogWUvwMN+g8JlZfBRH7B6h4tfU9ux1pq6Pxr+WGI5FiouA4imhzNATO/91bfGzhkAvbY0wE8PrO5Bz/bfAVvJ7jxdL30GfKRqAGMv6s4t6B8V+XfM/QZcdFQYd+HjCT8T3tyjqKyOl88MrPHQu2s7zKMcbXkxk7C9viNz/BVyb7Xz/Tzw6aNu+qhvXFaa16yHjx48fHx8U8fHuQzJOpokS4hvF/4m7b04EqoFeU4c+1Hintm2xUsCtdJpk7mYYuz8JEPr6zRt2mg3xa5t/YJaSO4c/07v7incFP7wa3P5AI0BsxMOGF3mxvk9/eIf6/HV++a6Kv0Mz+oAzCJvoSwqlTeaFIygYHCktDphntk8IRUB/Q8Ovy//n4m8MYX1lRoRDYONyUMG+0T6OgC/m5tnDe5cO7IM9kTvofzzh/39hXzDwn6TGjKrm0HksgPdktV0zPsvW3SWwmQXtRE1+XfN/tbFjGAcASpdR4DPvlYye3DIn8Zr9+/+27eFaW/cwaEEf+1vOXjZ4XywKGHWL3QzM3W7FiIUCMntQNBiRe9PgyGhhhHbOp6nOr8yn5SgcJreyNQ7rO1Dg+xLfv8J9QeIcSaKvih9veXeKcyR1dU8BGklHCByJzXjbC8LbeO0NnMytzsc57WAMovLrglHwpUuSp2qL37/+/anlAok909KbH9666fxo/Prw/v3YOdrrCOEQt+9/+gtm5M4NUFHdePvT6Tcbb0Oll0O40fHjTf1TnH+sdexhYzFuWrxl/F+c3zbcNIbC+VYDIIxa641DA7lOnkuxfvf7f1Gsoj4x8wVp//ztd1lHA0CzbqGUUOfPOQQ0RlEU1ZTmeEuh7AizLczfIYJRkceBz+U4O+7Fc69z8EzILBtxLq/u40SXUfA2rbsbvT3h7Ss00kCLKMLtFu9ucRd4KKSjAC3CiEZUoYJldENUWMUIt5PyuwKGJaJRYh3ldo75X3e+XMKST62jXkI/YMvX9l41QNwcD8qgnVvuRmixtVALUZ4EHnaINusOMYnZmeHRKHZYgbAl9kqIyXZE6y9sx1ICvPI+vs5zWl9INI3N/JJ4y/AhPSd9TizEDm+6b+DtlU+B7rz1pf4zS0+TLDnTAVMd5+0WpBf5x2OkWLFZd3rf+HkUP67yv6YgHv22MDYH93ayAI8nPpr5nTtQLGDrFO3koQmlT876fo29Mrs7OSAt4RC9wkEgoDbkK+67sfo71a5Ng5ki2Pk22f4fhenq4zFFOWwAAAAldEVYdGRhdGU6Y3JlYXRlADIwMjUtMDQtMjFUMTA6MjA6MDMrMDA6MDAgot+sAAAAJXRFWHRkYXRlOm1vZGlmeQAyMDI1LTA0LTIxVDEwOjIwOjAzKzAwOjAwUf9nEAAAAB50RVh0aWNjOmNvcHlyaWdodABHb29nbGUgSW5jLiAyMDE2rAszOAAAABR0RVh0aWNjOmRlc2NyaXB0aW9uAHNSR0K6kHMHAAAAFXRFWHRpY2M6bWFudWZhY3R1cmVyAHNSR0Iq8ipvAAAADnRFWHRpY2M6bW9kZWwAc1JHQltgSUMAAAAASUVORK5CYII=;strokeWidth=5;imageBorder=#99479B;" vertex="1" parent="1">
          <mxGeometry x="540" y="400" width="85" height="85" as="geometry" />
        </mxCell>
        <mxCell id="fkhzhb3UsODcdzvoW7---2" value="" style="shape=image;verticalLabelPosition=bottom;labelBackgroundColor=default;verticalAlign=top;aspect=fixed;imageAspect=0;image=data:image/png,iVBORw0KGgoAAAANSUhEUgAAAFUAAABVCAIAAAC3lz8NAAABAGlDQ1BpY2MAABiVY2BgPMEABCwGDAy5eSVFQe5OChGRUQrsDxgYgRAMEpOLCxhwA6Cqb9cgai/r4lGHC3CmpBYnA+kPQKxSBLQcaKQIkC2SDmFrgNhJELYNiF1eUlACZAeA2EUhQc5AdgqQrZGOxE5CYicXFIHU9wDZNrk5pckIdzPwpOaFBgNpDiCWYShmCGJwZ3AC+R+iJH8RA4PFVwYG5gkIsaSZDAzbWxkYJG4hxFQWMDDwtzAwbDuPEEOESUFiUSJYiAWImdLSGBg+LWdg4I1kYBC+wMDAFQ0LCBxuUwC7zZ0hHwjTGXIYUoEingx5DMkMekCWEYMBgyGDGQCm1j8/yRb+6wAAACBjSFJNAAB6JgAAgIQAAPoAAACA6AAAdTAAAOpgAAA6mAAAF3CculE8AAAABmJLR0QA/wD/AP+gvaeTAAAACW9GRnMAAABVAAAAAACGaS+KAAAAB3RJTUUH6QQVChQD1ejivgAAAAl2cEFnAAAA/wAAAP8AYjLrtwAAF+lJREFUeNrVXE2PJElSfc/cM7N6umeXRVrB8nECgbRc+E/ckTgi/iInxIE9LFoJaQHNMLM93V1dlRluj4OZf0RmVk83cCHUk5MVGRnhbmZu9uyZefLv/uFvHADQWgMgYrwC+Mn58staf3I+jzMAikDBwCKYQOV5ERQOKiY4HYDoAIobZXCarIgAnIpPN72pX//FhjfjJuMgCcD25w96/JOvLgd9AAyAUB1w2sX47998u5k1mgihAAAM2OgbuBW3GLkIpzfT4/bUbDP8PzvuD/hKTJQDYOiGHp/a8tH4Sv1fD8jB9c8vFqhpf4P/nRQE5PzkFECYwyDKuVzW4CGX6xuFHa6vn3nktfTPuzqW2f/E+hxQ/rv5Op1dscypyuCcf+bj8w29DmEOyY1pM9f5Cwc9Jq1PXPDjx53brxO4Jzrz8a1czxjKFeb7GCEFzpnbsI+YXfX13Dr4z1C+uJu9Mx7jn5p86Jye3vLLD1+fSYjdW9MB68/tAqKLgOjMRwvmdGdcYFWUp9ik+4976STvyWmvNgq6q8hV5mb3FwLvqkGEllE5DHDRRDm9+yND17nD8kwfSCMEFwxCfdj62XZnCMcG1k9M5DZq6VrzLyo5RfBFRuAsH4ud4/uCM9dKIx7Lg4jGKUrKTG7cKAcsJ0CJ5twcBbD6p8fXMYKzzrgJJKdqJ1eEYvZ4TpC7yfcJE5C5OxSLUPlEJ4Xt3ExWvKAvUdE3nA6v3PdWFuPxe+a4Ff7qX/+jmQ+TSfBicFmznVOkWLW99o9V574iut2xvToeCNWHS54u2x1tVcHKPQdB9el710z+X+S1WdC7q78yIftSDyDYk706l34jEZRAUU1o1iWuxE4H4YgN8iXWWEQEpxWhhkodidjWhbgb3M6qNU+Gruan6w385sx6zbzhJ6Rg9z4SIYDoDk/mdIHXaiIgNQNlY/USkKwIUIFYw2nfPiXGZDdGuGjw2iZEQA7whZByK4WXBPSpb41oZ+pauX2dKnMAAsEZMp1OWQygDvhle8xzVyf3XLnv339iMp87zxjJS9FIRCPD+b2kib7I01JfjEIv4d/95D8P0n3usUghlfBlxwJ1bjwNfYy8Y34vERDnhQl7TTChjjU8ZYZ5i89G5l8oI9neodyVws3S6+PeiVPT9a4zJGBSgL/iEn0IjoosyAHUg7e8o9r4GBOEbqK1HGI+oJEEqgqkjLd9Mo5CnaDS/WIkG0aY5C5zmPVFKWLDaTNumIOLRzfah4rG1VUagEvBdxeeSxdHZtOGmYc5YGNFnxp900HmMIExHkLVt1JK9Vb/6KECEOzd9uwco1D3Lrq07QLPjBIBJ42ybQsvEjILrObmh6/sD1yvuj1OJV5wNnCxKAG4WPn3x7fP9kFMMEOxOt4f7Te1fTigeoBWOCmgGd5/7c2mntAToaen51tTeiBeP22nBg/ABwOc8Fet/bHXh6Z6amfARHzU5oGQCcpBN3enNcgJW7xIvDrNYB1tpp5cB9dX8K/TDudcXV53BpamhLPhXN0Zvs0AHRofD/7dV3h7wqGF4bERojXi6dwNvktfNABP6cvWJWsPm7fzq9PmjiIaYJSDbdvsuRyKUEFBHlDE6B5vEEEDJpiDQ20jM9NccGLKVv0yW3KsnWugKOyBk/WbWWRyIxhTMKEs1IWUuL7fYYS0FVzt/atCXQWoDHUQphbJH4WaypCb0Li6k/BSkV7ccVAOA3u2RTaIMphpzWwWJydGJpbfXlkzsYsS8J7ShX8e5hKG2ykdfHbgMGfIawdAhxP9Uv5noGg0xkoxAB56ZgRnlD7rHTbg4ro5TzZao+W0AQitIxzeicS2DAMvsRN5Pu9pznC3HCmuM6+xYTaRITsNSRnVWDCNcPNGNPPAueELw1yvkb4MsiVEBxu5yj6Zn+6NGAzq4FFFNIul5Ka0hWZ5UpHPz+fdonLvr778eXtBqMoqlEMUqhM95IcKTfStXDwpRBEo3qoTkXKhWF+o4SwYp7QkNgJgBpgs89DhHQBzM1kRJCMBS/tvM5tKG/EUd8x49SmLLJQBcXm0s/MxhBkAuNM7a8QqmmCN5jkRSydEEN7IplMLg6O62fPC+qHwQjuUah1mG+A6HetRKpMQ7BZ7ed6QI7BuLLgUfDziXBIOtE7mPB7wXBBxXrlM7up8vzqmaYT9t2Z4rsHrM5xOMKEyvK+2mdX//PZ3Ih3WHM1SkclMQEJpfN1YfdiejLLnUr471OfCYBCDVBdxtvrOnzZellWfx6U8Y7+eGdqhRCDYMIUe7Cz813a5XILDWBYXoDZvIc4o+PH5aUi2S8iK8GTgYcolhno0b+4Heo3JC9ZIIXCSdX/swrHh1YbqQKMLJoN5eSr2rh4eD1a8+wjC6U/VvqM/F+sqmDZ/rhV088xYM3uFW5fA6gg2wzOwWf45l1jEkV1i3jCRX19fmRp5I55pi+P0MKWt+DuvR7cKGWhiLF4T6iJUb+RmfjEX0ejBWQaTJkp0wExzPRfBOp/HbuSdjTModQhZlw4KfNAVQ6veUzfPh4ZA3Rxlh5VXa48g5IPKHgwrob0jREDJppkVL+BBXFjjdDwtfcZ0v818LNfrhbjQY/0Ry6t2MSz+XLOacdusZ/SI4HgpjfVleuqv/R9vzvT412gz/tPtJprePm0atmDN4A1YoncjGzXwTC8zTKHMlD1QDdGYyDosJTXTuWXuOHUkhpt5x6K7Vb09kRFzMSz1gf18mK7u/jFCts2ikIV5hAjdMiwJbJalCB+ormME7c9g+VPY6XacmTEV+c+uYO+LxzIbWYeAiUFsVUzgPxMcMrhkqzAoWdRM5Q0wQnITTGVIF7KgG50z/tgCb1NvmXK/VNuJBPaafTRAs26J4SOvb5DJyCzw7dSssHGHQLhAY5epUBuOIs9WfyiHs1WBTgsKAUAzO5fjZta6uorbcasfKx9rPZuhFPaiimAbAVyGjrwbTnEcWy+c99obZCY/yCmF/RclLLkYnjdcDCUeuqCpiBV9StPRRoWbPYWNowgneZFbrwgHmqyu38OlutcPONHth3r49en4u9Oh8+pxtW1mv/347gwOXESguumCb//tvcjqQYVnVGvmfrQxYqWx+anhL3/+i5MHtEYjIC+yU2s/P74hts1A4egA0GhP1X7z/PZjUC+yYwOArfhG++2334e4B61uAN3evX1LGaczkIiHbfvln/35q22DOQVTdVgDjjz/8fHhqEvdWAl7KsfvT6fvHk4Zn7gBoOrF7D9xuZQoM3VlCsXx+HQoSu81bFiEgSYFfm7dVRbHoeEUQAJoFn0R/rDhNbfqeq5O4dRiMaIe8LCp0ZtZfBfwi8ACEy421vZcKeZm4sBLTgd1bPj67F9tLdycuTmsmZ+aforL0c+1EcSCLhE1w8jE3Gm7aBwOM5hHugDJrhZjCihrOOlPrBdqo+Ei5CJgK2gErbtDn1ZDeFGBo8gPnu6mLfC+F6MgmAc3I2FPpYFePIUetza4lMk1teS/BIKAQM/DFn+8m6J62ucc8Wm5C3LFThagX9D2krpKH1dGYD5KA8P0Mj49AE0kAqEoEIA7bcSpARLZy0HpFwcoipxv4J6Qkznc8qaUN1qI6jbn6BF7lbcN3eYMLSPlWqI3wRGZhgfDU9sEPFciENH6etkM/lKgXtDeDg7IIDNZNoPAkAab/1UBIB0sShdqgoOi1OEg7tXFPl26U+dqqMnkoAewWB3hR6JKW9zGKkOn99hxjMNiuU0OO7S+ZlOaMIcyMYCwiYymKABAcZjg3pn0KpRm1pIbNKd5IlAHrNEiSx9yDWezNlUsVRgPOyJg0W+jNKvqUwScgjDAoepwh0OZXwb1kM5sSZapIBFmYb8TZGYyitZ5B8ubAMDG49m2cBZQDVKjqDXSUes3r81R3x/sXS0fDwaxWQnThcxJBD+xtHpEPLeb7phgF3rCn6sy4u0mPFc0w8Xntyhcmr09snpptPBVAER7LnyudinZ6pJ9a9ntYBGkSmaWIRTLVx/kv4Eu4GyFxSKiwQ8AQDNtziK2+k8/Fd0vpl99/83zx1ORAV7UABQvTnz8+FH7RRXKP2TGfr1iYRT9MrEgADwLv37/fdQUVj9XHT89n6qjmZtQPRaBNdoP22UzZo4oUJl6/fD2fY+1SVtTZuLTuyd64STFAfhZ+sd//peDO7g5YDoCILavtssf/vVfmaN+81UpbhvLh/d1oxW3SGMJL0wDKzf+z8YqWFagOjEeviaG2wJ1GZ4rBnJlZ3uKm2gHh8MMXt0yCyKeUKJYREHLg7hUDePiWCnsVhAD9Cwy4WLFGaAWpkKB4JHurEKrQt3MGgwgleXwKDyJVgWTFfm+hOrsidDVwc4cZqzpntKtM+uZ7fosU4neHW0qVISMcoMlBby4z6Xzw5aMaFT4U4IWdTFhs9oEdURHocgbm6M4SvWkgC34CXFXvR9uPGCPOi1tHRPcK/TvGhtui9kBoosgrXyJd3fIJKNDPsGv02M993o2xd7Dh+CtbliGHJo5Ciixhm+yHoDDC9W4KjrhlhlmrlYc2wtzQ6/8TJfQeZVJ4FrErrSZAaRKr+oVt0Ib+Oxuod47poo47EQZJSQu2dRuGS7idgPds1Y6aZ7QYl31HDpxCzJ39JLd4VudMC7D5b7xsL8v+wUygOMY4lqTvvpuEIfR55JoT4OVTKMAzCnLeI41hx4tOWFEhpaga9cLjNqiGVAuOuCprU7glJsVPrJALA4PvW7VmTMvvYhunQLXgIae1nEuKI4LnEH+TzE5FZ7PsYg4kcXQ9qwuF8BBdZavL94YV+BXm86I/aQJteEExS2yBNrFnDdo5oISERKAS0Y4yeyljjx0tF8uUxlGEdnEUPIVjE1avWsvcE52zccUKMIoNxn9lE50FB+9mAwe8b9mMsDeEMVTELvhfQ0wbRvKo32Nw5G/+Pu/NcHczo/PtiQbwRyJ/ub3H5pt8R5BComEDiiEAsYjwYYBKM7FHCY+ej5vi51nBbGI7//jbVnCWyTzJnt6PI9Q11kjNz/g/Nr84HTNNV/p5fJRQIl6RBiR0w3YPpyLAvmxS1nG85ujF12q9NAV/syekzAKSUKjN/PNBDR0wyuOgQgD83b3472CmBlXW7KasmQNY1UNHDGl0tnsiGqWsRCgmwr9aO0BOpYsjTlg5gYd6A5VU40FQHoaiIrLzMPAY3VvFx4+FBPPXVrdMKdBrh4rN3PMCUS1oyxdAN2P7ebzo0dvEBhN0UMI2p3vq6bs2p+vmw4jC0iUpdLJisqgzFSVeVPHC7TZJ4195PCxSm8+2knn3vmr0X2eJPz2e6IvRKqC0go/fS32ifzGe6MIFYqQDfvPrp7+xcl/aDxyOeXXxcb1w4m0v7SNdUmmPnGk/n31InDQd5rfpb3Zl0uZoTe5r3j55rm7/oeEE1d5eL/1Ovr1w9uWydnPwUW0NyLY8fkjgky7t/3lWbex9c7rFfJZWezNf8iEPYC1ost/lDeBpf4zSVtmHHVGsVFFnWnqtPma//Si+pjqj9QnVpA3wkHvwevZCzkaJNCb/AGUVPhV50+QYqI2y+Rk8uJRTNqRdGr0gJFee33SAZ/rLQrloyPaO/yMOyqlwMV7r5O+XjNMBs3u2RFUM5ZMM2efZGes5tDNaWXMnOHzZHJgA6yHXE5kyXPxReWA4AYvbq2gPj09GUBsDw8PFt41+4bj8c0g6xGy139BgG3rqH/auIgP799lx2nnzcJeLs9btNakDCOaeNm2Zl57o7Wn3wLEChij2pwIDWD9+PhUfNeRFUP6/Z/8nu3XIEQKeHWcUKpXrhvx7Xff+EQLuWgDS8f3e1NcL2yrz/JW+ejJrOtOU9A60KtVkCxY/OvrvyezzPOYidPiLK7u7eAWMAHohG3SwSxogwIO31Q60tn5v8zngtjPtgHn2NCwLNoVt9zjreefV9gmB7dSxsqundnPGO3qQjiC/q30f1erZww8EjbrmNtgkBMoImcbTqOM0cKrjlauJKnez+KY4sQy27Uv+qXIt2KE9bC9CUwp7KZ0veYBOG88fv+oX+qGRkUh1qPNh51xM7h1GVGwvgWw2rStFed43FxSj7eG69nOIPlSd/1Lx94EPilBTV8W5ZbrFrhFEItYJ+EOaSfN/XHV/+ij5SzXyUuDy1LfzXC/XATs4t4B2zt3u2rvS8vl9M62ouYoB1iiI04Giph9qFriv7gzhPGus0y+jG72ZF1BZo02zv+bIzuZlvSE0QZypdIgP5H73GBi9jyoQlDQoQPLCm7ZpNl7A+hAidWimaMmCtqywb6rLiwyktZlHFrGOvYkmKB0ZrvktyvDlx6HngWo9P1Ys5Nh9MiJiwmEVjT6XK142ED2lzoIqsiv8pSJ/4M/ArwkBxM7ypBsGfW4nRdB7xqYbp2fyVEKgM6NQBHzuX5luIwovrGzPx71LicBHl6dMpvOTW4AvW6Hj+09tm1QyYEdi/DN978jooKyK9v97PXXjmu/5QpCUFf7XzzpUEzAG5WZfdNWd9cd4dgMXZEX+WhgdRkJcmazL5n6rv8H2R0pEEvLULmq0/f+wnRVmru50PFIIjrZlYcKU6raJxW+V+nYaXBnH97uzGzm913kMyzktyYp5Ff3+DH3uWRukc/m2TVw7vj/JZBl2ruvDndmaczzE5n85x/LBpGbloHscggfYWuwnZ51701vRGC3l+VsOt16vXk/698LbNJUJ4Xq5ia/6pAcKZr9eD637mHcjzl43KsGpvsjvz+rawEMYm6R9T0fdHs3u3dyfuD97spfheil+y8mNnpBGkMqYighSSjE+6Ro+sw5ftJg7RVYiK1rwWagTSwUv3URJffIxHf9/6OCghme8tNKORhlFSQ5RO81b7sxwt0wYsrjMeHae3G+V7+nKa58AXxtAegzvytQLf14AJxqV+MyFE93IwPks5sSyQIvZ0KC0bysmu3XmmW56WgEEq2nvZ/pFDodYJB7buOJ4iyKm6nX59eW3fQXkxZe06Xl0QTcLVBQIAUzestMphb3/LWDNMBmhHqVAhwZbBhOA1C/fv2GUNH25qsHQsVnX100fz2ez9f7oiAA27bhxlNSbB55aJLQFBT7Zi6SmlzMW0UbE8vheM0HqQC27faN2UhPfvKzN6YaMa9zUCyOpx8e46pFzYDwuw9vi4DsiMnqHoDTmwcAlVCRB1aK/t24wIniaDY3pL3kQnaWKHi3akuMaKV3UFG2+x2i1YLniNcscH1YXtNMko/yPmXF0czcGpw0X5xFAo4GszQczP3+tgmolrtlPZ6Wjrq3KGXf9WwqdRtNDGmRK68EMPtzBsHY/ejc54R+46GtXVZ/hzKdwSV3B40fXeifF4fTyd3uu2ziYXDBu/xJ9HABsR/Sd3t+R8t1wNOlzfLzjyUU2+xJ6NX7LpoJVHfHbl/4+ibbXmTKf4iEZUQEX+ti/UePJpYdv7sxHrWrf+/MuMd/Chb9ttMQBsgewk5//2kZZb9k6HktHO9M6noktzcZX7BPFhK6udnVYCe/r74f6IsD/Y8dN4Ayu9r2dQPO3SGf+1tQP37ly1PpoEPRVkPAaoCzTPheqE+jZzjeW26X8+v1vjPXXuqciC0JitTGuvnBNEogPyqAuKN1EY4tGbM1cIDE0ReFYbbaOa0aRJj3nwfgMoOxFXf+kgYnUVM0AVbplTKbm7B6i+YscsbX+94J5ONiC1TC0JmJjhi+VADz96yCFxg9M+h7Bz3ILq4A1J1lFNCm/w/I6PT64fGZkGEDYGgDC49l4+5RFJxBGm7Cq+OhOAwWwLP/5B4v7SI56X3yBkHO0+FAWbHSLSioaH747hEyGwgtX4zlsJT3RieElb4NfFqDNRde/ezhKjZlnnNpva6VzUdxo8OrE7r/iwaJKNdbEhBDFZykYH+mQyhS6V2wsS8syvwD/3acNzeeUtaBZI8NQsnqzVi3QiQiNiKWLEnbbI/3hcmaGSfZiHX3MeBFol90b11vZcPKf0Z7+b4OlzMZjChW75KAWxEgYlhXrsfuhHH0dbb7bC0lXTXc3zYUrE5nJrxYc9Z1kX3q2PvSO67V1snP4e4v2mU41x/taLJlfwp7EzU5+5avO8XXcfbLRkXkeqz/gyBWsUTTbHIZxbmOUrVvc4wlvYrCJCfWdu2bH6ScUngxFRdjI9RnHC8mptzxEQlkri5eH/Hfu12gieJCXJoAAAAldEVYdGRhdGU6Y3JlYXRlADIwMjUtMDQtMjFUMTA6MjA6MDMrMDA6MDAgot+sAAAAJXRFWHRkYXRlOm1vZGlmeQAyMDI1LTA0LTIxVDEwOjIwOjAzKzAwOjAwUf9nEAAAAB50RVh0aWNjOmNvcHlyaWdodABHb29nbGUgSW5jLiAyMDE2rAszOAAAABR0RVh0aWNjOmRlc2NyaXB0aW9uAHNSR0K6kHMHAAAAFXRFWHRpY2M6bWFudWZhY3R1cmVyAHNSR0Iq8ipvAAAADnRFWHRpY2M6bW9kZWwAc1JHQltgSUMAAAAASUVORK5CYII=;strokeWidth=5;imageBorder=#99479B;" vertex="1" parent="1">
          <mxGeometry x="633" y="400" width="85" height="85" as="geometry" />
        </mxCell>
        <mxCell id="fkhzhb3UsODcdzvoW7---3" value="" style="shape=image;verticalLabelPosition=bottom;labelBackgroundColor=default;verticalAlign=top;aspect=fixed;imageAspect=0;image=data:image/png,iVBORw0KGgoAAAANSUhEUgAAAFUAAABVCAIAAAC3lz8NAAABAGlDQ1BpY2MAABiVY2BgPMEABCwGDAy5eSVFQe5OChGRUQrsDxgYgRAMEpOLCxhwA6Cqb9cgai/r4lGHC3CmpBYnA+kPQKxSBLQcaKQIkC2SDmFrgNhJELYNiF1eUlACZAeA2EUhQc5AdgqQrZGOxE5CYicXFIHU9wDZNrk5pckIdzPwpOaFBgNpDiCWYShmCGJwZ3AC+R+iJH8RA4PFVwYG5gkIsaSZDAzbWxkYJG4hxFQWMDDwtzAwbDuPEEOESUFiUSJYiAWImdLSGBg+LWdg4I1kYBC+wMDAFQ0LCBxuUwC7zZ0hHwjTGXIYUoEingx5DMkMekCWEYMBgyGDGQCm1j8/yRb+6wAAACBjSFJNAAB6JgAAgIQAAPoAAACA6AAAdTAAAOpgAAA6mAAAF3CculE8AAAABmJLR0QA/wD/AP+gvaeTAAAACW9GRnMAAACqAAAAAABirYRGAAAAB3RJTUUH6QQVChQD1ejivgAAAAl2cEFnAAAA/wAAAP8AYjLrtwAAFptJREFUeNq1XMu2JEdSNPOIqts9M+oZhtcGvgAWLPgoNnwUv8BXsGY1HIYVGw7DkY6EpO57K8OMhUdERmbV7YcG5dFp1c3KR7iHh7u5uUfxn//xH0zRQSMcL0V/KD88V9GYRwAA2m0DcDhvVLffFlc1EwDy3xACKIwwYrneAPSrP333t9BXOBwCUAJ3hy54/+N//3vFe2F/vgmxP1DLewUU65eFxc5xRj4aaIGtad6YRxHquGAcFA0a62DyWf2Jizw8quNnOkTIB+GnNnU889ph9ovE8/k6H2VCgIEAijUlnEdA5zPOk596/x99nCQUca/2OY1GCIq0CM8nhGF4fxQNAfHodcLnHfrZBT8Ib3bL9/L2afkfuV1DzLx9vbHS5/kTDzY2j5YnjxcH8POvgE9beMqn12/0cbZSI8G80aRBD1voH87/mmECOPz7igX9vEcKEsMr5X9zrKBAA16mRhzK6f6L/c8aroLC/XYagaDjXv7hBeP4b3t9nHfzQfwkcxEtzODiLhCOus+lXiw6wsNVuc+zgIC6gxtDoFHpCAQNE3nnRUT3iwcVxLbdK6WajJ93BXS9H1VX0pONMyJKH5OKQWyRMwQZECIMogV2XwAogNo2gA5TQBhs+OXlTfN2P46XUyTv7/MlFDwEpwiFT/F/TmD5UvlLKRUl/FnuNuC3b0qA3UL7aNmI9qGZiPkQk0ANB/ri6UZ+bdEccICa/zqErYoamKJrjGj058YLYF94n3/EACMP7WxY7vwbxRnKNZx+iAhEoAkEhL66u53XIUDAjAhbRQGEMHyhAwKdf/TBKGf60/7viwV+KOSr2gG0oDXahDpUWVATAULhGCro9wZFIOigiREOTsKvDl+EGCLStEV8eQj4f9AIltizCA90MzExokJ/nR6aTx23cQ5NcYAcGM62jc9rNE4f9MrCFHjy9z/RU57i/705HM5QfeUenyCenyZHTCjpj8KMCblWROH5vp/zEL8MaOo0vI7/I43XxO5PEv8HJAQIQKDCniaqoV0TsuZ0TtAf/LwU6I/Lk07oraO9BfPsqB4wQwgwV2b3UwM10+juMA2kPpcSLn09M2hdVIov+dCCPdP0VueEYPcrtcYTuK15Ra4hlAx6IER19A5fyGfEt0OyAABmvFxEHI8jbo0Fftsl96J9PlIsL1cQaDuczUvs4hfCYYn5HNGo//XcAAhh2MBF8Vf1N5fmKfaM13/21SFpn8Z/jQb6RgIo6RXpFtu3Lz+0cIOKFQaNjUE+f/3N74tvKU7H4QYHX8Bd/kh9/fZP/xquJ4sII+KR36Vaewkf1n8LXPz+L5/eVL9PRzCwc9TnuBA2KIZRQ4Sf2DpOyAVDI4yyvcHi6tJfEI6giYgQURpogcocFNgA2WBDDy8h8j3j+xQpUKYaCiOA0uFtpFqEXxrVeHsSU0Twcdyxrw2acMaUjGIUfV8hu8vP5G+KPRQuQ4EQ3eLg+QNoREtI2YEnd19YYGpj13ROteiw3F/jMt0RNQOGz9FhxosYlwW+CFwt9nHy/30xOQ4T2BMbiEbYdGYaWoXH0fd8PBU1IMoxB50Zx1j842nutr0b+35DuuHUFDKT++PiS2LZFH6BKskLVGUOPKFu92oaedLIKY3oySbnGRMgipCYa5lHmMq4FUCjQAhojAiwxarWcBwltPgl4e6hwCkEAINnD5l4f+S/jYPsI+AJBmLFNDTDoMhFKRqri+w+rD8dQAbUlI3Dv7KrnAiiDKwZAoJBywxZ5QGY+gJ8Se9LKgV7YDzUuEhVrIIypQGjMsy4Q3QDaC4UQCYQNAyaPYMeL63AVhRmmnHk/wgEwqhwHYCamdh6PPwwjdPD+TNhRl84YTARTU41AVuUIRGmRsKD+t21iCOSmM8Fby/lej1oPf3/8y8q3f3zno8zrsF88XAT6XvrcylJsSVAHMCpAMW4IOFnugx0rACHMan3mYz8tEPHDwI9vKm7FSDqf/B9H7cDRCn4/fb1SqfFtP/vvtnlz1BAVOkdWKWFPhKt6vbVtVa3Yi3eDdXv31VHX5umAboIAW1wscICk72nAfniBp+jQCKak5z9i9ZuHrlP+uNmNNxu7Zn40Jixqxty/e5aW/Q39rPpfpb4UYxw0CidVka4EylXqRlPbXqZKGYxrtK1VAl1UCA9VroKlShdg934BTMRrYjYpf1ycpGKbvAjiMIgYIEbLHBd/6hbsAXomPJXpzBxXHSRJyfrODxkTIMaBpw8e4RZFMUaIBylh49c//3Zo2K0BZespX/3k/lV32VlypMeUSkNpzaG+psAoCw1jl3grAg5Mv7tA3cUdRyU4EjpFEFx0k8hyB2Dc+TlZRkpBBXENGi84rY/a/p9cqMrBXBSBwDUHrmoKRVVDkWuPfLnBI4QOAyhGEUj/sWSftLuLrdnE6LhjBr7rMakBveXani9Me405k9LrzEq3sEKmNTxpLngP/RERdOZvwb7jtm4129HlfJsflrqNt5pm7h/+GsT9ZOOGciXdXSobqCWTpULcHEnNtvkcw0adhSghTBWgcYUEdhm9OqcowCJSjRNu0Bp2ukLD7TcgbcxMnf6iZh/zkjA02RisH2HjCBpu1DUXz/fsv6dkyTGrVwa5VzAFhBhZXgw0BKyzGeFPgReSi+ZNgaAYtxKPEW5CmGZpYUAFEVVvNQauMxFThjQVdtXN1219Vx8KJS6GCCfD9PqWeTR2T2yG27kCqUyJBfcQDjrGh6IAFH//s1bAeELAGL7UOrvvvnmQ104QETmJ8/bbWc+egiHqT/gtui+x4wiYPuuCOhga9ib8EYuAngbnJoU/tXL9jfx1VfPbiEngQeJeGot9J9PbX81HaUV8IbL90CjS3iAbiKMt5e3xdg5YQpQwa08uWBDB7v56qi/fv4wnBkD7fsL3m4SR13TFGWiMdfInsllvGzUc6DFLCX3u0yolL3gMeylON60UgbkAtBCW9EL9WP76kpvoRY5xOTb3gMqeOEeF6PgCryI78Fb6MIhaoGIuHTuYjrx9L+NrqPk2XPccNToSY/ucp7d2ASQCOOUi07MdM7kk2akPFcKZ4lhd3eTh5mms0DF4ajHYi77SwOmGUnMa5GVB7Ag4tPouWYOl0sFr3YEfNlxatRYjw4QunPqaqMSC4YhM9RXeNdpckHJI4b751l1bQTY/XSyOhmql7eLhwJJH1teUxe7Wu75mN7ilIk5A9tdUJwe7HhzxwX7HC2SbKUzbovLSAJkzn/AoV4TCzHciW0NOI0lcfn0UQcxsmOMyXxOoU7aeJiMzjrcvPgRiFOui0SHOWIaBaKl0YCDUcDGHTsiCsAWdCigsBqVTKMAJuS/q3M4tDTCaP22piI7Q9SR3j4tWXVN6KLeBXGe7eydyHx4rVLTjgdmlO4th6AACBWjZOTPItwAmgCqUOxIxSUwC2wMhCoa0DpNCDjUDCBaqGhn4MAeL1sGxN6zFBr9T0ktp5fuYC5pzLTJFD4Z0XzEqh0TYZYduu/fnir2w2oMboro3pQKo9G3gveXRI0RFpFZYHwQ3r25fK+307BNGPViUE9XASyDRZw1myAflEzcuyDQds+CujUAoNLutLX45tv//eFSdlcAmNGIG3ZcuNi8brTu1oOJUnhC0OmizAqjDWFENOK54Hcf/lAlIXLystZ+Rfvdd35qLXnRAOgo4ruX57/79dt3NxbFyCaS/Lm9eRfCizkiGyAroGhboBG7mzeiqqe0wwUg1vnPo1uBuwr39U8AQbfgyeVCg2Dfz+z2uLHjCAlhShEv1PeIMNSJ00xUdW30Vi+6tGFOxaitAHiJJxlFDCd9aI2gm/F4sBxKRaws8zzqdLPdTNxLZZMU6i1nnLkNRufTsPeRIC9+RQFkWW0mc4NIRmMPIUpaAg4fio7M9pYUNX293QiFZkffFg5sxVtBEAalUCMcrUUsVFfk/BFocQiEmvLzPPoFmfAQDvYew2P2MhtEfWcI8/xuGWSjknHpHIOzGpCAj+vTTkV7jWlKJzqy7R5WWijhdpwXv/taGAnynMsavgtmxzrB3REnsWf96KiiHqumReyjT3PggHfD9loS6TgEDWU/Z0LJJV9eqyk4VmuOxxgPH0O77H9UqEPy+8C+Nh5ls8k9ODLPn7Mh6xFr4BUd9ag7Yk0bf87WtTEEDIZirNas6ng2B52X9jLsnbHeQf2oX1RCvRgIt1H/ibsVkcNqRx3lO/xYzv3EvoK4kiXR+052uBoCyk4oxuSaetD2tJT+4dSMgmND5ue0jNXv6jtA4QqghX4MCF/DWTjqKDw6abUVnTqis6+oJRzvFjSNJSDkKh3fZouiYieqEniZNBQqY/LThqLrx30FDa8WiC3w3VMhnjwoLEAOXxTvUK9t8PF9OpMRrsNO8p2Ao/7Tv/wbALr0DpHY8Cvdyq2Pv4NiAbpcK7ABC6R3gO1ybb3IxW6rmcDXp9pj0m5HBLzhUN8LD/alBAC796ADaICMD7PDcpCUNOT2r8++Ni1WbRO/fvnwJ9ffPD23fEbJ+EoCEdc3jk09jnaOv357eYeeVBa6gs9PfMEgc6Mv1YRqBLsdLhbQSr8mZmolhKHoDebp+SKZWZplkZ47FbM33WMUYNktJCZ6z2EXawO+faqxUK8Za4vVWMOj/8N0BKlGAVVAlsB6Xyyi5p3RXymO2Y7lfX3OyUGenJ2NEKNdYxLJuRL37uC9zeAQmXbv1TtTKQCRTYverz321/SshH6MalYFjxdljX+fkhQu9t54YKCLU0j8ROFRHK3hWVgyvaiNd30Ia2eWjm1ph6j2yj4H3LnbSTe8krU/7vzLY7Q0rc3jd52md0Fxd7HonTbdyOdkHtsvorvivoxHyRe7G58PXfPu+xz6YRFYXNEoPnlwDDKMenrD0gyALgbHtpj7vN+hiAJl088CYO1OvDpdvXrHdno4zjcsXQNj5EfujsNTr0F31iBx/DDVLcRC5kWmUgNByaOEL6LCDEQ2Q48p5dL2Maa0t5Bg56VWNY1+ozH/UkdAncns7I1zDV46Qzi1mKxmDI3vT1cYCeexgG4OhMIFqiyNmcUoh9SzzyGFMEf/HwCgEhNyxzIba8EEvTXSFTz2xTsipVM92p0Kt1ABtzv3kVvtDgQKOo6LvQw3584xm7XnV2VQfVP4dGw5pMZorPv+N6q3LaOam1ANtf60qNv728h2cly3Woe+DsPWJQzG0dkGcG0/WFg2QSRhx629T3Li8ChTl6sUWxyLPIZRCjqSWb8QSujYY0/LwAf/WCa6H0Tqjx9uX98u+PDS9z+4l15bbH/+5mJKvbjQK9yzpWOyAAxTe302sikWrkCFt+MGhsjIEp07S0a8JfwPAigBJTrqts2X8N4ftixdDhOKtapDI5tEeDSYjPyr0c2GFIEteT2mZ1Qyjo3FPBie+v6H/tZhYGbsFa5JjW5wgHXciP2uPn+dvctOg0AL576LLXm+vpDcSkI8DAp0PLDsJj5TTEWWkggf07BTDop1/TPc/XGJjErcDB/3omancOf/8coxVdB7mJai4pjPLtgamhTZT4qsz2mnXhzZnIQjmNk/jxATRw8bXiiJ2afycMiOvv8xm9R661HMnSsCwQj3KLDuc8IdsHu9HLL02B38BE1PfbUZq/b6eKcfYi/74+je87qxFr5ob9UCgZYZOjUOrA2VVDVPwvtOscv9rzYhzPdp0qwn/Dun8fTQWOpFJ2OkdyD4QNpjeWKKdX8xZ92dJ2SBkRJy0EkUMm7vFco54N3Cx7fZ2DeDpYJBGKPt8S4LCGA0zMxOyeELyBV6eX40DzPSs5VJPU3hx8UjZ+uswZ6uMYtvPX/p9YVdmL0qvMzn/IrzvHa/kMUsWb3lsMNaR9Yt0xQqCLiEQUcEywbHNmZmr1JfsoW6Q4CRSzMqM4ytM1oIV80O733aQ2gsGyNAEItlxLLZfV/UlRzgLMuQLKVexH1Y84a4Xh8YIf3y8gHZY64OOhsB0C+2o4WAQkc20YX5BuSOF2LOyfVSwIYFSvSofmviHnQHcGC5HRZjSSXc8D8/vvx4OwhJI9h+8RcN3OhDd2td0exe7dov2PMDn3zhTm+qTxqR/byNQYA23avUvaPREYraWvEs2gTIcIDbNaYrOGzdS253SgKU/F9tsY6yy9PCUTdSy+6AokpqYyVvZZG/7/85kI2Zzz1utj3K3zO1XpgIHxpsPJoCPNpRctcKR1HXgw96+KJhdbGu1XU+MTruVpd8n2u/fvTRn2949IDXHrpTsXTQEX0ECwHZU93OqOiztgofXveAnv/07fdandXkVfi+/xlYqsKvsB0fUYH2Opcf5ch3OseRhz5VjR8eq5vESGWPX50C8xrU71qkMERO/NP3PlM93vIhCnrYQhkYCflMmJeRifbo9TRNQuCir1k4AsBzfF4l8XFIKyiYdaqu4o/zH73o0l9toJqZISlZWHMzLsf3zRrTvV5691r/kwdiIOAqJXQfE9WqVORH1MXeWYw9+2AyyDp6ugwBuU1kECN7C9hrhSDeo1uitmhTc62nh+0429olPOjSQBsdiwfzIhBoxSoWJPeGV4WjStkgjpG3z3uKAZM4dPBmX5If+b+6llXHcWl7q8xQ8boETvyC6ttfXSf+w2BoeE5pcihT/t2KhuHkhpdkGg0ipLfXy1PbkhrNzJCKArwJVnEktOMuMjTfuDd70biixIJRkNUKgK3n8MtQI4T28vys2DdjGHQrfC6FwRILtDFQxdGcTfVesM5z3695PTqvThAAvYOOCiOs4u0iZ+ly8EstrAqWqdhlze+2gNWJ8GLuZMmy5rnkS/Mo4tyPtCyEZeaON1SzDfyoZItEPjT4zpz44CBn3T69Q4dmEKFiRm7+6DFMQJRk51YO/C6T3wVFZF8UDnisWyI5K1+LHmJ/YJzM93wIRPXS86XeVMt74aftvZICChi/F9GpZdElMr2hFkiAcKEfjGfAsH3X/MwLdbw4PkIALL0DJ10uH3Y0OffV3sfPOznv8NYQKU6eaC3yLG15uc9p7iAYwz0nmnsQW3efxGE8mflknvS4/v3KJHmWQ9IT9uah2PHvjOUfZz4O2j3+zlmcLhb3tOK1LoPXj+AnYvpPOgZs2vdVZ6fhqNUfiiBDMw81Ijg3/8VOQndAxfVpWRctlO9QSgKJmPo/jDPHhsE1Lmh/rSO+WgtZrnl0srbI1Dqbx7Pzrvt57plfsiULYzX3z8ilqSod53hFw1NDhS+DUpgdVEUKlNX/CSjJh0qOPdbPjWBhYuxQGHeMdOoTwh7AL20yO0jG758Q9em3b9eeJ1ENN4BFMbP0W6AY+PA8Cakkj2hcNvzG5SIooAHFi8tV/E29XOsWjvzJARONUQJvFVXdujoRRIvb7An02C/JQ1Y699SMevwCdGb5iooa1xLzt1myTRaFcb2UglJi0My0gbqVfVYFAGpWQArlzq/xmxmgVWY+O6orNKri2tDcS+sZ3q7NNVTl3P+Y7HUBCFTFrFu4C6eSzaeUKVi6T6O4huRXvZ242shpkSnQCASkbPgk6r1zKaO0lAWG+xXlQcJlL1RjbLGzJi07H0gzxsa2aarxep73OQ58NezXj16kS3pO8phcStwo9P3OBHD3ExIcjfQp/MzPHnrs2b06e6TdT8Yeuh8N/+c+TukCcOLFd5Ki3t+cJZd7mTl+ae70OyWmFJ2rwvwBi0Oz5ACk4Efy/FNx6qPHR9WYPxayV66zyzQ3nZZhg51h+j/fPUoKGfvHyAAAACV0RVh0ZGF0ZTpjcmVhdGUAMjAyNS0wNC0yMVQxMDoyMDowMyswMDowMCCi36wAAAAldEVYdGRhdGU6bW9kaWZ5ADIwMjUtMDQtMjFUMTA6MjA6MDMrMDA6MDBR/2cQAAAAHnRFWHRpY2M6Y29weXJpZ2h0AEdvb2dsZSBJbmMuIDIwMTasCzM4AAAAFHRFWHRpY2M6ZGVzY3JpcHRpb24Ac1JHQrqQcwcAAAAVdEVYdGljYzptYW51ZmFjdHVyZXIAc1JHQiryKm8AAAAOdEVYdGljYzptb2RlbABzUkdCW2BJQwAAAABJRU5ErkJggg==;strokeWidth=5;imageBorder=#99479B;" vertex="1" parent="1">
          <mxGeometry x="725" y="400" width="85" height="85" as="geometry" />
        </mxCell>
        <mxCell id="fkhzhb3UsODcdzvoW7---4" value="" style="shape=image;verticalLabelPosition=bottom;labelBackgroundColor=default;verticalAlign=top;aspect=fixed;imageAspect=0;image=data:image/png,iVBORw0KGgoAAAANSUhEUgAAAFUAAABVCAIAAAC3lz8NAAABAGlDQ1BpY2MAABiVY2BgPMEABCwGDAy5eSVFQe5OChGRUQrsDxgYgRAMEpOLCxhwA6Cqb9cgai/r4lGHC3CmpBYnA+kPQKxSBLQcaKQIkC2SDmFrgNhJELYNiF1eUlACZAeA2EUhQc5AdgqQrZGOxE5CYicXFIHU9wDZNrk5pckIdzPwpOaFBgNpDiCWYShmCGJwZ3AC+R+iJH8RA4PFVwYG5gkIsaSZDAzbWxkYJG4hxFQWMDDwtzAwbDuPEEOESUFiUSJYiAWImdLSGBg+LWdg4I1kYBC+wMDAFQ0LCBxuUwC7zZ0hHwjTGXIYUoEingx5DMkMekCWEYMBgyGDGQCm1j8/yRb+6wAAACBjSFJNAAB6JgAAgIQAAPoAAACA6AAAdTAAAOpgAAA6mAAAF3CculE8AAAABmJLR0QA/wD/AP+gvaeTAAAACW9GRnMAAAAAAAAAVQAd5h/fAAAAB3RJTUUH6QQVChQD1ejivgAAAAl2cEFnAAAA/wAAAP8AYjLrtwAAF45JREFUeNqdfMuSJDmSnKoCkdlVzRmZHc6Be+KNvJA/wyN/iD/DA7+DwhtFlhQ+hE8R9gp3p6arKh+R4TDdgwFweERkdVfjEBLhjoADZgZ7qBmc//bf/CsAMgAQMBjQQ6v/9PEfP7QaoCH2DoH48cunR/gHHFvQL1+fg5YZ9H6DLz8//S/wDBfQwCaAUc/64fPDH170sUQFAG5AAPXnx/o3p/OnH2oQQTaBVm14Oem/xOfnk0qAZhMMBCXj4cLi6E9DyJBdjD/8+GNxXgkCgAFs4v/986eNAgiAVpUJADCBPnPu8zcBhK0cA0QQsK7Wb0RA43NtJ/gEBFyB6EO7GjVQAJkCAgQgWDBr1FOjiUYpYOazVEI0aZgy0ARDAIhWPLmAwar8DbmTCQgAAcVx5rVTzgSN6xZAcadIAAAbdM6+PpIp6jMAJ8H6LZmXl1qbAO98LtaLTl8f6kuRgqAAgQHj84M+F35+rAaSBDm3c8Wb2SgLgILJf9RACcgx10x4irPHTAwAGuw8rv/t9ZKUyy4BbJJb+39/+enUFCg5xHiAXr5uJul+YSwVb29vQOfJIL/OhZ8eH876IeU/uS3rtdS/rz6XlpMEGxAwfn7kf/TTp1KnEMo4hS4bvpy4iTXQBdagoRa///jjQ7Qb3sXLy8vVamk0IQLBGPKPSs+Fz3YQ7+R29H7N5QWmOUg7toP1FtR6BcClPj7X8lwe4QLAakAQcdbD11N9KVWr4JqfH/Vz1M+PJddDqxilwMQGNYKEAaYYGACKo8a+QgBmTK4EsUs2YV6LQNXNnt//mZMlhLHDjEBK7LjkLpBBJfMNgIOCLvBJcYrcaE49Z6MEiqkwwHDufwjgqfFxmwwQ3WdPoARgBCAQQCOCoFG861wT0YVwbJOVnzdbvI4bAmOK3MJ8AxzkDI2hRhdh32PJfGEotOwgi65CARABcBOCzuvz0W2RUimuBFAGisNDSuNGsFf5F9EO97sivNsq58qtw8wH4byMHQjT7BblQIXblhSRozhgmeDYZeq2SgBS80VOwHe0lBkBwEFDVGCXRyBAz2lrjHMlzakyrnR2Pkhj5bOrphSYV8aiE3sunIu8cL97uAIY3MAgQojJwr5yxvjRJ+fjLjURY6IC0AcBd5kPE1fK+Lj4PjH5jomrq0AH3+NkXy53S3L3YZoGaPLH3MxLMNkQOVgwmqIxtV5MK9WEptTPGKoRuzk3OAQvqSCEiWDfMPTt/DkXLysHWaWgDuYLDIWCUPpYJKTG3YpmLzP3gFZ6Gbrwse0/+x/Oenit9bkq0LUjGLCeT/r6oOc6tA8iCKM8ndTayjQJ0YhilBYCIlKf98WfWrBGyogWFXgr57Fbh/VO1Jeny/wxB7kAl+au3o783VosMpHORlx4+ot+fNMp2TI31LNO/5/liQ+bmAIkV0Bfiv7bdv5cGgCasgE0bm84n2WG+wgmSChKiz89/FDDJqaHTUs1invnIDTkpTEdRLTuCZFEUwBQKZOd8s7/LnGTOu2OO4gGNuXyutTIkYLwxtNZj2OHp9+mcynP5fR00lYAQN09rs+1fFF8eSAgWqcGMC6CCV9Sn3cLH4AsOmrgoR2lPUCgrNzk/rnrb4C0fU83oPs/99o716cv3fswgOifiGSAR4egQt4KWrrFRHSbEkIUCwbTezVOybd3n/xuy7BnkkBOWYiWCqurrfuqTb/6KfepwoOzcOhxtdOw6/bFBAxKuYcYdyzON1vgxkgtjw3tM4y7LkDFb2ocAUYf+64FmoYnwNUPPa7SxJZqNanT8P1tKNxO8nX4wPtG8Tesf5p8zXEC6ZkpmOqg9wH7vOQU+7kh+39ppF+UcVH6ed8vAt0kzdkNb/rID9+X9O/mf6QnwqmfBSid/2DG83u82TrSsKvY6TIqVIJA6n4FUQJBtO9Zv6GAV8d8OuPRXbshExlrHCfxW9ZvCi7Yvf0gEKiNbCRdzRlx8Fz05aE+ndIBHSCK+Vp1aWzUFKU46o7v4EcfZJ1hD8bScZzxnXEH46j2/Ydu23aP3uX8Ztg91IXAoOM12vZYN1ZySy8wo+Dnk/5HPP9ZpVsNd85ftvK3cT6jKvbtLoPwQxUd6eHACEYAERGMiG7/sj8DJl5fNy/bcoStvGzbDNIHzwXE6XQ6rP+76Y1i1h4UWgBBNKqxNIqo6JtRQZxL+Vr4+VEl1YJFo0bZqHOrkKLHMh2AkL9386ulS9w9xXQRZcBUrBo6e/cH7Syv7xnAu9cbcrcTif+kFqBNNapRUw0PLEBBDWcOGYkZSikIUE3zacUQgt+zB4IwMrLM7d03WurjA/8BGoFDaM3faP889VwPUvJhJtGd7WEdmN4baffJmZM66E5eEkFGwPoNSiCgMqCHvvgVmwT4/n9/u/2/dSgXpCXG3ULjFBlNL77d4rQ0hSUAm4FAvQvEfnv515M7XCeuwY914t/n/x2gfd+f6JxOdF112G+gY8fnpvf2Gzy/d9dA37G3I3Jf4mkAv43/wgAtmJxMYCqU2ZODQ1qa4lLiFIgB2hd3/x8uJWDGZgCokUgev39GO6v3xS1wXsaeHf+4wj/L9vHOgLTbtg7dn8OyEY0PE6gKBqBzOX15qE+1gAmP9Sj46VQvrhtLPnXrZiptvnZ2DU/5XqAiOgBtlJJ9VNJo/gxAt+7DEQVL/fcQ7R+9bY+tYfjK9a9//Gejw0rOeD0/D8bu7fmkv3v6y2upNNmhwTD05YfTf8X5U0ltHGCjQZTXhp/Nl0tfYZpMAbBhKlW3V+hC59c3Dq9NYzYb8NPzUzmGVkwkvCZ3D+DtAQ5dQpXfv77963/+L//4egZ6GFbV+a9l8QCbNg9YdpJALGg4vRWVVpOjJgGddfp68s+PMmowUtgU9aKybTZKm7wgoguh5lqu9chxCyQk2cjGAU9yLjIqDgm5jHmF2WsMCRDx0PDHl8tfP53HMv19+1+G4BLRU46MGENPvdJdGdqMAU/cVeiLZO1Ryi9OIcdepdU5DSzabs1ZLS5g0m4DW5+/4/v0/9Vsx5TXlUQfOOch3wWRk/bfa+i+t13FFNFDbGcaMoH5d/lvrgvt0V5cP8ATn95ldvTyAt0eCbfDipkDmeBUXD9x/9eRVLE86yYZ3bOmy5XlSxDmcE+s2/UvucB7SeEAW8a5jCBNJ66HGUf1hIo7HH49u6MD6nce/T1NR6/k7vWVPHAdebTr9WtGL8tsNJirzEkH5ayJoAawL8B0hVnoTgKLHSmd6cBFCA64wHj6klz5xiLX1eqwZt3Qgsf+Ra6MUwxo9K78Cz2DJjjW4Tfp5aTPj0oMtuPO1nPVc8VrHUtiAGJw08AhlozgzgfgBpbRrdH9disrwDWBl+XKjogam/T54fH0Ye9VR5y/x/MAgHa5XIA4bnk9hX7i9nelpzPBTQatT1X/O7afW7AnETekvt3qpSUxVxEAALIsdJl34/Hhw4Lnxuzxw+kBi53HcJweqbJHzfvaP336S9I3M8L5+YX8d//9P3/cLrPk5Ib/ffcS1jGQUDphTyd9fpRSsAk6Sui5lteIVjXiy5o1L7LcVv7MvcD+iIMICLgDunyjES6OcrM1Yt0Ui0e0sXx+KE+nMqTyoP+vyx5mDcYcNMhGbdLw0lXQ/VmTWcAz+/fIF75KsYyVE1mNsxcLqPSUsQ52/hbhXjAr4o77pOkpHQt+ZDAeaIAMHvyfX3QENLP9u/fO1gg1meict+RY3btvDjg+B4Hcvf1f23ogcWMb33EsJvXTRioQv8r/izs2dhD/XiJ4Rd2S1td6rlfgfING0/fHqgvutm94j+M/HXpJL3VUNOxZZr0/7PWtDCe5ZsEQCwli/RIc0nvI+ayo3G8P+6+IsiZgzMP3Q6maHAyi0VEi6nGF1x5I17+rUUWmn0nv0JIcu2aeBRnO75YjuPpx6nWWHkzeOfiL5FinMh3NeC+90RdlpjpLJaiOVAlW/fzhZfJ51PBsgF7dAJkTBRCMrw/6yvr1oTBq1i3RpVgv9eTW4W04hBopXUFGoVF8LWhDgmIBf0FEMTWswOq/swd9R/YoNjAWYdxTL2o5gBlTxTI24rTWS9Z///I36/rNCDXFqVx+hB9C2+IR4qfL4396iL8N0RfZo9rFLeI1Kt7yaYUOdryFJSpHYc9gRwBxeiij7nAEjgTt338sHG7cgBiQVZJxVKsJ6b+cz+AVWSHjd3/6cS2Ty9EeNn14jQcjYefiqJ8/vE5aL+uPoo+ZYBg+R5j6+ogvp/rloSaWVGYBF+TWVjsnowRoMaq6I9xZIAOMEkBWMuwVwxJaL/abFVs9mQ1TqzxwoClNe7o9C2RkNILsFItlKEJypXsFCY06PLy93EbumXwzwJizy/+ULDnFHGIP1K5aE0oEGeuk0ZXi2M1cbrjXD3Ss/qYEyisyMksawRFGXpm9uxPridb5+479S0losyxuDVmyonpf/Nh47GVs8xkBCBHUjV6Kb/1k+NYNWz7XfMY32oqpXY0Ws5YZAURdbQPdkVwwzOS/gaFdB6iyIxeL4l0qAmbxR98gky2H4CzTgVx4xOnt37ECky5eehyB019oc6XRazDCQE3fZu5OAgpF5o+EYqaEc0KOXdiy0v+aDUP99PhXTt94uZvk71B0XMmnuildkKw5rUQUvNNGd2T+Khy+bjGQj1lEVTNpFTlLKw8PELp0Cwk6BV4yikWPOt+ltICWbM7wZkQBqSO1xmddcLyXEC9buvT+O3Q3QzBrR4y8459p1O/CeHtFxELlDnBkgVD0+ldgx/MNEhfWZ/KiUvpU0iDp64PewAF7jKQCBBTaGfBgCVpKQIHiox4iYPSMMLzeKo4aKu75tTLy2RDYIHVFuP5Ft5DJWop6A18lPA0gaIIV5y4S29wYbM9qnz7qpQj0zDEAfKrl6UWNJQCQGigSre0tFCkge0rfDrQGH3EOBtBG4diOdtCiW9lKwaGeu5Ewnr9+bcLA0XddsN3oir53yq7a57Pd8IcffneKXo9WrAqXLlFEr5lAfSt6OtWvJyHP4Yw086v09qZZ9jlgZmUZX4laPKr3GEbKc+japZ5RjQ/WxShGdZRFn4W6eivpVfPAfxOBuF8AtnqKhyK16EX9mT6IYaFibI9ilRDAPDmTG9UUjNJP6WgxiQhIIBMSDKXbB8ojWBBW09gnJ5dbZJdGCVSHxokjRa/E1Kj79xpxpj2+KYffF3RspqYfEQwG5tmJfqxEVnGTsyRRo9iy63x5sed5dCkxxuFpykxMMmODg7HE8CX87iyJSPArGd7rdgGlC2gIaEsx/92C719qEYtnVK8QPo5SuiZsQnUHz64YBVzHaruRX04prAXyfbV7t/F9TuCgI1evtNNp9X9it4i6w+jjfw+r3w9vhal7/l+q30yYGAfpYtCQY8clcxo7ETv6Y9q86xbHO9+PtJ1fjv6QcZ3V+S1tYXntB5smMxlwgJEJPOfPvDPx9u6HZJB/8HA6/cbBo7vxfMyYanX+k2XHjN2oi8/imp7AupL5sO4T4z4isKbqDEQNluWRogH5TfVcyrmUxpXN2lILhswg1CYcBJ+8nULF2suPA8VRbCH27FB3vLYywQ8fJmeo0XMTeS9ulXyzBcd2u1rrbYyRmEcQjQG4CXmoqPLH36//MaM5tscPP71tf1aZRZO9PtnlpQmXUGJecgBbtLLhrx4ff9hQYgwiAiguP348TXx+iTXiy/PTvani05fnK38ue5RSPCr8p7A09lrM4Qv2WFPEZTuvT8wiCjl+ZiweB2oj80yI6UzmN+Ot6M06q4oxRzGhxqCqE/mH8xyGLUQN1MApAsCleA+WSz+fG0sy0UTxXfuUkUFJm3dM5inL7SfaT+8FfRh781D5NTA5dXMUQWzC6kHX6Il6YX46gJCLOsIRHrNPtjTFdJlwzwjNgucR8Gud09LrusUEB+6bHOCdjEBf7aDRnesdX5pBRP8y7B/zFE2AMZzdUOah9hOFPUAeaeG5Q/fa/isq3E5x/367+JGTBt+1C7/Ypqb0MJn3JrHUfx7sPwGgZa1+9M08CIZlW8bqut2NgXU8iv3ttkrQHhfOCd1Z5dJrCa52LCud6x1B2gOKAd5rfxyWndbdvn4rCxUy7Z1REMdZMhQ7wbJ5ApWOq/LVdCV0rPCa51nnpwZoqW/B2O82Ls/Csf7vBhe7Hj9Ppw8mKE9ORUjYBCgPUrUh2xUifAorz6H1SUMTCx1ngNBPzu+nDq9U+n4yZ8JKi/QsHe/Kwp38X6/wHtHBiMMjgOVQZ/pvuzzUl1kObuXZyiZcyEzgU6JRxjZ6aIrWakvnPJpznVGiwyR3mDM8+bUYpsMKC1rGdUHf03RIw4xsP1BGDcNkzEBxBMQkQf3z707oE1qsczmd/3KOt+oR/ySTTy1ev14cciCRjmAkaHhuaJEFE9g6uo4a8fjhw7R0qzZ6UFn5O29tXlPgC9AUxq0+C1wul7n+NmSj9ZdJHLSsATo2d2/dk//J4YTr8xmbeok6Ry2RrBooxkPLs+sIRhnCVuNg2/vciI4LeDgRiwjkDirTw/fw5Kw46v+7tdbr3f1grrv9zKM0a5AygUn1opXI6dREM0qMsIdoRGPGsuo73yxGIx4bZNToTkgbhypLQOie76TCro2WHMGwv7APDlAPKxgNqxbsmdWpFOYbDhb53/3/7gLlOwr6q0X2bYKbeisC0lTLXUgU/bRsTxs2Iqis+TJSHcwsSMx0yNoWr3PHy1cteDgmvpgDzJcCHOf9jcbFsqx/uf1ce04S1wSxk8kgQpEuhBDFbsOMr5j/9Pw4IJ4re7su79e32X3ZSr90OmUHP4/C5IGZzzT8TTVebrQVlhye3PjVTTdmzmes9Fdk7XmThFkj+av8PPCteP4uzn817NpWb+raN3cmy3Ypq/l2BQrqOFrm6vN8bjQjnJBeZNFfI5pMD+/ynmaalRN8Z4rvtZmrnCHNMT11f6gAdJCU2J1x72Yta/KO5FBtKIn8UpD7gX+PA0ml45kGWGL35K5AWAwXsCz5wjztPZOt2VOjIOkbzJ8ycpXPvE5+dpPeyuI+dcHXOIS9DDJSQzGKGiCg/v3nNwBwzYRUHk4K8/XpYp8jsdyuu0sAVZI7AJzRkWUhfvf44RRojMnDYinw4VTkclgG0ARdNLGdtT2fLxmP7oURFoyX1/OaC50S8fHDY3GHTNmNf2nE5/NLEKEOQ8sJwWxRaF4mEWtjRSZCiFF+V+ETsCU/l8wj8spBiwAXsKC/hymRH/bit/weizcuI4IqkVhFHp8cMcixhmf9srwU5BrpSWekDG3VQVchDfba8rwEVvzjJv99vwJ5dh8uPfN0yVCHo5xmvPxhopTDpR/ov2OpRg3g8KIa+Rq9WL+v23i2Va72ztiDX3PJjmT64CpIv1EpvxCBHcz1Xq6YT15wjmP/Wfe5xznACKjzpW0DU1gQp1tC3DJHd0sgF3OTtMuXJbWbxY36r/dxlf36ktV9zxrJ/UTU9RRHsJ444lXJ2fpc/2p7MXWw9jqfvfTgtnNbwNJ5f5ZlLVNyrw1bOuyjdIBFkcnS2A8kh7rT3StoNGfTVUduvgRS5YVFsTBqlZrbz3VO8y0ot2yfTNq924ncX/G/VzJ33vbSlWvi9SERiJYHmHLB7vmq6CmDlrxlp7HTkUDskMR4RYma1IYNWTjfy2rGm092h2w3Y4lE8nBxjKw5sZxGbbvM64g45N/X+kce6XunySjo77PKC8URxmPbPrA+tm2UlvTugZoR1ghjlJhsE7ZQ5khiqRchQKsgMACVaXpaj4B3cRhvr9rZvoJciv5CldKW41A3by6sr09nAKlKzQZG4IIIkr3eiUybkqr7j3o4xVJvyQDwIfgv/vRPPrQWGBVuAKCXUv7D//w/55GK7/JCBPG6Xbyvv89L9u8/PgpYS/pgBaF52HwRS4Ln83n6V1r20YNKI07rjkCYbJcWyyHV2m8tb0G7j7/mkQ6EHHW1KRGgH9v2YYuPW0wF3iNWE8BGJocDCoapxgiWpoAVjEYA1JIaTi5NXiW+Nr2DifPsqY+8NSe7uAO7sziFaOH/PwAwQv4/aWMhrwAAACV0RVh0ZGF0ZTpjcmVhdGUAMjAyNS0wNC0yMVQxMDoyMDowMyswMDowMCCi36wAAAAldEVYdGRhdGU6bW9kaWZ5ADIwMjUtMDQtMjFUMTA6MjA6MDMrMDA6MDBR/2cQAAAAHnRFWHRpY2M6Y29weXJpZ2h0AEdvb2dsZSBJbmMuIDIwMTasCzM4AAAAFHRFWHRpY2M6ZGVzY3JpcHRpb24Ac1JHQrqQcwcAAAAVdEVYdGljYzptYW51ZmFjdHVyZXIAc1JHQiryKm8AAAAOdEVYdGljYzptb2RlbABzUkdCW2BJQwAAAABJRU5ErkJggg==;strokeWidth=5;imageBorder=#99479B;" vertex="1" parent="1">
          <mxGeometry x="540" y="492" width="85" height="85" as="geometry" />
        </mxCell>
        <mxCell id="fkhzhb3UsODcdzvoW7---5" value="" style="shape=image;verticalLabelPosition=bottom;labelBackgroundColor=default;verticalAlign=top;aspect=fixed;imageAspect=0;image=data:image/png,iVBORw0KGgoAAAANSUhEUgAAAFUAAABVCAIAAAC3lz8NAAABAGlDQ1BpY2MAABiVY2BgPMEABCwGDAy5eSVFQe5OChGRUQrsDxgYgRAMEpOLCxhwA6Cqb9cgai/r4lGHC3CmpBYnA+kPQKxSBLQcaKQIkC2SDmFrgNhJELYNiF1eUlACZAeA2EUhQc5AdgqQrZGOxE5CYicXFIHU9wDZNrk5pckIdzPwpOaFBgNpDiCWYShmCGJwZ3AC+R+iJH8RA4PFVwYG5gkIsaSZDAzbWxkYJG4hxFQWMDDwtzAwbDuPEEOESUFiUSJYiAWImdLSGBg+LWdg4I1kYBC+wMDAFQ0LCBxuUwC7zZ0hHwjTGXIYUoEingx5DMkMekCWEYMBgyGDGQCm1j8/yRb+6wAAACBjSFJNAAB6JgAAgIQAAPoAAACA6AAAdTAAAOpgAAA6mAAAF3CculE8AAAABmJLR0QA/wD/AP+gvaeTAAAACW9GRnMAAABVAAAAVQBBpYabAAAAB3RJTUUH6QQVChQD1ejivgAAAAl2cEFnAAAA/wAAAP8AYjLrtwAAFX5JREFUeNq1XMuOJUlSPcc8bmZWds9oQGgYhDRiMf/B1yCx5bNYsOFrBjYDK4QG+lGqmurMDLfDwsxfEZFZ1d1DKHXrVty4/jA3Nzt2zPzy1//0jwDA+tXjA1ANABwAAMpE7Nox3TShCOZ4vLsVoQgUAMWnQvnf7z6J1r9CGWXFC3cU34oTy2XffvOBMsoN2Y6Dolm5d5jAGAoFg0PmLocBEEGNV0OZ7tjoYX+hli5FAHj37h7Ato4mhgyTARAIyPLLBoBwywnnHYcbAbRZKUYbfdjccR9TvBH9suveiANikzpoVI0RtDadsHw1B0g4YPnal3BM+HDFzcP82VeyP1XcMDUXLVofJ1HHDIFceZuVyFr/FE9SGO2MMdAqLWYi5gpX5Hcrx9pWnl5DNG0SRixtn67N3QGA/uHjR9Cpef4swl/96lfF22S6WICPH94f2jIBsForwGn+klicqO4ivSuCAxANZvHVPi2HEVbubqQ52D5xS0GV6dneL8zmTTfW8+7xZsLFRT+v/0EXDPDiKL25VGw425s+CKASdDtq0DSaEND0ja5koEZTofZOC0Pg+ai5HIBg3YbExGLlMd3UvFBvXsf5q5mbefTUWHkKsVaUVY6eQuXKKiZOgksLojQuIbqaRiQVta0/RDihfJ8zR7eQbRP5ZET6np/tii1G5OKy5b3scrOwyTX+Dk/oje3Vlui6u1d3pinkwnwsrACU93uPmhegzfzt8RyuLXTvMF91OywTodOcV8PejOKFstn5MQyzbP2h/pGuLZat69r1a6iSLQPz1qzh7eVpX7TLT1MPQxXPg9Iyeb7Syqu3s5HhJi03yPjo0Ahl0FutHbukv/3Y9tmGQgSGk5pMog1BFAEgGwQ4iCkWdX5P5X4zocEcGFFTCgxEQFlfz5gNxdlp2tRjym5V6isdH/NfJXSSrsBKgwAOaypCTN9tb34dgBNkU5be6nSFGvchhhEN1wfzAT3hhAubE9PNEEN6iVBSgyZD7ml06X14bIq2lZK36r7jtMgO/M8fv8slPchFwrTnOy4ymUlthhKwU4Tut+1WCybvFdK7lTtoy6bo0anTIIl16C/dBCfKndWrHWDLzeyjuOlpLw5zAz2wU8z8UWXzo/6fGpZ5MzJdMhxTmx4MHdPSFAWR4YHCdxyMSKyMg6nDbmI6LZNXoETLcHS7wH1uYx7E2UIx0JIYLZDhpq047hzn+R/99k+5rv3P5FlDnrGe+CJnpVX73oodDv3HFmJCuJwWHYSz4G3L/JMuJo6YDcHl+8+Z8QwNJoPhjA1yNfn1W28M7nB93v7/2KtrO2Si+89u0DmsTMZ5l/rJ4REOH19uPYODf/71nwfkxzfxvv9dDPUkSr7+WXu10ytFAhRNMHj4ndLAa/EG6rWsvx8aZ2y7H4UnIcATcjO4g/i6EzJ5+ifFHdg0gLPrGVJA/5YBZgpPlq+UGZwwa+/7pxTMUaRovDhJBG1jQvE/t/47UcaSRmRtSDO3o4fuCYDDabupzJPva96jzAwQU3bmaOZDlkIRzCI+Xl6Lo8iLUDy/HutfPIms7Xa7hXy1PZylT9nLp+cj+J/+4fm+1GbuTggOGqBf//Vf3lWrEXGkfrhw9/37/xa50B+EiFIMltAb5BCQi/FEvCL/au2mMeyDh4TvtN1afLlHy8RGPMA2++z6fw4/ny/RKUeHaCM4F+Dg3kgmB0MFvqiLCcMaNdafaEjcQ7tsPAMzH6oeI4h2hv6fNvfPN9ihtA7ErqPTla5rCuMoyA/ynU2NTnGXMeOftPQygKkkMCnMeURhtPhUinkWQURR+iYKJueX+T//eTBBgw6jJ7qnuq4eO+Pn2+pKNeyrSGi5A1LBOI7gjS3EDI/wqv1vS+RfGGwepIWIds5satsHGbdNROVnRBhcW4u1xLTnLdqJu6e2uP4jGKMR7zvl/8f/y3pU2m5Zu9/H9GrXbzhcpwf4/VFO+Q04f43/f54VOHA1nCbPq4cv5wm2zX+eauL/lXpkN/orPT93cZ7V9puPT42K1NRTPrmbfeu+T4O0kXLR3GJnXQUBqAhrFIwtHPZShnwbVLWeL+kLFTxymCgRlrxwNGVBAM5EGzsB4UtuIqfnmaGK4LoEXgKKPHbB9g+//V3YpR+09687PcT3/X351z/8+/f3t3k1ITPg6enpMPR8UwYnF37IYMXxh2/+a3ObQDoAlHpnWylu/QvDrzeWI8LhyEUV+bb7zRczGfD+rmzUUZ1MeCcUIMkaAQxECKpCvv3Nx0+U7cZPvtfBIbgzXMptk/d4w9ICuzfuubOOQ3fOQbggYi9wenHDFM4KrwbACdST+YUnR2Q3r1ubvxp9VoStOfaxTYBAftY0teXvvEQ2Edg2dzWyIqakaRaDilzGtjA/59meLieGK4jUoreN4EQ5k76hJnM0l+B3Jc7wpdeB1wj3WwAzeAuqHZATtaPOlY39adfK5477U1p18HZdiTg9xrbI1q3GKxI/DPVSOr76jg0yNzgBQXSniXCwjM5kmHfAskZpEPq4l/wvuhUwrbaXs5I15IoVLvSYYHKklPNzemcTNDhnvg93LFiwig2wtENMnNx9z5fTYQfSpr/3+XXJ1biaP2tebQhqcKpN9rNeXK75a/dfu7YXuz0bRDcX6KXZFZ+SyjYg8NmDjpVMoqYldzTt8M7wV5vXR1CEiTK4U0i/473NsarMrXSp7W+skPMtM7H98fH+xfzmfnPc3Ck3raqKBtq/4PLOKHEBp80ZDpmG5Iwu0uAn2H/MWxENUNPpi4rNoHJp4kooLXWS77d//o/fE/7VS/37v/vd1y66WJVKKPNb/erh3ad3ZQ4EIm8XhQM+WYQCAqg16mUkAmIlGGUZlAlEtfYtEaDu77atLvINiLHv+1EkMsJLKWUFhYFwCkhmVIMpjyiXGloLTZFUAcghbH98967gudJebMtUSQQ+/OkYeJQGNBVw5Z6yXqLRVMDN4ftiWWOzNEMwqgbo5kfEcdD8GY9pMaDj6nS4A9vOmwPOZ6qYW2nlLM7465twRB3nzdZ6Eia6btr/boDMIdTYBKOOIlTumN6NHufE3lCNvsMO+/9zYGAO48PBBzu4OUul2eSok3h43dO+3c2VaIbj1eQmJoZjSR6Jx8n34Z1B7qv+f+YU15n3a0N3SN3y21HxA3U5EVHWFU9r87uWpe277rw0c5yGZm/6xBajOQJp2RtrfMDflx2fmRwzNE4ecno117REvHK5h+scn9oUF7Cx7q+XBhyw9ZLznyePL7hej0Kur820UzLJ4KCq+ZDdVEW1wu6ZuurRZ/4nq5R4Mdye/z5J0qb0qbWPJ9EILZT8MaD/S+Z/c1Sgkt/d314Meymilwzt7P29PZsJTP8s00EYDOicJVqtjBMuLy09w8iEBfXYOLVu/6rtQzoyoJpIReYZZLBUXcpeYE7PJjujBVfcjwrI9qkAciAOAJFT9ig6MN/elVtl8Ye7f/m336PZXMs19Ofid7983PeWBFfHX/7u/mHogkYRTa0vvTN1+kX26ZO3SgW2VSQFbqJqKpCMMvpWxLLfFS/mm2nUjprcX3YDIXMOqpfg/lyZNYKesayEI3RzAq4IhFXkG4UCezJ7f/fwVLKqo0iAV3Ng/2VhUa/DtRYftMXPgLTR64kX++e5DmgRFkDk6uV6VsKb0zVVygodvsFIGek+lTZ4e/EWMjCqJgTRoV4R52prU20tk2p4PPz0djaKC6UTiKo/o5FoH/U2qdJJch9oWJ/QWASUif9H1dSYXpT99Ay60tkF6vHTYn7eH7c6lzUBK7TywhnVHltM83M0+5wWfLEEA2AuxU950yDOH71izd/ghbvVeLua7EQ896IjOuhszE9MfrvEucNt61o12nDGqCcJjGKmhCqt6qYjQjXuPTh5dkIffWCdGlimm5WiE067VIEl258L3r/l86JOjc+pqARogWqaH4qQNlXZBgUtU0tqhNubWYBzPueKutdpGoG4IhYOjOxKYsJnfC0ulI6/XjIw9xtYzoHN6ZoZmFmKbfKRNVsdLxWl+F1qiop1U09rt5VHh7rHESx0JeUWeXs6CIVnZe9gKgE8DdbzCEQucjfRgeK79cszDAoiV4Sf8h8ZpHsHgErz07SAMDmI8EqDF2MWM1erwOJy0QClc8JW46yGD+vMKFoI3aqxMIbazY0TMNdhVwJlUDVNeVKmo168kzrMLS8C293DnUDa5h/eSwp0L4WbhMSPP/xg6uFVEsVgLYWgmzSlCSNCmMdWvTl7sUxwmoFM6Hh8fCgHPsM38wIvxY0a1f6iU7bjKailbk0SYpdWnj3H/zJ7saij7XVEFIpcLzuETXSou5V57A3wiJUeZ4G6XbTWQaUDhZOlJBXmrK8w2oDGzmzhN+mRh0bYgCwqTYiklJ33TRSaxem/ufjz2DnsnyH0t5cfAAFIYbEvti7aSVnDRbujJZGBxQ8yINSQmGlsdaCGtThYAWcd6alVEEn3q6EMOpplmVJS8c6dyzJZg7SBUrjuf099bJaBedcRZ1Fg/lo52cK7mpivWYffIWzzEb0mZ6F6ZyIYr15TcXWiN2eQ8Qn1vFt+auYO0BKkB9JF0/tZWikUjuXs638e0hLevY20bCp1mSoQlqXjRQBrDdvXeEAnq9kk6B2EHsj1L+fmOyl3nOcrufTl6MLa0qQxjahp1wVpaKe0LE7tTVOfIeBwn36wIPPX9dZ7Si1rkkejhq2e8v/zQaZRompqAca6Lga3qDrSFPBkHj6/exIzjvSNDpLtfKVlCNC/rRY6tomdzxddMh/J7sCgZhOYsNQlE7a9OOTOQniRQT5D6BoJ+QY6e9MOIxn00cGq9RN0nQKJfOt6WinH0G1ZLMtcgenhUxqgTOTfDkU0QYlCNUAoUBlS6Af2tHn0boq6SHocN6Xc4Ns3zx+pQt8e392bb1SZD6Tsxb97/rSX4c/aQrNFvGx/MTDdCuPhXttTBMq/vj0Q3gFfYhuBrhAZ45iRKMjpTy+1ZqQ8VpSy7e6msfouuAir+IvHr+9qLxoQ6ALuHI9/4haQf3gko3x/2gnfXgzFUdgP9sq6H0ouq8HzwWd2oGlT+BwHLLyVPYenILsCRzZew9BnEVZuy87yozFFQcYO/QqkOLh2ZmjgRG0EbXr+yGgzSmztJjgrBCXRUAkIL1H/tWzKUb3dYol5ayGB11s29xCxzWyqXqmlm7ZxZg3zsMyof0kZdMVXnosJ19gWoG/R4AuRjEhdDedM879qlZ2On3p5o9m7iz7Y7YzYOJe/jT1tb1O9dE2Hgk7XlCtWnP0YGOGcEdrOrLbOk5ed09IX19W4r1z0pAR0aEsa61hM3Di//EpPQ03UwEWP3R93wso6uj2PfIn/+jm3TuV8lm/5kmtklrIivmUEBwpuh936vpsE0aU1V4FfXX4uuZwO40WhebN/8AX/Y8oKqpeytZ6m9MMxCzj/1EGbLdFCjv71Xm865/M7NTh2eOCcvn3aTvEmtQNUS1lk4UQLcBpZH3XR7cQxAaPYzIgl/zE3J7qrsQXsOa8LgrTpxcUmDNZ0RGA9/6NxAiNGGjXJbvG8AV47T0xUG7LI2YYTWbtrkxawG9zpk5bzJryr9WFfSgNj0Ft9Fri9vLxQ5q7CG8EstCcY4SdBRuDetDFjfClIgcwUjB1zu21xYrgtDoq0OR9ud0W1JJAPo81KvP/hh9lGhGQryktlR60dkFIst9sclQTnZKq/+sXjfa1OT1YCAPj1c/3tvf3ieT/M3w3fvX+qZhtxaUUi2MJ587eFJaVXAoehAnGVVrQZdejNQ7nTIsivNE48Wpz5d2vFo1Mo1n8O4nQE3sFK7MYK7Fk6J9vw8lj3X+wvUSAe/rUS1fHkn6oO9g8dovu8tabFCUbce3XVfA57xabNatD7YSNO4UewMZZVBhO7kCbAejXBMrxhm8eOaFJwsIIvwM4ckkxR8Bi/neFxdqZj9gFV5spfHw6zlUaers9WV611sSPgtuNHoQtw2kwZnJnSLoLpUy5joYN7og0l/us6BeRB8xZxZ4rlUP9v89Hi/mXL1OJCrV2KpXUWIVd7cq1DOEWBnVm+drRL1STU6m5t9XQTT0G0LJN1j9BzE4dwdoSZ7YjKmOGPO/h2mBSOYOvNRMCYedAnF2XVE4iYCghPokSf/Ib0xLYMZh3G6v/OBRPt/3NR5WF54sF5Vhn/Nf83s/GvpZvmqqbDWc1zVTsob5nq8+RbEQGpDUI1r4bikQjNEfY9vkX9b57Ab5UokeYhZCg4nmFNsBGwdE5OzPWJWWmdZLMQPy3lkekaKayeJujOMqYiOkDT4CZ9yM07rWahCMH/0Zo5Z4WBBlo1iB4pCfZCHkAGcRexyZ9CeA9fbVPkmz1Vlk9Pq8owzhjp7j4O7S/HmAgUlhg6KMoLAkrww9NzkGVslJFBlayyCtfIaid1HOcIGvIda8BiDUZ70saEYC9B5tN6qkrQjf7+6Vs+fypu4ekdEFkJ3QBiQ0uhG/YBeEdi00B3lGnvYUoh+hy9t++kglBeImEDVKD5+bTAFtQFLMkKJmvQsyklGfHRbO+j5xSiZLbjZSeg0g8IOUxRU8tdZlDcgRq5oKvzj2v2+MsuZZlgeGwtYE6oraYcHa5m+Z2JcBvxecJqWg8uWt1JaF472AuAo0rtMNge8/Qf3eigM+Kuuarrs+f/3oi00SiH0wNZkNFKQKcsUAA+So78ha8aCnwMKOjrL1rksd9uKa7T3umnrdlby8lflAZGBmObGpsfOU/pGvG0CidvWiCbRJa7pSUlO14USTUW5FhQOLpymE3+pYsnI5SWlmrOoq/DII7jIPwJrQ1rdbX+Ay1cCeLNsmBO0R6WUiGU/PWuuDllE5NUGy3bgrJad1d81EK0dSWiVw680PLX02PJTTqAbc5kpOy1djxV5M2jmU7yoxXmuQG3isY3wwk3ON2ETdWE3TJ/3IebNnLaR46hU3NhwpSQ8fbbBD0KQo2TO101CBN2s/ib59+sIKDr/b9YXdMxmf/GoXAHdhslUD1vQ/md1819l8s7NLJK+5OrMn60AJ1ZF+CFWkcyZUEWNBRxSjXsSsq4/zDVbtiNe4P5Yxkbp7Lt+x6ooJSCdDllmmQp/fQc0BKtBPD8/IyxtdrS0XFf1GI+EwiX7w+1/u43f/uuVs+EtxcHZU9l+8+PH57KZrnagRGtkt9/+KEaRxUqB9HLUQudybtq+NPz0+61MssEEMn//eV5uz3XGTt1kLVj7P+5pHVZXv0oX5i8DceReyBU0e9rfXzZ3aphb8fyrcjvvLp1btNCjbv+T3U3/b8jmOmrmlE9bTePE4YhoN3shWVnP3SelVhFLmwG/z8Gn2OR3fAEKAAAACV0RVh0ZGF0ZTpjcmVhdGUAMjAyNS0wNC0yMVQxMDoyMDowMyswMDowMCCi36wAAAAldEVYdGRhdGU6bW9kaWZ5ADIwMjUtMDQtMjFUMTA6MjA6MDMrMDA6MDBR/2cQAAAAHnRFWHRpY2M6Y29weXJpZ2h0AEdvb2dsZSBJbmMuIDIwMTasCzM4AAAAFHRFWHRpY2M6ZGVzY3JpcHRpb24Ac1JHQrqQcwcAAAAVdEVYdGljYzptYW51ZmFjdHVyZXIAc1JHQiryKm8AAAAOdEVYdGljYzptb2RlbABzUkdCW2BJQwAAAABJRU5ErkJggg==;strokeWidth=5;imageBorder=#99479B;" vertex="1" parent="1">
          <mxGeometry x="633" y="492" width="85" height="85" as="geometry" />
        </mxCell>
        <mxCell id="fkhzhb3UsODcdzvoW7---6" value="" style="shape=image;verticalLabelPosition=bottom;labelBackgroundColor=default;verticalAlign=top;aspect=fixed;imageAspect=0;image=data:image/png,iVBORw0KGgoAAAANSUhEUgAAAFUAAABVCAIAAAC3lz8NAAABAGlDQ1BpY2MAABiVY2BgPMEABCwGDAy5eSVFQe5OChGRUQrsDxgYgRAMEpOLCxhwA6Cqb9cgai/r4lGHC3CmpBYnA+kPQKxSBLQcaKQIkC2SDmFrgNhJELYNiF1eUlACZAeA2EUhQc5AdgqQrZGOxE5CYicXFIHU9wDZNrk5pckIdzPwpOaFBgNpDiCWYShmCGJwZ3AC+R+iJH8RA4PFVwYG5gkIsaSZDAzbWxkYJG4hxFQWMDDwtzAwbDuPEEOESUFiUSJYiAWImdLSGBg+LWdg4I1kYBC+wMDAFQ0LCBxuUwC7zZ0hHwjTGXIYUoEingx5DMkMekCWEYMBgyGDGQCm1j8/yRb+6wAAACBjSFJNAAB6JgAAgIQAAPoAAACA6AAAdTAAAOpgAAA6mAAAF3CculE8AAAABmJLR0QA/wD/AP+gvaeTAAAACW9GRnMAAACqAAAAVQClYS1XAAAAB3RJTUUH6QQVChQD1ejivgAAAAl2cEFnAAAA/wAAAP8AYjLrtwAAFLBJREFUeNq1XMuSLDduPQdkdd07Gmmk0XgiNH5sHF54Z2/8I/4Yf68jvBmHF2PLetyuJI4XIEhmVlZ335bMuCF1Z1dmEgQIHByAxX/413/DMiin3yg39StO3Aqq4/rjVh23Amf/kwkfNnz9bNc2HmCUX9yr/MvL5cm36rLxR5HAE1gcAAGIAOR0cHM0sAEOeL7C8HiUwpOLbl/ahyIT+jwNbo7C//3nf/rDBd+bYFLI5WQ93C+i0chYCwBwQyO4XFdfKTgAeJFXn08weZUXV5HHE6jxZ6NgU/KT4ZxiCzamkfpxvDgMbnAKYH8K5QYUeZGTMoH5ScjqySMEW95qDhLVcW2oDved/q8brs2vTSL7ywRCRVuRGWRwxkLBAH9ZpQAge1XIl+8nbkYA860FTn4y3IqeC0BBdAcKrF4ul/FRAFW+ff/TojqIMOLa8I1frhsaIfbVMeDS9PtyvXADLGQzOeGUPdGMm0mhcAcBmHi73UxdybmUDjaWRYiDUoc4sZnoAKwrb10sGdt3f/yyaIPMY6rw4qjQpf5c+Kl4PM6dONc/hZr7mQCU+t9w3dCsaz7GxXHFVj3Wy9MunFCxjXJLNYS97aeLOwF+6SCcuBmeRbO+i73AjDfDVvCpgIRStaz3L2/ElqoI/QNwR2MXXtxN2RzVRTVgeC0BXpwIS6GwuADT8Y0iQDxwCI+t4OHnvEiNLaZOKNRQRIMTZnKE6d3rXyFeis2cX9jSg+FFsbFFn7eF7Rwnp19V3Wej782ci4npCI0wEyjr0unO/xOgYIDr/LnrD2L/5+yihslhhIm+ZGR3DS/pzc/X14YW8le8smVUoMXRKm6tgEGX/DX+e7b/i0ClJICvsUBzlkohRXM27uZFELmH5p6n8DnDXg8Wp+LzxO5SrcdPHuU3QUJxc+aCE06YUnua7wjNt4AG4d5hI9o5GZLblGRqz1/Z7veSr1bw4mDiKCJQEN0MDYTg0zAIAPXado+8uNWG6j7kDyGvGy7u1wYHRB/XqyMCP4Z5ywAwvD2ryQlAZpovWoUXgTmt2Hk74ZWzFfY+siOFNaaQkmkrehZRFJozEwq3IhlbSTdWhEavXz3TmUgLeGp+KR8rt76rc34fhO/K07XElY4fFbjq09b9yRqcVaposrR5Dfc5IRgAuEiARJG7qPCjXWw2yMzS7uZdBXARASjXVTHhj1998bGZMx4OCqZqwJN+LhIj2ECiV6FeGgC49S3y5F6bXwRn94DxoKeGJ+jauvI9TABgAEQZBqSVAU6haEWvvmh7jjtDMMAhajpbBwoWd5OWu9jIAhkJFHlVc8QMnTKTyFbkBIr6zo051ZyHh0nEWjQfGYj3j+6diskcIDNN2oNWqgd5KpHSElN363G3KHrFL3zeWD337npKc/R/DoD+YrTPJwII8/a+BQMshczU0dvHzv51xfuMVeD9RTN6ze26dzncRaxhAsJwb/PRWjDZHhnClFcGoFLCx/Mkx09+6TBmmd6r0h6f+TCOmqW60EOkTM5UYASuUKm9OXqv5nOn8PuneP7Xfy3rIGJjOuhD9B0ASIddixA7mUJJOS/SuEcEwSIQZMb8sb1XCbpnXawmUfGcQgcn6VxXK8iP6RQa+J0VrHft7shp2elq79e4RnofEgRPUH3yGTFbJ6jT/MTUA5iwOPPAQIF//cRuT1LAMas74d8DAVd/zT2dkc/08FX1yUxEy1V8Er64fKhqqWFrBierQz80d2y0mf9L7IGdoJITQKDkp1pMI6+TCAJOtGfNJKhbiiBIkZPPmQb0KEuSosUKOi5YFQ+YjCQ7JnOAIAkSlBSvMXV6Q0AtggQYnCiO6l6kpzbtqAibofhB/5OiUsSAVf8519XzJJo6Kv8UFP6C4RbkJf3UwdrcHA6gUh46KrH/geoI/idU2WhCx//mQDHvOH+MtiDFzgtG1lC08+EnYudyjLm+3QVq8TWHpexBLXCYDutgyw9uB/ceVMHYMwxGZYkR98/yZTZ4A5i5N4FfnREY6GNwmXsR5sap2CUQacb0wbGYIsMBpola53hEcKTZO3WsizVdwkTBe5Hpe/XtXnev51eFx+njlpGJ/J0LAV302NBTpVPAXU7OJaiuiMjGwi0hN03s/5v+mUvw6pJRqEuxoYvqQDMVd5dZgpkd4SejaALdwMaR1i85wjS58eT7QP04C3jZF95lTa+K6ndw0wKGVADBB0bCnPGlOzknBAIGmaMFD+KZWvfMFXOneNQVAuwT3hPLnkk60/uOzYWOphwZQNN1HZSZd/Ixghw3uEGu9XYP2g8oIct4UjW/re8zh/mVzbSyCm4m3IDNOp22gQA2kwWyV18jQ6QD7ticANG41MYEh12fvhgIItadchGSpiYXdZVSwpHnPN0ZaEJiZK5MRgLFVYlCm8WEzuGDrSKRTleKagU1vKUIivRKUZzrTAFCM44wMcm/nuTEorL/N3hRGEL47t7MczqruVIACiVoZv09oZaBIblFHSFXgY4DIPVV3qw1jKV0yIGKowNK/vNzEo/XOdyBf8AAYbsMjDp9iOOYYlk3K3R8/uYQ4FltWgY7It85Ar0TXb9r9BfrwQre1UVSJ3ZEH7b7Qba/eLoc93PoY8d/xEZ++CTZ6t4Xk7E3RrUkyLpUx7/2aq+f3DLepBdCw6vT2EWbWI5zYQ9oL8KY7XfcXUZ4P69Hpb5e4Xf6/iIiamiBPY/mZiKF8Lh35bAFpMiO9jJnS4T+V2+8E+glumrlZH3hl7wn8KOwO69nytRf5oC8J8oOSLM00zNou1P+K0M2/w05o/483fMO3VZf3dWca3ntVe8YAxfsMtwZCJdt2ZbFK4ExXhF+NX7rQWC8VwZWyDLOTYuoPtLEIH+d7u7qjERHV24UzIzJ7XZkDgO81rlkPa3mBtaYkOiAU0P5vnlbt8YwYOkoYmjkgsu8cm+Sk3rujrCUS9FltynoQJMcUflclnzn//wMeB5p3LcGodMdFQhgU2dkBbClz+vyL5G/l08Wcx1L1nC4MMEaRKjOX8Ow6FAFNwBrdbTr7tE40kYrPsGJyzsF+ehW0IVRNDwt7TB9A874rPhvwmdY9qMcZjcXWmtd2OYUZo3sECZT/kfO79cYfver3f11Ekdcw2NQ7fwFBQPtvf1oPentOP0zx/j/htE1NsDsQ+kZAdZHnBjrfLeJgiJY8P+r3SB37+o9Rfo8RPe4MLCH6L2ks78zr7x5rnwFxt4Lf19HenT7iynzKszOKiveN/R5gh/KtzxqKcPJHT+Fu88NVlvrvUd3q72cPvF//Jq3VgdtZI9JOQNwzkko9dbrWVntNQTYURSUNTFP/NvNyZMmvs/hbUlMznpkfACq4eUMurTniIepCwG46Cbi2cou/gNg0OUO9qK4CLrVm1pfsERlzoLscMgnGIB6eSp9I2jUjwFWI1E0y14kDCyFwRyW6HA19jW1Jc53yYEifP3Vl+YTa8doxF9uPzZL4hARw+3Sbv/y93979Ru0QDU60X7zzW+KfntnnBr4YsovVN+3aYkjSs9JRrpt8MHhURCywe7oCof+78dJKTLqbkUwR1EvNNjqKumiZ/3LA8wSetLtY/tEFcjYEwd3SrDnGVV3C4BhQ9mnVaMfA9kCwJFO5oblSPtO0gwsYSx/pfTQM1j0F63CcyELZ6K1sCz5rtNsyjvdgneOSZLYyx9ItjdUgqW3Q0mQ6qSYuRN1aJVnDQJHdS1RGm/Cne9hlutKlRhOVuFBO9nuxYtvg9NNI6tzQtq1huDAXB0ECz+yVs1498nT+vA7hEcAQ8cg58ynMuPf3HvxM0aBJBjebBYR5eww1UfLTMqcHZhnE7+jvdWb83uv9SA/D2O5OFgdnVHdL40qEDQHRXPFu+U2W2DCizdDo3PRRjp8F+W7eOHUI/8HEzLe7JQ52gqawdSjkacmzrTtoIPRLMd3Q/ja43z3h95i4a3FdQXBjwZBtAZAHjR2WITTQY2OwI6uKY/Yt2x4W35dZxtlNM++GBNaRnsHRv/4i2MlNj9vI1SW66juRPC7tY1w9fqxWbbkyQiDHIoibxgI6Wy+mhy9CKC3tgU6ooZ1zLCGBWs1gMT//PiDjSpIzqcRMmlkBxAkQZK++eZ3H9snqCZd5L2RgTwFp/f8wtS/ySInbfbsjmZNYG8hDJrN0WyDQFhLHkIw5wYmpSMizGHu2KUkHR9J4i27oMZiQOwLsarVX++LR/YOjULeZ5BXVaOFMTudnN5sNqE6QffGfmZkrXP3mJf7f5/MH5Olc+irOAXiBjRO5LOr/L4sAZPVeddIx0ygK3zn+aMKFBWi9Orp+fvCw7NkPFpDnd05pXKADuyPxR/s3dvw/P3EQXqHM7CwMPn0+esSid+kfzzkeW0Wc3xBWHsUmCEgQYTPdGz3yMQwu6DI3jX5ON0bRtNv+Uxa4PVha6ncHgh5fufDv/gLwWhtyBj9hQ8f9HBR1jLObJ15BwqqYOL/sTOTKlqa/CZ5ZrKZcBMm32YlA5YF4jlbHU9wYLrbfSH0UM/8/PrSO0Yt2ggXrMhFK9oS59s9nhfQbKIxEU5Rbtlm1DcqES39JIjhSxlHjgTJ7gASpd3WdQoFIPyDPxdtPXxmKfnqzwUbsWW/vANeohnXKzOyCjZIJ2pbXxgS1T98eemdCXTIii7+/U9mT+udZl6EDa0XxTOSiyC2S5kuZOTzpkLYbDzsNWw40PTsg9sem46yIowg3/MlXn37x7/+3dU/xQKOHVr04dNf/ryp7VlTiPz9t39SkqmO6NKQ0TffwC0qFOlfWU03EUVNANAy9TAC0kK3IDw8GmC9RTUaNRyQZdGSad79HYrDL0OtJnpDcAZuMCr7P+gk0/B8bDqiffRPH9oPuRMmR1o1w+2omgrVwvRkIgyt43Fuhptpy7pbRGLWg+dn9IlEertLJGYdflxR733X8KP7oWiBQT8CtKyD1qYpedbnIjlwGthPIs1W0cRPOLaP3bPsvlRQM1OAgA1oEbhLZDpr/9cgIaZNJhdyrL3/gjZtjxYTYIEsTNPFSpNH/hfx9bOev2KnnLNlPZCj0SB4p4qDE35XiJ0xvO//8D0LJbYr0cHUS7ECTtJVurK+lK13XZyXu8BHqUeoeanMuKgL0AB3cCi4Dk2ko8qKp8ztUJ9fsEu/YpYh/e0aevRhyjt6m106rz74xDTSBfeljgbfTnOw9xF5rm89dDGIs7Rj0ZAdoXiw20R21Mb1yPAezlU7xzDzogkZ+lM92fSJCwSUviiTgx9W0OH22Zp6gpqxpsFTgNtGR6akBOrVfxpyAWDv88tvN8gHgd4Z8wjvE9v7Z+0YcZQyNTRY3JNc7pRHeksv2h5wG373Qy4Kb8atd090FyjZ1son2eZcoZ3Vv/n4PG4m4Lj8+dPWcF3cUxwNYbViKqUfno4zaSrCF1aPHB4B4Oeff55STuvgU1kdHigvQtHl6y8+FDXCR7VXtItfGEhgKbVRDnDbtiM1Rgn4z//6d9GZ+CLSk1ZavdZmmyhxfLuB1av/NHkuYIMXqLFwwX/Zt8u589+m8r3p9/8nnT42WhjkZvIiDzzapy4r2Oz4snPND22BG+ObRpjJo21Ob9a24mIL9BWLWcUlz+vbuGV/4TilA0jLMf5ZP+O+XLPIeTjY4PtG3ckX9v5UOKEiN3kZhZp+sr5gv//7kdk+7USkc1HUCzYCYA5vQVKYi74Vd/o4oVcjteXS24aeqPb9f0ezHmg220+rN/MezvPsm4u4XHFlKZMdw6u7aIAwnmd1ryAC8VBiDVbRnO6whWLf1//vE+zHvOrEcxOr6hSrzCvROI2sMvWGejnuBIrVbxx0kK9NWvez6j66444CMRh9EwCaG2nZv+gdVyjOhWP29sUhl/3TDywW9nFudn7fj8mUL+WAvh+Pz9mpLuoRLVX/WeeCRulhj/+WX5azIAbUQXWMUhyA2Sc3BVlF3IP5fO7dRO/dZMdndNDm8TxBYsAoc0SlGIKNbxzCxEPHHs7xJUfjaW4+nXyvLjqwEcWwqXcCRtHVq2wD4BrJ5WYRgRa2PpYmvjmGihNBJho03jEPW/ms2HgkniuUI1qBB4WiRBZFXnV78nLxViJFowQ2Q3UHqlizT74vqwmOS3aHo+2SiPzyA4taS6RAauaNB8ekihL5KCS5QK8fn+wKaxkXQrdF/lRqUfecojnQaEVeGd+RZN7TjFC7fnupWJr/I4ib8GXJXp1ZMm4fNvzdbz5c22gcHGdo8N13f0o+cdY5KA+af28RDt7+8t//Ad7GFZMRVPHv0Z4Juk86iaiIrzoQwDi5UcA4lREBOhyEE17kpokrmQZpIztJl8ZeuRHkxDauu8zgBhV4bL3YrcJW0J78dvVndTjQH++slLXZjOJQAR0swfK3fS5MNmAg9w50A7M1ohEFFkYRjqZOJkf9khMNtqP6kSx4T0764lmGvN54xRFErX+9EGw5IGbZasPeERonZ2lLR+MARe/rfHtL/9daqtJ6tDSq1t6izpcwY+zk0c+avRNIQy2QZb9QWKl1CdnGzwpeKAKPbIj3MMR2uOWnXSNvG69XResu/SayoWm3YJ5Hd4OTXLbPoZ0wjgPuOKJhiqmgQ0zoFevdMc5IWnq78juqmvtqCf2FdTj5/qf4opaRnCQuwL6p/pS30LAUk5Kod4Pn+ccNiNb9Xb10GtfuaZ7fYfbu7pZ14c5XsPa4PVEAKSua5G9Xmop5gQCVkcJjlmY2zC+aCrE3qBk29mjUDOYBTLg2EiOLZQ3cxppqsFXHJX6jIeyhB+9XQUP/NuofFu6VP40G/BEBDSSfLMmeWTKHuxlkGtkRO9No2sgbsMUqUjRUYgO59m8HXTuM5Reoeoh6z4g+XLuazGxn/oy3b74C8FMacJhGgez2/BwO1hn8WZfKN446cr6vCdtXX18ZAo9SBKzocuWnsvh2sThwbeWvvv32Gu3pE6JIKGZrBjzKy7Cz5lvSnp6ejG2F20VAce77V6IyUMf5gaTuRT4TzfqZOSAa8/gEA1SdJUujboI4qInp7Q0bcQMq8RwMPGDOBlnw8As+GXWvCIGmRLyprF+l8vXwIf8HNqgtbbuJQC8AAAAldEVYdGRhdGU6Y3JlYXRlADIwMjUtMDQtMjFUMTA6MjA6MDMrMDA6MDAgot+sAAAAJXRFWHRkYXRlOm1vZGlmeQAyMDI1LTA0LTIxVDEwOjIwOjAzKzAwOjAwUf9nEAAAAB50RVh0aWNjOmNvcHlyaWdodABHb29nbGUgSW5jLiAyMDE2rAszOAAAABR0RVh0aWNjOmRlc2NyaXB0aW9uAHNSR0K6kHMHAAAAFXRFWHRpY2M6bWFudWZhY3R1cmVyAHNSR0Iq8ipvAAAADnRFWHRpY2M6bW9kZWwAc1JHQltgSUMAAAAASUVORK5CYII=;strokeWidth=5;imageBorder=#99479B;" vertex="1" parent="1">
          <mxGeometry x="725" y="492" width="85" height="85" as="geometry" />
        </mxCell>
        <mxCell id="fkhzhb3UsODcdzvoW7---7" value="" style="shape=image;verticalLabelPosition=bottom;labelBackgroundColor=default;verticalAlign=top;aspect=fixed;imageAspect=0;image=data:image/png,iVBORw0KGgoAAAANSUhEUgAAAFUAAABVCAIAAAC3lz8NAAABAGlDQ1BpY2MAABiVY2BgPMEABCwGDAy5eSVFQe5OChGRUQrsDxgYgRAMEpOLCxhwA6Cqb9cgai/r4lGHC3CmpBYnA+kPQKxSBLQcaKQIkC2SDmFrgNhJELYNiF1eUlACZAeA2EUhQc5AdgqQrZGOxE5CYicXFIHU9wDZNrk5pckIdzPwpOaFBgNpDiCWYShmCGJwZ3AC+R+iJH8RA4PFVwYG5gkIsaSZDAzbWxkYJG4hxFQWMDDwtzAwbDuPEEOESUFiUSJYiAWImdLSGBg+LWdg4I1kYBC+wMDAFQ0LCBxuUwC7zZ0hHwjTGXIYUoEingx5DMkMekCWEYMBgyGDGQCm1j8/yRb+6wAAACBjSFJNAAB6JgAAgIQAAPoAAACA6AAAdTAAAOpgAAA6mAAAF3CculE8AAAABmJLR0QA/wD/AP+gvaeTAAAACW9GRnMAAAAAAAAAqgCOwuKtAAAAB3RJTUUH6QQVChQD1ejivgAAAAl2cEFnAAAA/wAAAP8AYjLrtwAAGGhJREFUeNqdfNuOJEl2nNnxyKqu7u3Vrna1JEBBEkg+Ug/6Jf2GfkGAXvkvehPADyAE6EEUQGolrbTcmb3NTHdXZbgZH47fIjKrp0eBQU9WZqSHu5+bHTvHk//6P/x7IIwNELibBgg/fPON4QejgFJcAcDbQ9W/KNulVoAAwiAM6N11/3e/+Fc/uu5gpUEAAMxvHx7+y//6f99cLuEABYcoM0x92msNwWEqbyewST9/8xBWOAQEIAAIEy+fnk3AYYJG/guAYQDtxhzn8D7WT/dS98t+jR0U+rKj3xRA0NWcQ+FwCYCocYNgAMUwAQoUDUL5aDEAmDAjlwHCDABCiDUXoz5a5DhAfj36nDSWZHh5/fkr/EVvtvXTBGwCIBy5oMPWYU6OfaIAAa9DM19wfEl3ZgGBCKv2nc+vEKB9vG9e7YleXgP02Ijca+Wnp90ZW5wvAmPW3gDAcU/aMO9Mn0YAmltw+Kh/M5YtaO83pYDMvlmGiYDAO/K8s/ib16tIdbxHXVr5woTHqo/y//7r+LWgBUafcdrpMKIxjxBDCFoBjd0tRm13KeVgeHwazcTmIw8rX2SUTynLPt6dc1qrAbFtSt/W5ls2uMx9dHrB6B87IKVtpCShTdgqGM0LDLm9RClb/qkhgU9b2SMq25dzovlRVZt0Gp1hmgA27RfVcPSNIAAzXHelz83RFAA2749WqD1xuFIRNS7NvgxTMIRQCFZtRhSAtg8fKwBYuZqmpLAEY2+TaOMK0k/f//Rpt3hQimL8nz/8ofS9HSr3sVx/V/dPR+GIMMVg1xS7701R/fM//ZP3Ly90AAiHCCMq+ccPH2vAQ9dMAg+6/pt//vSgl2bCrLmXz+Xyd1/99rlc6ADU3le5Fv/P7/4xJS4GwK2rzuIU5jxljiDUpB1w8aqh7bsvEUH25QEOEc8l9oIat8Yciy+OFGzq9kPdH3UtSvsKEwIr41nXHWFIiNQOOh51farxqGe40AIrITgK9otq5YaUFBUWDQeKcaWG4/uM/Wus7Rg2pFSHxTuGYVqLF+gqE6+NzsWT93iZoyL3tytHYPH2GWjT5bh76PYnI+UMwAiD09sDlcHlK4lbwO/zfyfXku4039HinAQYCIhu9ina4N0I8vkr4+tNONAiD+bfQeVkzGmNBojmO/K1IPSNSP/nHMChz6y/q72WqcSqGOYSkwkY4kncbpDpnuSxuM+hBdFWHt0ew1we1IdNP5fTA3Uvrs1h81njQY7pIwF9Tv5xF76kR8kP0w777X32yAivG0Dx2rVqmRmVESlDwMz1xboFC0AVreKMUWOpAhAwDVodNqrDnMO1JSD9zBYslxL8hAMIAQlkGuYT1vUDIKP4dfs/b2uTyTViZ4Dd/BFqCDpyqstORBjFyHwhVRAWjbCKVbwDkYunnPMf6hzQ5/3fWT40TL0EUQoAsbSBMlalb1rWb8TO+IwLvLcdsZPPpfCwcWHCDewc5EJjky4SvQMAaiYlF9fwXlxyzkDNiRUzEuVbZhDYyLMk8tbHy7ZObsj5H37/NdHysHF/AE/bw+36K2P/7PJPCYmBX33128e6TykZQNB4enoaqHlOrOqn796+rSVUAIBXheDtU7n85OPLw/bAzC+5A6DjucTDcyjCpBCZ/32JWBb5REvsgI7zHcWKshEqCkBipghx47q+94qdhUtexJlxhXzeLxrF2rT39yUJ3kuUcN0kQIaAxD9Iv8IUTsu414e3/2eA5K18aNDNqt3AaVAMRIiBKCIYNIEwWVNcp4xl0bLbtKcyRureYiFRBCFKV5LpAIxiFCvcEGqxBYUTpO0tW2l+nER6x2A6hS+0/7H4Nv+bdIxmtCQaFCP/DywA5IsfwrDVEHSDQz0E9hT78AWouPl8J9RDBBRQwGj5X0aEMRMBJZdzWr/uzQgjKGtJLceV8xOQLvgLFX6V/A0t0cC4qMR5Le0/YM7PX2uQb2LSydcQLYt67YpXcNjAJOO/vi8JXI0DbPqhCLBv0HG2wEqrwFQ+sX8c3ekuE01LJ8y4nXPev53S2LtiGo432o4aI8hP8060F6KA5he/FwHd8y8oAjnz60EKDcYhRdeWMXFegFUNm0euOfUx86sg1XExusJuf/HHr/sy1OcUz6V8+/DmJTa02D43NYx69Oo5UM2MLm/v+VxLFib2apCySBe42PTMoQAUjSgfy0cz2xwUSCpdJT9sT0D0vOPSeIfy8LF8eI4HIEyJu9nin3oGlRBu+0//9s/7dqDxji6/eXr/13/7337z8AQEPHVkDz5/eqkx0BlBgLDx4eUlYJirKjUbM9QgPYEQdLH+8mc/f9QVM38LuBjx3XffVU4tC6gasF9eXqoyHGb2KSFk/s3f/eriOrSxEpV4Kfztp+drhAiFuguMGjveXkrZL92dbn/xx68Ih5VMg1GA7bH6/fX5Dw9PSMau4XzZ0TT2lJEQJmqi1iOgbrm9ozGrbOD8se5PdQdrW78JbBXlA2TEsAvinA4qUbdTv+JTeXz2YRrXgIjn0F5SVYspoQRQAxF1JGYEtpE6xggVTjNRcgkBdbZHkyxe8CkX4wyv5tLZ+y75BI4jS0eLxn1ki4yYfrrb47xbcONLV5cR690L5xmGqcQgwbaPdOKAFmJe9f8xwFbzGopBH/ozUSPOfzgWgnTi9mUFisxGqGUVoyiSsh4faX58uP9wcZkHF0LhDv9v8MjlnRYguQTOMX/9K/Mf3MNzjepaKLY4wsF0ICn/sE3RC2lyDksjqs/wzpvAPm7OZQdnBaXNZyGstwxqrVaTtzE6J4e7CuJjLq3BRlBx7/6Gt91jk5eAwghPWd8+qaOJttqSNy9VsxPcmhGuyQZ1pC4dSq24ZhMDiHSq3VdRoBFikgixCl8h8VDeaOxdAEdJpLUHREWgJmMLuK83hDBUGWR7RmUM5e0LS7YvzMCymMb3jqLTkZUSJ+E/73NO0160eavo/H+TDgNb8g2VybTGArKwVYwFrEoqZUWxDjmm5K5SphwjRatUg+sMYxMVhiOlmm7nSEYTsipJRBzrHyBKErudPhmIaISp1UMkI7Tiju333z4DKtYgrcPl977sZpXlUTaSLVf8yx//pOtvHMLSdR8KMd6vgQ/7S2aKwwJr+FL18ePHXappFYOEcnza64qKeqFWz9cP9CwuDuT7WNKtTI9gSkRspQa4ECmECvnjd28dlR34b0IhWDlUjpVRSTEa2dW2MNhL1NMUJheIeu/9Cr1IlTPnbRYIpVklXIlk07Lyjk23Vs2GgisH/mss+M4gdMCjveB1jxjNKpHiZP/FLbFBU/hI+2+7MjA/ZjrZ3mIWwVFjysy9CiYqusNLgdXFzaU4TVQ0HjUcYs1t6BreoobhaJJvkxJha0uzXUFnW6UHUu5hO+0c4GL/q7EJQLP51y964I9W1+HAzkMCM1bTCs7AGwAdPZ/uYZ2xlECOyBLgjHPN75rJtir93Iipa31xme/kv+MIBERtYnTjeWXZw5pngjQ+WVHgGhHWSsGEZ2G42eradDGtN4CwxQRrOG2GY1i9hmxncfbGauasWmKjiUP60w/8R/iwc1kzQ/O6GszRIst714m6RdIwszR82tUOxZU2wtyCsW1Dlb6YUGh5+hyhS37WVeYMtzjOo1Fua6U8fe2hn+GO/59W4+X9QEKp5EVv5xqQW8tM0+U0r9Fi0TF4i96H9RP0MVbcY5+GwTczMRUzv9p++aMfR8q2o7oAvnrz9GHblM0ZA1x01kFsHn7tNKnpVByg4qhEvZ9HgIoBqygpepQsvGd9NnfPNRn6zEdFgQ4hVNnZJ3QmrthvFMVNWjPEEs8bKuHGxCBjZ+bCbkALorb/+Pe/BED3eiEcxnMpz+/eXUvThdU6yGpOciI6I6HNNJJpdteFsP7ZY+luqQyW7EH6s1/8bNMeWSjtpivyuw+tmK9GrLpSBfsvHt9tUg214h8B4CL9yduni0QfwsqnLf7rP/7q0xbiVKAw9tA3eN7LLDdtv/zRj9E9UAeLBvBm2wCQGj6zBuBoOLf728pmDjmF0eQzdoeoJXelDa6LtaluftlcHyS6LakyzHjR1R22ZLCu4U372/1lc63SEmjjQfv7azyocpbeMuXZNl+JrVhecGoihVb/Zva/HHsTbk1UE70sZY/18tqXMu0eyVICtXN1zXrtXrRNkrJ1UwSkYxK52nNP3Q85LCcZ495Hg9rZ7xqN/+vxUTULld0i8KoPv3clkQr/gK+go5EaLSdBx2dL88/humVEx7/RlZydFwoHHQQ4ebeggt3gl8lPkDJ5DWqLtapwpJnQvXrPT9WJ4Fdp3RUR9LxQoyPqkC90Tn71la/Lo7nU8GGcJIuLOvxJDwUUsb1PGNkehQBsITToA39h/9s66S+7ZQTgSZ/ny9EdOtJW91Y6OsA4dVb1KttZI9atGVu9fpcNvxQzacmBnFb+4Wz//ZEnLViFwIneVhPy0roZ2XUAsdXnpuMorTgfRUEb2JgJ7Ew9uM5vZPJeXo8tSMvaT92HC4rrpc655eaBzvgi+S904ut6wJs3G90RtYkl2DkcCM8lqlVclnSDIvZYMLVHMjNTeiymJOK5cP1K7v+1YA8oeirGNr3asoNF/pdt+fJivZ+er+flGAG8f3pzclH556U84ui90qv/+quvuzzZB3F4/+1Xz5FJ41IdKdbPnt4WNT8SkLLJSRVv3kJmc30tERDiH77+zakFiMbzxutj2UtMf5Q2UPC7b/54LVMBfoD9m5Rnojje7ulV9GJY/9cEE4QteQczI9yeSwSySz26+41NKczmI2yYUUNbTzoyt4uuApV4KaiRfsSjyeMlcI2oMaKAWimVYTayY6x/WQynFvTerkNUZwMyoxKOhg+cxeYGltkS1QBY3As5jbJr2Dk7dvputn7GHNrDizJS/sPyb6/RYmJqQUFtpy7qqGEhAU/+7wdcPjfL6P6/rUFSzHrRimpaQ2qPlLlNjUEPGGKos1MaYl+FsOTzvXA2SSFkWQ9Bu6jjd7cULmd/8H9cWupvMcmRBU+aaP59G67X7UnvNTx2zJT0/JRbEHQ7bK++aJVzZPfBoCjZ2tOKUAI2NmsyK1M71P2Cfgj+W+VwRxfjtW+JdlPjWbHRUQ4D3txZ+eAbuh71NrxR28l8IaKn3qNraKH6ZRpQp1DU+9+HsNq7nbpZEOFy9mIUC6Ip1UlIC5hEusyQEKapOxyATtTYvS3AwlsNsS9lkaa5XdEiOq2a/Co5P1Vzwb0j1tgC+xAIc6KWORaZ3Gsr43OWSYRRDO3lgcG7TZYaYdbkC1zgLp+AHO27jU0wBNbwtZS0srZm2gChDxfsitkU0SQS1+JK+gYavd3VWimSLKZNFcVmXduRBwPYHh9mLR9IYwqB2D26z8ZWF8bz88ceBYQJM/Hm3Vs2GRpjgwJPb88tgE17y5Xu5tfjv6CP2yd2JmqoUhH++3dfjQbIschi/+TtWwAKijRLkSS83f1X7//07RVb482kgKivn7b/+/Lsx0lJboGXIX8AYMBboASqgHFAarTGiYf6ftaCyqw+oZfSBku1ZzuI2NBYULIALriFrfQG1NItbcm1KrFng6MP/fibdC0g1FtS1A6ZGe9e9JNnbLVlvo0UKnqoi9lSG1vmPGja1i3ZI9OeDPxIPNHqZRMUo8fb4fCxjvfDrxipPJAs43K4LFb5YwDq47WmEJ2SAY/cQe/EuGlFSy/KXojjwfcknZzJdMzZNujCJO3Gjqzjx8LAn4rz66dHDT8s/rXrSzruWnN9bgU1spUNvqxbYALegAKTKHAEW2V3nmK51y22ysG963psQWdWecQyfbw8ApQTXdjTw3Ne4V2SRPBNXqgeYnl+1iw3jH2J1quLgKOXd+ilMIm0rRbi1CimDELu1Agdi2md5DNbETEZvMmLteDcHwWMPrd+mkpgUhfJprVPuSjpoVjSA166hpov8vmLPm8LnaiB/0XVSDy/N23NeObscdRYVfpwulXcMFvJJsfSF9CPBC2YQm5dE+NYikJhN56i/7vWp4S5R6KTvM8mj/XsjJjn7qRona/ipI/BhOGxXdTzXI7enh3apL1DmrTnRt6VRkvOMlAv3aj3LmTk16CxjQBTm8COsTJtyhGyq8HIBrbsgpn6miwSjdo4IiSfHK4KvUQbbfDcu1GMj5ezrxHx4ZIp9wBi2n5RPPeUyvgP7G9+9g7eht9xwyr8UD2aTdXZcQIPZLSqfCoGDbpgV30ZCUrfYKICJRuDAhZr2gWNl/rxRF3mN99cHgDk6dGe/EPAV/6Azib2+/2WeHj+3bvr6C9r4OxbCk8Pjw/TCW0PrQlxVrKTh3rQBtRl1Cxu8KK4RiQiLA2EZr81D3VXT6ZsVGzSkGon9QQENbEUEFTW1CvHM1PzXdNEstxJth4gokbJA7braacAPnTORcv6P22tTwU9Zm2eBcau/63GLGBfmhlbxwrh1vDdkGxPcCh6+j/1fjs1tB39K628t9r/9BSt2+ccI9TyluyvagoshImSQ3bf1pofkEdg20xwoOHdd1YmNnVaZtG2yEaYrguIPHU5GxItI6ZmLA1wuJn5wqb4pqR9uk5D9PvV9b3ByvCQEDrdNIslgwLREl/6ScFh5s2rbPAFzLPIZZy7ABDO5ucCgGYQRHAJ4PziVv97C70fzO9H/s8WacR2gvx2MlmwWRtWmkhmB2n08//nmwKOtc7BXj8f951awMds2u2ZuzHi+HsBzGDQ2zIOi+/vdCe6UJptF+6gaR8nc2phOI1/C9y23lqazxwaJWLvoQc925UaXzCfILTWWoOTlnKA8kJsRcM8Ok1o9N6MclOG0tNqWx/WTfvsibB6tf7fBde762av1ra5nZnDkr0LAKt42ErZSuayO0WN3IpApNVkvayt/6Wgspy6XZb2Kc6qc/9gIecz7xI92oQSw2tUQSsAlPkLIt3Oa+C5rMlYu64broHKgfm0vadbk1UzdRC4Fnyzf7yWQz83jepy9cWD3nCriNbgp48fKrYO8nr/G3EdRzkaQKFhmFf3hpyTTraKZgvdxSxZW78EoSKUScKKjI/1pY4zvVQ6gxfgf3zz65uaJmpIRVWjVRHb1smWqZOGIhTaA2W1mTwgQAvqnV+pfmFgZ1Qya/hDemoU0Bw8zcGsaOQXgRZxE1LW6QMjFbUcsRDXTLRR4/JiL1kper7Mb62OxGU6KwDbfVfsHoMNH6yO59u6IyXqKQMBFBzh/YuI1g6f7/g5tqO+2S6PmEmU8uctwFMf+E1dA10iC0l/l/9fWepDk9Ooxqr31by+sP8f5gPA2s80BipITYxJmeU8B3ziFz6u9z/067h+r9Dr+Hpxs8t5q55pr4Vnz+4YU73acZJDX9vSZeBG1a5716mULv8yEXqW9OwJhE4bL+A1hDIne1x/HqpTHjkf7bBjzNax2y0887xZnM7jlyNf7rSa6rEf7/Oyytq5MD1jzWDCds4gi7mZg51+WeTueCup3xuRhiRj60T1ePz4VKOKuexbSSJhxAX13xVyHsg64ajMeg/NYqOPbtKKI0qN3/OJ3g7Vf25LpsBaQ84OH4TBGrCgezbYhJQealaBAdRVr7e+JcsQrCB7m7mW+rzEqBhNZaMVl705QULpyr967dxFdVd/oLVOetlbgNcuAG/Wm70+1n38QpsAM57LdqUrT/gix+qqvXbAG/AG7oOV27ZLrDcll1RLXC6hrclvjs3y6999e43eNdp0Jx1zVEbrfJtEmNpPWczCaSTwuV6f0btaG9DOo2FbT7wclAsc8NO1/tWf/fz9y7VgJ2q0XyiL3z9e/vP//vtvHy6367/O8wir/LW9oVMGDqJuazDI2mlxFkyY5cRJjrf3IY4csuFXjXxrtNnwACvWdqDPhAYvHZsDWdPaVN/u9d1+LX7JX8cJBRDXQA/nqwn03TxvSsD7chgrYGxHDeyohlid9dpymvbPg1NYWtrOIViDF8QN0jvbwAlbsLEDDu1F5g7sNaqxE8jf/rhuW83fY7jTfejjn6DZ+vf6/b6J/wZ6u8YBt0ztEPO3hBTjcNbyqN4vJWckb4QaDn749XN7MIn+lZEXtV5NtXaYLiS3YJT5x2vZeEwBntWk8T+5N+3pE+10/Rkc/uoHTueKvufqSOkWkK+7hs7Gdz6ipVJJXRGtTXye1e69iQulm08T+pm1m2qyQHZIpZa0jWkucjgveNmLlvO42Qj7wg6VuaTJY2mfPmDPqVM4PXQ5udI7BbLqJpRWGmkGTPNoMzckx3iTPn/U6/3bMsQJ8A1fFoslxNLL3Db4lGOGcVcRv+RqNQurclTKUdH7XD16hNJ7jeTl8GN8jujhFpNHYK5Obvy60gv8Ezz+Md6QzBoQAAAAJXRFWHRkYXRlOmNyZWF0ZQAyMDI1LTA0LTIxVDEwOjIwOjAzKzAwOjAwIKLfrAAAACV0RVh0ZGF0ZTptb2RpZnkAMjAyNS0wNC0yMVQxMDoyMDowMyswMDowMFH/ZxAAAAAedEVYdGljYzpjb3B5cmlnaHQAR29vZ2xlIEluYy4gMjAxNqwLMzgAAAAUdEVYdGljYzpkZXNjcmlwdGlvbgBzUkdCupBzBwAAABV0RVh0aWNjOm1hbnVmYWN0dXJlcgBzUkdCKvIqbwAAAA50RVh0aWNjOm1vZGVsAHNSR0JbYElDAAAAAElFTkSuQmCC;strokeWidth=5;imageBorder=#99479B;" vertex="1" parent="1">
          <mxGeometry x="540" y="584" width="85" height="85" as="geometry" />
        </mxCell>
        <mxCell id="fkhzhb3UsODcdzvoW7---8" value="" style="shape=image;verticalLabelPosition=bottom;labelBackgroundColor=default;verticalAlign=top;aspect=fixed;imageAspect=0;image=data:image/png,iVBORw0KGgoAAAANSUhEUgAAAFUAAABVCAIAAAC3lz8NAAABAGlDQ1BpY2MAABiVY2BgPMEABCwGDAy5eSVFQe5OChGRUQrsDxgYgRAMEpOLCxhwA6Cqb9cgai/r4lGHC3CmpBYnA+kPQKxSBLQcaKQIkC2SDmFrgNhJELYNiF1eUlACZAeA2EUhQc5AdgqQrZGOxE5CYicXFIHU9wDZNrk5pckIdzPwpOaFBgNpDiCWYShmCGJwZ3AC+R+iJH8RA4PFVwYG5gkIsaSZDAzbWxkYJG4hxFQWMDDwtzAwbDuPEEOESUFiUSJYiAWImdLSGBg+LWdg4I1kYBC+wMDAFQ0LCBxuUwC7zZ0hHwjTGXIYUoEingx5DMkMekCWEYMBgyGDGQCm1j8/yRb+6wAAACBjSFJNAAB6JgAAgIQAAPoAAACA6AAAdTAAAOpgAAA6mAAAF3CculE8AAAABmJLR0QA/wD/AP+gvaeTAAAACW9GRnMAAABVAAAAqgDSgXvpAAAAB3RJTUUH6QQVChQD1ejivgAAAAl2cEFnAAAA/wAAAP8AYjLrtwAAGjJJREFUeNqlfMuSJElynKq5Z2Z19Tw4M7sLLi+EUHjBCRee+Ck88Bf4e7xQ+A0UoQhuwApAkQUfO7OD6e7qzHRX5cHcPSIrq3q6gZCRlprMyPCXuZmamnrwL//LfwIM6vvvvwdEAxQAQAA6Hv78MzoOuLvU+/2HpuJAU3QUMQyw92hv2/k/fv9v3rZrjwvYaYSD5rnUP7z/+FRLGIABimiMFvHnD0+XiM5QjIfTAHAoJzjCQSAUPdBCYf1FfSh2KxIARBg0v72c//3Hp391PgNjXDRoFJu9Favm4NeAQY0/diPFZ180wqOjYRAwIOb/qrgJ3VB+YYa57nQYosMIgsjpQN7wyUvZZxPZ9R4IQ0AABowQA5AZNAIAZWQTEa8/17up+YKLa77oHLwJE6BydkavCWWPuX2yvs1hzY4EHLluNLyflE92jwan1QBBh7k1l1e9W2rNwf9LLgEQA4ARPafEkVM+ns6AmSYgIkzCInJhZvOR9+ff4dF7UyLC8WwwsexummERAiiCCVF09s1zmNrGz2kTuwnM6XjZRjxWey7R/InXrwwQPcZ/JowQ5PFAAtUonSHmvVwjzJHPdeZayUCOBCQArXa3TQfIKGOTIxwxDEkxe8xhGiJUAcJBNFBhTXNRDtF40SOM3+c4w1g3HPr1u6dz9RUeT3boUvrb6+W7h/Pb6/VSpBAduVqX0G8/fGwBAuExXoPnUnX5eK6E0wSUg79GfDy8bSiAhIjp0gCY1uyGqZy+HmgR1+mLc4VoHcE3V506qpoBBXuoEx1WQBpWGmB/eHjoLJuNzPnuHSBzZ67r+/PH//xXf/Xd+akzgCiiCNHV+qbpIPWwiEMnEFeGCX73G0xXkE+uil+O8T+uP787lKqYIUlh/HI4/fd/+NMvhzcGDHutknFmm1tLud2uxCHau2Mxj8LeQtvXF/3bx+++Oavm7K59GxDgyEdwvwt222xYkWCln1pTcNL1u/PT757eNRYAVRFGDxTphAirB2jUHgBaVEAHu1igc+MUxaHH28a/1/tAObX0GhojIw5qdDrUHD+K093A8+80WxEtcIk4BLyNn53xyFZbOTXU+10/d/f0Qw4w7r7Umorbb6IFzgV9OCrQke7qeAcXwgDHI5YNjXiBSI8t1GIA6VZghPGJmPXsEmA6dm4FMMjhIAOIbC+n1zN26Vejrj/dCYYRjme3cQKEaURbpMy/szOdFAEznPE5zACqGPiCwb9wrQAxOqOoz33b8CIxe6xXo8BLU0BHVZz6iDDFANCJYlSheIQFbK3qNtbGWv+YWC0MIUxNX/hshVfbw2dvf7/aW4UjHECv62PCKwSGJQadoUN3Le2avJsFGkXRGWU3qvUVbrfbGCGANFECDgEmwq5W2U8O9c+AJebYjADksTCall5z5DnZQcECxWEkJeb9NyP3Go1uPkGudnRGZw6bpjuxx4RmjnE8I+2ix4gjM0jrIFVlnyODdYLILxq8iE5kMDKRK2rOToZqTj+hmDF2DkZCZLvg9F0TSwKYH/Y9Ru+hjxXvjzt/C3b61NES9TOd4niSiWtBS6RNm/Tcn1U6daWV9hh5xDlaevjPX/0e0YrSvsIxwBB7K2iBeqxBmKjHeihjgXM8YURjudQILgMOzP7162pkDwHKH97/+NPlKbEbHYBAv2l6/OqHaAvQgSbNXvD3737uIThA0RHWoUOB3//m2x4owtoCNP74+NVBP72YoZEkwGFZE0gHPl7biInOFEugTtZZPss1oWVAxSI2aOrMfylac6kD6PNrgu1+83fiY2UFi9a8REBhtBiGwkzO6LTtFriUyMkKRxnI0lWqVpWKEh2CxmP7svVP+29z+QgPXEglKq+57Tn3f7YdhphR2KA217p2O2PLDm+dUg90Bohw9ACgAHpsMDa9poA0t5hwKDBzJCPQiwW0YpNKpGCGon/u0AHQJjScUS4gAU+ngM6Z/4W3VHcGSYsrFxQQoHb7f33FZ1Eg8UbRHBLTEDq9wURvkFFl/HqLEQlDikf/w7pt9Itd4Jb2KudxpuSImh1J8Dii8VjVFyPtsw85b1t4AVU4tagaw+gBYGzjMj18pybImwnk7pEakQMEY3MugyW57YNe+fsuUK7hWDOtjpEUbuh/F5p/DQIGXsbNERo95j5YzFDP5x3zwFfT+pKuyS0fI7mKSSYFUPDPuvbTxtmfMOqIRhmWXp3SwM0fay7j2ScmLgXXgq6x9XMTtbJFyYWyaIztTiXy24xg3mBy9V+J2X8Fet+N3Ddpa/r2QZAANVMLUT02oMNpQIbCrGqz92NH0wEN488h5A2d5f3hZEbtBJL2MKAr9cfHr94cexJ1+fAq9MD/UWsMM8NDABBV3Pvj18VtJfc5/h9Pb1rg4DZy3y3/j/DYyIuPCAgIBazhO/JuU63oCfjliHo4Ggyx/PTxndkImZ4TxnB889W3sExmMpW+InR4+kgq1qR1woxrHP/b3/xDMcqYyJGNhvVf8Y9Fo7O5BYsgwiXmImeuOTzrQ/1/vHN114jH3/5wDJTEqU7aM8w4t2YuXKn06AWdOMzcIT2OHPoI/q/r02PyX6ISJCtW84leMp3OoBgBKGMBG8GiB4qBGMYS6EBn+VgeOpN+TqAwE/IS27wCmYQAQNkw1X7bHY4FmxMZ4yru/5o46UJrYvMEs6UBDQbHrlKMwJGwcgYpZTi4FjwBLTL+OUTEoNRisVoe8SApyvCAPUFEeqmSNzuSAuHGEwRy5J6OdzetaaJEJHPyebs578oUqRV37rISTofBnRvKB5uKwRonoYBB7Ux3kNw45yTHTLYX04oeM/fYpU233dp5l5tPtt5ozsxycsZs4AuvsBIUhLFzWZ4baz5/xPzA86iZE0EqeMN/O1aeM0Y7KefYm+DdlUg/s/S9ud6FushxL5YliE+BGd83G0AnkIZN3KbD1OTINeNvrOrLXWfmE8OzKWah6XmHZvxQAAEXb8zg/d2TsdAkmJ+XPT7Rlc+/0po6MyJWD7g0pu1ZEx5Jp0xlFSA/dshADQuErJmrgTPByAhJqHgPqASLTu+iG77IAhEwjEGlW8Cgpb3ZwJdMxI37AIDOSqsnM2ZmMn/7pG0KRJi+lm1EogB3q5s9Wg04OY8ANPnfZVFFqOpl1Jw06gvRgeWBBiY3gzCg4sasq2UPjAJ0Isw+y3r88m0/RxYdBXHMdperMmE0zIQK0+yLENZR08Td0xaOagf5INdv3z6KrYcbLj24XF3OfbW+Opbax8qNukA0+3AlVYjpLBJHBvj1V4/7tTUBRw/804en6Iv/2OVLTA5qfxUA0gtOxOCP7z6EdQvPBeCrr9/u92/S5gfhm45T21kcZerU8b3KqbcaEortrFM4KE3ERaBIVarpWmdE6W7ygWjhQy9abWaZtbjfjB8h9DCLW2eG+pgOMqZNftn6t7hxO4SB5pHeY+d9o1hVOMw+hkMUoEP30e3UVQOyQSaaVZ+bjTPFoVVm4XWWVgZXbirT6bk7EIYt7Pa5jBh8rg11BHdx+5Me4GVkIGbMXuU8BURAiIKODSqMbL2H+spXbvf/QGB7/3znkxSz0JL+PGnC6SNfil5MKlEcE6FZLLx9/hemMeNHicRGYKPIGQVmfjIDcA5tVt/toUQQ4BkOIGqPCrbNjEl6jNLIrVOYXiZ0kwWPdPXlUOfYPTqMMEcB5ovGP4LrsLWbtZppds77bZ760nNWvThSdbLWxCNPiKQoegxfv6893fhvczf4uyHtPxkjxwTIO2bmcy9Ngx9TEHv6ZjfjmSy/lC9znw5XrSIfQtFnnXSsonIKqBj8+fxq5KpZ5NekzLaWMjJlZmHCpDhrbYz9/H3pNijuSvDHNMCFgp/XaUUO1szk5NgS/8z6j+siwzzHren8AZhK3pYe/CwgBWz0dGhz3+0dR2Y4NzgRBnpWjQNgWoEjrDe90TfM06TGDmOuh25j2d0hCVjtID2zqrISFCvT0iq9af2xtR3HKACn3k/AqbeaygxRsBIeBbTIQFE/nt9ji1VZFBPVUH+gSwEBhss0fnUyGDRjxAWILtR33zyYHlIPJwKKg65/+fWbY29LCGW6Uy0OP/7sxkMvbeRthojGw48fro1lIdkw6Ki+vn1zCKio7mQy+Ib63buP35575yhnEy7Gsbe3OB97r89SiLFuEIAyuMqNt891yDJmTvCqrE3qZr9QaQtpB+lPWxml+7EYR7U3Had+TUhfBFCttItPBwWC8HVJV8KpEgqzaiQ/EjINTzIzo1UUyASsg/qbdn1sbWFkAsU6qJ/A6lZBTZHaAsI7sL1m5tewurfU2ITgyHLdTOJulF5jQwyF2nYlMOKU4bzoGl+Azn6VFJyio8z0cxIzGbndt6vsM4c6Mh7esbyrnbsJee5+dlPmXVCcm5m6HeBa5BFmlku6v2Zijxe8p2P9q7so412Yy6vupnO6UO5BAPFs8Sd6fWVlXs3ntyI3vMt/bsjvgZQSblKejjE+ZX2bFxQHPb4bAFds3BVdNg46djjuBWnJLZiJuDWzG1y0/zCxA3fiAW7/7iZrfJgRZz8LAYlDNXfXE94v/tx9ueD5rEFk7SRs0+I45EYGqhlCN8OmmVKfbQ2FKB682POBcuif9sIz7HWb0/xkTeXfLMyODREKKNymRyibkAmd6CFAJculk4m54TaGVW/zJN6QAeIcPLdpA7op0T1cF2Dtkd5o4gSsavkXIJQd1bf+Va6tUcGViEKIIKLHV2c8dmXl89Bn4do4yuedOGu66D1g14tub4r3JCCMU9Ob1oeUMafKKmjHiOJWf37/ARTQDscAG9ATb5igbYC9AYs/SIK8wS79AhHsgGY+TyOusm9rlbTBXmvMkm9SF7TxcPFff/3Db/pTj2Rxw1SP/tPp9L9/+bkRLaCAicaM/0BkpX9yvs7/5/l8bbgWaVZMJKI/nb/r/N1l8+MDKTkOFQHUzkFpDyOnk/mG52TvSsOfZQKIzjJnMIZ7Yy2Zb00FRt5Zxa8v+u4JPXk4KBnnc+CgUUEYTHxWKLgkedoVS55FiqEpNlA01h871UDAYDsoJUacxj7R8uKqc2PhLvjHTYPayZJixI/tlmTvAEigqeWlcgGz7nItMpD69PXMTvXYGN5wiqJe2XWTrMhttXWOS6e0MRLKPpOdqgnc9vmId+kUXq7yvr743PkkLOAYoLyLwHtoMJjZ6XMAlUS7MTTymMNmShdfWPDbTzYx9pzNF2q6EgqoCgreFA6JveY0r8r7LcBaz+Xk4baWmHH4tYg99B8j9q7SuJbwKGnlWJJWvpofzzw6xCizvMdbGD4fsh3JeDZ/v+Lbn/EZn2kCd0/RDnnsVCYpt9k5l1g6d2PHxA4H9Ime3E5Smt7gVyYYmbfdhowa9nYMI4uKu2x0bd+Xm9x7gXn72P27EtB4/iq03FSHdA8ZF4c1Mjy8ZO6zUh54jgimi8koM9R+SclP/h9gpOa+jnm5Efa8gHAJbbq9PHhhaPBuOxwGQMZU0BdP0Wb6JioToZI8CtECHw7x7jTaK0IKXp5qmCrukXUkB9BhEbVHETVcVDpU8qB26jy4hya5Thl4aD2sYq2MZ0kgslpZH04FKGG1fp3rOI5XAJB9HBsq09iA0Vk7K0rvaEbd214Yh2OBSx/5bKQnJ6IUESlyj+IsCsQFxz9c3/3Uz9j2M8J8f71+/c1DHA7Ju6xt9aGcfmJc67Fu+CLgeGjlL4ivWyhFgBBt0z+A3wGPhUlaT5xSAqzlmOc/EFtsjN067gB5/rvpsMbBDkMdE+cTYRsuWZPffLB6zLNZTD2HqEhdQA891aiDqx11y6J6LgH0ql5UhnQjtXtFw6QBQMXWiCw6dT62LsBUGR5db1qrUpFHCrjzI2P98YnLqdiL2G3v9O0mlL5qR5xx8O1dVOfKFO0BK3vYYgMUg5Z0kTav5lh2R0fqsTl3CoZrjE+EA90UQPBMU/Ti9Woy+9KdL1+zl0MpOVRq3tzW6sQWhJ49dpdIchdrF5s8feowYI768t7tL/Z5mp3DOxiiWXpcFfFscLFlvrH1WUSJ6VFXUfGZJw4rtzqHg8lQXIliRihVIAnUR7N91MYpRqd2NCa34GQ6QkzJ4BAOTG3+84W/WYm75fm0CdRfYbactHdoF6X3KpDt6SMdziUib1Jm7WiZXYrr2JEzHvRJonquSARa5tIIKVV1M2INWQ2tYhIqTtXQSO/5a2LhuiXsuxFueJ4SczDacMWIPVNasPvtOJk02BtglN8c0ohDco+stQfQOJxiH91weKgGABhsS8g9XBcK2ME+z7CmkjryjMNBw5qGtYYOUgyIlXWXpabbxn+35M8MHOzsgSmeWnWxydsM8mOU/UBcA42uyXAWqaMddX3bdFTr0Yf+mQB47O5v6lOZkRwBRFFcojzB51IPUxcoAtC51M4uXtNYPJLrpHRds3w7rcxW1ZCbvyY4qMdjnivC+XwG8KzCRSuiYCinCUOk4W6XYwUDE3LntqjSb98cq4Bhh5n58KH7350e37Qr0KYULcJxifJ3P/5yLhUos0WWXi+l/vH68VxUe6buIxFs5fLwu69L0aqL0AjXbyvr+18OamHQGVMs4iAdopRSNkVTsiDG73//e/p2/bdItNH4IQYo7zKHVI7HPDU2XYMitZNoBSImWWjBetOvb6/nt+1Ka5Xi6Xh/ODXWD/W0WqejsFyifrCvUQvLSsdEOK6HgNkHNObYeSmKO7hFzxEO3umgrNNvY9SthLjeUwje6jZjFjFOms7i1yiNDuP30rYBoHqMXbjmZQYd0doUa6P6fgDb6BLnzh1szSau2WfvQJt+QXmInopUxFUNQJGeUkTVVju7TVhe2f97WnZ6tECKQlb/bm5Y3RqV1Fz2Mhj4/FXHKjnOc37hxRSOs43j8+EFNNO+nQqOK5XM3GbWUaiAYxx4VnEUyczE4cXebr6tzkr/DbxZVc3ZRn6b1aBNadD3ZAbXkfN66KiiEBwcbsCAD6OsSCWxET0Pf8dWO1sFeIZJIcqOtg3PetSej1tvdcCYuUWW3J7ffRm/7e3q+V8rZd/bxh4u0K+hQmqXti74dVdHwa0wf33+TMwxQaGDigW0Z53q5WtTGdwt/v43r+L/NbScyJU2an64cQTzq/ykh64FhQbYB4hvmQIEWkrsbNAqiDJ89QzaDg5AnVE98o/kplZ/6IgRLwfWnqB7SF13J3o3NJ2e5Rncq+PsGeh1AneUJZcWtmcOuyZOw/nNTTtqSM5DZF9dro9XFUfK6HP8D/36cGiBHpKpQtBRhI+BxnKJmjWxhPcF0aLsdJs3dNXBKuq2RoUCnbhUX0+9nXqnZ2kdEEFcLqVz2wJb/vf+dAZQP+qST+aRAMuWM41R6YD54xlrEAZ69UAg8ycdeHvxf3jz9rfOon2k7rKHUITrGUjRcaEij0m9L4ef2vlPBUmGzTc+WL3p9LANfNpIQTyo137Ng2ChIqLF9cHn79l+QEu1djh1/c31ei7XCxIXTP1eqIf/7/lve6hqBbYBD2+2vykPvUxaRywjSCYj+ZwVAsP69tx+eLommX3oQaBTreCD1UJJvBQNVE+zsXwsx7Hnd+/RIHnrggSnnk8Hd7sBKEIPgKq+nno/9XYp7kQZb0Do3ZcW3dFpruMALXQ+tH7kufYX9/8u5GSivom/9szgXn4y0szYSaBSO0VvP5pFac8iPHzD3cVn5OMxaZLpPj1K5ls5fUulSUegy9vLNe6G+mptJ1ZR4aXP17o8iwBp2DFPTSwiaLRSbA5RljFh3E3mO2RVv1p01DpNPg+aDEh2s0wbB7v9cL+ULzazmxGPFylh6Hzic+jwPNv7mmhkbSdxSxPvZvZZf3IQo9zsREHjpSCbYGXWS3z38/Hf9KljbADqFod5TU5qNwWfU/l9zhfTuxA9KF1AkYeTIpNWr9Okcfe0be4XUt4VYrqpqVMHBi8wD0LN04xMAsIeTAHXS3f2VVkExvtPNq8z2pmyHXG0sYqqu7USxvujtAMFysMPeQqgKk9+xqXApTSWkkYlhh1EURlagBvtiCapNqsjE4YKEltn95Dh9jwFE+hi1gumBCoTrUmE7t8ylal0IIpQ4ZUC7UoRMV0xZwVkmIm3O1k3YmcCtrCYm7wDGDVcAI18d6jvj5n2oc64+E/H4zU+YuM81g5J/N9vLIIu6kf1kxrYi9ZhdxW0HrqWcV4wmAvTWm3ng1pJIigZQfVAC6CgB+rlcs1M4/HxtI7N5WQnjL303Zu4Rj8IoHAuyZomqIRP8sMIqqkjiEvw6Vj/5y//+KdHNlYxUudm6oOeng7HyUHFbnJVagG9lFgAgX5q/dvz9W27gg0I2AZ7uKqfcf2lXHrIBGrWRXor1/7Wl7JTUGIc6nLIVK7/lGUk5bRtrUBqkdYO34eC7aUA2FIjqozlFWZ87ogW8f5Q/nyq51LE8TIzUI2Hq585EQ1J3hRj7Ewgiq+n3t70BnahwxDjShW3Hq2Vdi0pj8543FrR+eg2CYTU/2dJ32ET1UwCZ7W0apWpGaj3Ocb0FtuMzIXbnFm+tCCPfRuoPf1fEQ5yglsUSVFh+/Y8Q9r/VETtxy9H62g95r5gzyoI0Rw9PydivCPB7qHweB0WYOFGUACjblrf4Wb8Jc4fNzeP8vl4gUr6AniU7LLgNWRZit2p/v7SAzWVMjcFYtEeRbT04VrShzzFPAW3s46H/Sts1ivADIgmOM9/3ibCi3iOQNCOifC3w8ivX7w9jrbreibFkaRgOoiJf+IWdK7FmHthPzv78/IWh+4+T0VunbxrHXseaaGYFxc58KlvP3E/FnobBPGdQLDM04GAlCI8vtLiZxwQmZzHQNPCeHfQc9Ug10skdiUpCrP+oR3TFFPPxR3+fUZR3Pb19tVKuSCdGmdCAQ2f4mLZKeaTRy2cwEH7xc/Kx0By8/P1ijuOI53xQtNT5zHNOSSUKFIeNM9KF2+t7P8Dr3EH0NvNGHUAAAAldEVYdGRhdGU6Y3JlYXRlADIwMjUtMDQtMjFUMTA6MjA6MDMrMDA6MDAgot+sAAAAJXRFWHRkYXRlOm1vZGlmeQAyMDI1LTA0LTIxVDEwOjIwOjAzKzAwOjAwUf9nEAAAAB50RVh0aWNjOmNvcHlyaWdodABHb29nbGUgSW5jLiAyMDE2rAszOAAAABR0RVh0aWNjOmRlc2NyaXB0aW9uAHNSR0K6kHMHAAAAFXRFWHRpY2M6bWFudWZhY3R1cmVyAHNSR0Iq8ipvAAAADnRFWHRpY2M6bW9kZWwAc1JHQltgSUMAAAAASUVORK5CYII=;strokeWidth=5;imageBorder=#99479B;" vertex="1" parent="1">
          <mxGeometry x="633" y="584" width="85" height="85" as="geometry" />
        </mxCell>
        <mxCell id="fkhzhb3UsODcdzvoW7---9" value="" style="shape=image;verticalLabelPosition=bottom;labelBackgroundColor=default;verticalAlign=top;aspect=fixed;imageAspect=0;image=data:image/png,iVBORw0KGgoAAAANSUhEUgAAAFUAAABVCAIAAAC3lz8NAAABAGlDQ1BpY2MAABiVY2BgPMEABCwGDAy5eSVFQe5OChGRUQrsDxgYgRAMEpOLCxhwA6Cqb9cgai/r4lGHC3CmpBYnA+kPQKxSBLQcaKQIkC2SDmFrgNhJELYNiF1eUlACZAeA2EUhQc5AdgqQrZGOxE5CYicXFIHU9wDZNrk5pckIdzPwpOaFBgNpDiCWYShmCGJwZ3AC+R+iJH8RA4PFVwYG5gkIsaSZDAzbWxkYJG4hxFQWMDDwtzAwbDuPEEOESUFiUSJYiAWImdLSGBg+LWdg4I1kYBC+wMDAFQ0LCBxuUwC7zZ0hHwjTGXIYUoEingx5DMkMekCWEYMBgyGDGQCm1j8/yRb+6wAAACBjSFJNAAB6JgAAgIQAAPoAAACA6AAAdTAAAOpgAAA6mAAAF3CculE8AAAABmJLR0QA/wD/AP+gvaeTAAAACW9GRnMAAACqAAAAqgA2RdAlAAAAB3RJTUUH6QQVChQD1ejivgAAAAl2cEFnAAAA/wAAAP8AYjLrtwAAFBBJREFUeNrVfO2OJElynJlFVM/MUns83oEUjyQIQTz94jPxF99FL6cHEHCAJIBHcUHyDkdCq53r7gw3/fD4yqrqme4ZLgEFGoXqrMz48PBwtzD3SP7Xv/0bYZYgXPxENCH6NStQGh+enmRcAsXoTxAhI45GwBD69Shu5NNPf/JBeBYOOgCYgkUcH/AkPq0mAaNemv7653/57pChAPtvdCMvl58ECRjnUvI2xn6R/PjD978WPwazUdAoxlPBP+vpSSju9ZgIoo6G4K0iGSBoADAgwCbAgIw6xwln/2fXon8yAAMBBB1ZEdEACAb7RQ8pAgArHaPm3if3nwIo+HFKFUCHCcBBCBEAc8wMGiDgFL/BgCMIGXQIjVtdhsa/bYxLXZpAsAt6DpFIoQ9pnubR46J63bflPPOn69c/uX/eqJGAnB8Hw0QAZg40lSSACGZXYrQaQICN8yLUx2UBCAggLLmLAKZiykq0kJNr4cUSS6F+tFKvZGZGgyAQtnuXbQSzw7GJLICDzmXfF78p5g2u/aI1p1EWnepVgYCDCCG1SLvye8qKXzp4jonmfe3p4393CIigxgypBIQgRJe0goFqCA2BMAIWEcJBGGhGCzRCJmCm7RSfCRFPYiOOMc8CD6IBBxEGQBMojuKjqTUHrDQ1kcYCAR7yndER1M0YC6NGE1sMwckg0IxLHMgVnSIGYNQ/+/Dz1LFg18Y//unPhbRYgW4a8yeOLxgLBYfif/32757KdBYEIUDG+8vvixtxAE2pPESx2Y5t4TjVprr+0+9+XVsBRAMMZyuu7+q/wnWunlxTNH76B9/GMC69kyDxw1/84X+Q1BgpFxnBeC74o8uHxxq7cjSivnsuaWAj5wd4d9Rloryr31qNHCqlGsVPBW0Zc4Z8iE0g2OQD7J1P80g0ATk/chCQK3GE1BCMIs7pyQcb97VBlBANIorTEvcJNSVEdVMcVGCMKugmVEdEd3P5SAEq+xxEGSqkbe3cWVaf+WXWkZ5jaDG2H9Plf3UZCGW3oAGEMa1Vl9+0Jh5zWMbdkruLynXC17X9tn6uLurzt78g+2XO/Jrb75S7N9YcPC0TKQveMzbAHdks3UN8Zmxp/14rXXfoxflQ2kqYWUVsNV1rQZ/57DI/I6Calb1iXl4qEw7cXOmX4vPS+aQsgJAVX6SZ++CndmtYTRO1MRHLELavH5tFfrkRXpnJ9FuEPeDw3dre7NsHaJ6SxRk+dv3lmNEOPYeq6ryIaNSOYOeO461ipoEDaJvMcsIPoILHEEfrtaddX/5vPMKESX0NAgOSjX81nMFcdDuUPvUohx1rWAKmpyhp+Qe8ro+Oud7yBxbVtlW2OnlWpi4vXh7k6lUFKFOQ4xlo3jyoLRgqKKFpkwkIknVRIVVY0v8DxSRZCpgTVwBYYF/VHz9+TFdF5+4TJio+PvzsPVnTz5X8lWbBhwtK6ZpShl7UxrXVW3r06iIHEWA729ec3raUfwkHt0t5gd3bJcbAmPBpDrsm8+4jkbigjV85alagsBu7MpZLbQLA4aMp+tSnrfbp2a+uAwd4bH4uB5zae9bzDlPLdmFuDe4Ilzu86UPd1jzdYSpAhLlg8FzqiaQ4OseBbrjddrWI+Mk92b352Xb7GwWwL5ZPuSD5SuXitgn6Th3ydSP570mUc+N7ZfmGmdjne6FM3rQknzdo98sLi8d7fa+BQCGfh7GB1iHf2ZZ3beTaqr6iHUMagtz//k3LBv7epFl7L29Ii9d28uzdgGvRVBqAiruVum7phWZeQqOfFMEkSL5IwLxF+y+W5PYwsEC/st8wbqv/5+FU66X58fLkaMn5TCvCEG1aMgccTp3Uw/E+B2au1SUHHDKI3HJrTEQjmuBBGyViEc2kUrgJXRanyvR99/r+0qwYNVA9yMvcDjWEASMCGowLTNb/8f4xAWa2+M3x+Pvf/uZ9+2gGeGTnStTayi//7Je1obTK7jAjFBfoP//Rf5nc6a5cZYD208zo+bvf/E/rcdhw0CiAhMIqqJwrEUgUQsW7beJgI5akhgzqb377f8XHWNgHZhzyIx6fy+FJq5qA6vcPCC6RtxLfxu+lj+ZhRk7rpT0Ql9AT4oGQIEZYMCyrHIO0uJqNZCrO11tRCTWejekgE17Q5mU4cswvrQEagowIFHhYNiLgwBGoMMwIhCFQcK35zOBPspoGPoFtQBcBByA56BCChhDhKIH40j3zUhlj8K5JqJ9MVAw1ermmN3rryeIayT5qggE6ufBYSrLkupoSkMQBTfV1++XlyiBPcBhEEMZrndkr5LJc5oDYUSeQBDY9dC7DQqf6PcAXoMIFrqNHZSNUvnj007zdEcFrn91EeRVFYLLPIxRhh3O3mpMHVDBi6vlSePUnu2npoLARJKC0ak4386Yt4/AFSvC6607/7t7Xr5Br2gsu0hlt/YSmAQqBqE1tsBORyInLaE/nBDAagzLxhNjJligziPDK3lkI5VzlNrBDUXPH7RpC4fCR20Sj37SP+fSlKDq1A0AOW4TYAxCarFK9tDCDnYZWdSs+So+IpalTOvHQY0OD2KwklXMwMunXx+dES1GCuQ0SgBIJvzMYd4qX6c3Gheid0aCpDdSkh9GjNUvN689ii9sZHwLvFJd6rPrS7Bt//0+/SpSiHf/Ewy//41+r1dtFwMXerVLAb7/5Q7DtVi3Hfzw+5Rck9OqPq6IQwiA/gHT/a2+DMxP0/GR25KYgzDBbHOFLsYON1mSFWR+anfy8BbQarTjooGENUoMtiIajB3KTMGcAqIf9thCVStQrEJwOtUShg90MlY0yeIsK9Krr3G7QGY4MWDID0ogMAapNR5ccY2LYnOSI6LqSO2+mmsaICQcAxRFvGT8NOf0u9pBONtqt47a8udzTfSmYi7OOHmIxRnxVRlAYyNoZ1t5EX4GERLMsEk4Wuq2LoE0haQbAwzx/ES0r2iY0aqFDVgMATb09QbI3lavI8pyetK+nPkfFJAyX0NM/dSdvutM4PnEE/cG4fAW3vSQye34duB8Rx3s7Ub1c2zU1nI83AIyV2gLVlz1t1zyagATYNsG5y+sbQb3Ii3+ubHCsk8SnbApeX/niskXAY890oVFh6ezwgSP4pL6UcpcWYIA9ItwhSkKor8xNOLOjxlLXsUu7K+JXatxtVAIbJSsw6vv2PO8z9RDPQlNPdQEIOSKTcRZlPVMABLbQYysnMQiARZKdNF/d1VpK05PMqZG8uQV3rjY2C3dqZWVJwac4l7DHi5w2stCNlinGyHoC6rdP32cqgomACp4voMbmHLDJkulQKgPrFszAu46//91/n2B5y/NQ1UN+UWgz9fzLP/5PJbRm+HMkUpmYIKU0ALJGxFnbdVr/8o+/2cBizp0QpfIdLHf/2iesvm/Pcke+jRKOcps8NFOZbjpqHq20DHSNwhKiq2hEFRjSikZHHSllr+XwYttgyB2hh5Hmh+4U+lIBqyeR9O60DvsMoYYDa7Y6dJd6LRyiPnUtgR5XP86ZcuhpH7tuwhy45RwX+NLyGivbRTAyPzDyt7aMsFjgOvHL1EJ9gvm9Dm9+pqvbgr9hvq1/E6N+6ynP12eqysyju59KVTFpw7uh8hdHPr4TwOUFKdz2bgUzP11eCasG4EMMP1Uy3bJHigbPsaD0gr4DVtDOzD92ZMgR6lDf3vXuasMhCyC+uD/r6U3XUvGeD/Ojlnut7GyyBaseJWaINkZglL7WWwEcSGH71Mgoi/P9M559hleci3N43Bc8+a4ge1c48cj594HpM4ulXxrZAtlEY98aLRQPoF5a4sHuveiolM5JRYnGSQ4qYutKyu20cubSSKujm4XzI+bzjukdO1wOXssFTlBTl/+z6s+WscxHEoN0hJDrsAAzRjCyQJf4mUzxXgdIZ+jh6FvRfIoAVFWqy0nDklzzlRKdBHprm5KibWc7qMC33/5EcX6cBo4fHr9HNweLsKkXt5l4bSKczFTGF7KbExtr/y8YMkJNQFwbY42kIPVA+NSCL85nfV2JkcW1kDuyD+mSK3zswq2NAcXJWLioi3LXXp157mELvCfzTQiYYCKG7mEbuW/ns//e3dC1RXjJK0/HvTU99yajQ5PUXYzuDj1VO3sxbhrGY6XDjfFw60rSJG8haXsr/y6Wf6nblSh3k9yz0mt2awhsrXeeDjbclmsLvE3F1UVcmUBl6qYXBXS28Nmxtw56B/yY49ww+56JsqJ1O/0+p8e3qzS2qbtH+F0leW4r8PT5I6SX3ike6fm3ySjXE1pHYG9lgZ7ywaZIGSvpmUs1zkp2MhALXFudgtg3coM+xyfQ3lq9N9dxMqVrfFe5VJ6D31NG1la1yj3knmQOQ8I1pcWeC1DzRMwpPsmDTdSxK0XueclBlu2p+PdX1DWyzpkglmGeAlyfY9t/2nxZeTLlJAVkNHouw7JSBT7oPbCRjX74iz/5K8bDbRfJcmf8ev71P/+qlcerkQhQ2hGeJpjEd9/979oextGSVdcvfvHnpzkeEQS7x9EzTr993kFXIvj+G2VgGuG1F/Q39d20dMFIFFjLmYqGS2kPjHe3c8R7gb5WVKKCM8C2vMm4/bQR4Kdcxom0XEbVpy8vfc75N9AIM8A9ZZRBavWG6eDPobuvimR/2hfupwNWp+NLzf3L7Wx5r6tcR5np1B6u8feA7H73/6dlMJd96Fd5bcN20pI1x/+VY34lEEqLuLIGBsTaSNJbnP8V/bkiGlb0wkpIV+d9wS/jZeINKPCNhV83+JvaYhdHCuI6dP9lwQxdNXkyS/c0ayW2d2+H5ap2HrmnwHxRudoC9k+6m+rMPKjTLo0E+zcvhLfO0me17DRLPue3flEhINtsdPAEqFR/8ad/PuURkHzBcb8W23cvllJYyivvB9DaMyLOFLgA/ON3/5D94G4NiD/5xZ++bbQ74sb0CPHhXRlpz4HhYE/2X/8+8Pwzvf/Uv2+ohKdt9VD+J43dTe7xr+3/F7V3awL1wvdZfLXOZ9NcdWKEMeINlvmUVjGjWK2n4dLA08iK6XHdrxX228pboM4b8rxP5dr+z4QdOe1p9COSjooR2PqyA2a9vVcmK5zw5RaZOPU7o72DbvmyXnEjoG7FOlIsTvN/dTbsleWt/vLT3uVuqv+bXTK9Q6zr4biDIEXZ8d9XFfY0s7N6n7cl2z9xFfnGiX1ZnZbPL5h4VZkj31NVqJlclCH1kCm41H/95uMQdB6SOtQgV+x00eiTfM1PhR6P+mg9ndhLZ6ahx8HvAbqdJi06oWLlYfmwZVpHwlL0ZCU1tiAyLnWX0DvNamcCIvTcU8DxPFiwaHhGJXhoHs80YNX/1n41061oXZreHyrBxnWKogSKUZpLYO6Xx6/t3btWfORAG2GIVrHePZcipaSDLUcVYCuXOJ95UkjGEeV0vmIo1Hf/8HeZpPLJ8ffV3spT+YPWytN4sYCACIbp5x8iGNY8xigA9XffPM4j8SX00PD8jDw/Z6LlywwCl0A9XKMfpAyoKTJjg42X6Bv7Qwmi5FaqoOjpbCYiU86pYMn40sggRcgwaZZkOk7EAYbqrpiR9mHPNWUAEXboqel5qkUwDBwFj4ieU77FiJeei2hCM0IBw0BTv4sjOrriH4TGedBQaTMDb7gXj2YENEVKE3GCWFtuK3lzOHecR1ZuVG+nfKUn7ao0yI/dmkTPaPDyJlz3TwH2rjetwb/s1IL9/EB8yl/Q8/Renp0Yl8lttNoAL3uWHT5/rODeDadDTp86V9pvr/PWKfXYwodTWJm1sHNS4y1AuXAwdTarkqM4+osqBl9cDMV9R3vTw5d2VXvq+dX960twRdmvp/D8mqcqz7cbpdGe7zZSIPKNNf29NSt+FMmaRyYIjAEMjV17m8wRC1NEdDO+kdYj7xxbAs3IQVgh+JEpnxKPsUm9soZ99jxOyI9XZrFnfnN+1x4gqjVOC+kSqKFiINRjieN9I8psvxUUWypH9vlKp6DI9R/9CXieZMnEG6Gb5cEBSIhgmaFUQd06IgI9DXnXzanpJ0dCtZ71PskFBbIb2acegx7pSaxPBd50LT3cpU3n0XOhCcneAzvBngZsIYA2TKaRCq+nkjgDsI4CIJpRwaJAJP0cLXm4FAGPQE89yLfXBMNWsWNugfrCHIGdPc8LAKJ14W6T1LGH8v7FDhow6r9ctt2b8W3ow+Pz5VlY9yDyIASVetiWRUUTcKGJ4rSduTRwCOVyYVMG1Bt7F9TE79vSWABsdtCyKbt/7+y97Xg6uL8vYM55eO1y16mpaE8/fAxNDsMejpyXOtJ8eh1h1EPT+AlWIxX14cisyz1aGlTdXoqXifAyoklNUQLON/sgMifv2BOPBTOUwShtJ0j7+8IgOBeLILOh59WEIPNoeUx5vSwtvZXHacA8zxdwRyU+kStjL4QSmFaspMWqJbDH9kvkURwpMmg3BE9onwSmN+2x9PGCosh1XtL/D8t6n8NjbCEzJSLegjnqr14DoPkaoxV3NDu/NN7NlvqSaIc3SQQJwoSd4HMAquW0S0l6SDqHbmNg9RE2GJWub1vwLz+NfvSSnfFetqeb8z6kmYqW5q14rfB8H9/Yq8a8bqyY1bQF0df/IPIQY0+Qe4rdbC/3MfJ8Rt971XeR9u45xxMlIqKMAfeKZBSjumvTbLcESn//W4pb+nw6zMzFG+sOOJECdyLIzYwEpxNuBlFOEdrez12Q+WpGDBEOreIS/C6Iz70pYGaXxiDIDHp798RQsXW2V1fQ6Bb2cvv1SgcxXOMVkTNc5n1B1zn4/gUwo6lju+tM6O3kQH87HLrZK4HcqQZpQ0Yz2kA1M89jni/cg9bn8ZwyOXb8P5V0dmcs6a2e6RoJ3Bn0+QLx/wBj0RWNBbOOzAAAACV0RVh0ZGF0ZTpjcmVhdGUAMjAyNS0wNC0yMVQxMDoyMDowMyswMDowMCCi36wAAAAldEVYdGRhdGU6bW9kaWZ5ADIwMjUtMDQtMjFUMTA6MjA6MDMrMDA6MDBR/2cQAAAAHnRFWHRpY2M6Y29weXJpZ2h0AEdvb2dsZSBJbmMuIDIwMTasCzM4AAAAFHRFWHRpY2M6ZGVzY3JpcHRpb24Ac1JHQrqQcwcAAAAVdEVYdGljYzptYW51ZmFjdHVyZXIAc1JHQiryKm8AAAAOdEVYdGljYzptb2RlbABzUkdCW2BJQwAAAABJRU5ErkJggg==;strokeWidth=5;imageBorder=#99479B;" vertex="1" parent="1">
          <mxGeometry x="725" y="584" width="85" height="85" as="geometry" />
        </mxCell>
        <mxCell id="fkhzhb3UsODcdzvoW7---22" value="" style="shape=curlyBracket;whiteSpace=wrap;html=1;rounded=1;flipH=1;labelPosition=right;verticalLabelPosition=middle;align=left;verticalAlign=middle;rotation=45;direction=west;strokeWidth=4;strokeColor=#FFFFFF;" vertex="1" parent="1">
          <mxGeometry x="570" y="230" width="20" height="200" as="geometry" />
        </mxCell>
        <mxCell id="fkhzhb3UsODcdzvoW7---25" value="&lt;font style=&quot;font-size: 25px; color: rgb(255, 255, 255);&quot;&gt;$$C_z = 768$$&lt;/font&gt;" style="text;html=1;align=center;verticalAlign=middle;whiteSpace=wrap;rounded=0;" vertex="1" parent="1">
          <mxGeometry x="477" y="280" width="60" height="30" as="geometry" />
        </mxCell>
        <mxCell id="fkhzhb3UsODcdzvoW7---27" value="" style="shape=curlyBracket;whiteSpace=wrap;html=1;rounded=1;flipH=1;labelPosition=right;verticalLabelPosition=middle;align=left;verticalAlign=middle;rotation=45;direction=west;strokeWidth=4;size=0.5;strokeColor=#FFFFFF;" vertex="1" parent="1">
          <mxGeometry x="1230" y="346.76" width="20" height="68.03" as="geometry" />
        </mxCell>
        <mxCell id="fkhzhb3UsODcdzvoW7---31" value="&lt;font style=&quot;font-size: 33px; color: rgb(255, 255, 255);&quot;&gt;$$\texttt{DINOv2}$$&lt;/font&gt;" style="text;html=1;align=center;verticalAlign=middle;whiteSpace=wrap;rounded=0;" vertex="1" parent="1">
          <mxGeometry x="665" y="690" width="60" height="30" as="geometry" />
        </mxCell>
        <mxCell id="fkhzhb3UsODcdzvoW7---44" value="" style="shape=image;verticalLabelPosition=bottom;labelBackgroundColor=default;verticalAlign=top;aspect=fixed;imageAspect=0;image=data:image/png,iVBORw0KGgoAAAANSUhEUgAAAFUAAABVCAIAAAC3lz8NAAABAGlDQ1BpY2MAABiVY2BgPMEABCwGDAy5eSVFQe5OChGRUQrsDxgYgRAMEpOLCxhwA6Cqb9cgai/r4lGHC3CmpBYnA+kPQKxSBLQcaKQIkC2SDmFrgNhJELYNiF1eUlACZAeA2EUhQc5AdgqQrZGOxE5CYicXFIHU9wDZNrk5pckIdzPwpOaFBgNpDiCWYShmCGJwZ3AC+R+iJH8RA4PFVwYG5gkIsaSZDAzbWxkYJG4hxFQWMDDwtzAwbDuPEEOESUFiUSJYiAWImdLSGBg+LWdg4I1kYBC+wMDAFQ0LCBxuUwC7zZ0hHwjTGXIYUoEingx5DMkMekCWEYMBgyGDGQCm1j8/yRb+6wAAACBjSFJNAAB6JgAAgIQAAPoAAACA6AAAdTAAAOpgAAA6mAAAF3CculE8AAAABmJLR0QA/wD/AP+gvaeTAAAAB3RJTUUH6QQVChQD1ejivgAAAAl2cEFnAAAA/wAAAP8AYjLrtwAAFM5JREFUeNrNfNuOHDm23VqbzCpJPT1jY84YGPgCw4Dh3/In+Kf8OX6xX45tjIHzYMzBdPeou9UqqSqDa/lhkwxGVpZUpelpNyGksiLjQm5u7svai8H/+l/+M44tDAAkAdCHn4r1KmqxAAMglFcAwJbnBygagEDDLLqBud8cCKEYRSgGHWHkzwY2vn71D//hjNe40uLxoVu9+zdvPp78AT61ANBAFdW7k/779/90d3JRAaRoBoTT+9PpH88f3596f8xrN/1ke+L8ZYRwrAfXX566yCnOL2khBhBmwGGGkfIM0YD6NECgAjltWq+vTw4JVzsuABq/5JWpIyKACAQgOEAAouNCBDJIOA/uFy53f0kzwygNJ+PGlIgwG0NsSPUkAIFb7yUDEFB8HMLP2wJILYirk++xbPRJ7XhmE6FADt5ACxghMKyUJ4EwaNJI9VhbPXRhWe58pJH8Ah31k/IVo7iLYz/9kyPdhbscNJt4hmUE2AC2cUr0Ptf+lwtcgfMci5m/0TCvjU9Ifd4/ASpksE8hHYACkeOguwoTgvsd5sO6DhrA5Tx8caNRLDNgDYUKM6ddudCU1gEhQjxIvA7zEICOfSIoGIs9B70RJDSXauQIu7XQNKgxhhru8yogrQLdZyYWceRFo2PTDjxWn4MW0DgJNwqBZogSoyGAKFbYLddFXx1sIYXE/bYV2I6PXAQLzHkenw63gOh1pQiuxQBizv8uAogOA2VKBCjqZpoXC/KF5sCMM28Z6uYGaEBjgaNIJ22F3cqIhGNrfrXpvM4/w7Ov4/EGUKI86o+K/bs3r6dpCQgOOoDS7lt6dzinUQDo0APp3RDSCJOBEyvdhTLNRInbGgUsx1EGAGmdoS4zsX57FnHKKYnuUDbE/b//4x8Rd/lcdq+od6fXd9/++OPNHl/U3egw/dZ4DNk92aIagY3YZvwzPCpoCBqaLDhiXEUTCHjaj4P+d7nPLrzQKJix8YaIsEinNAUEPp5k4pxGJ21BsR4ibptut2X+e0e7nwT2YbCPnIvgbVqBNl3LmGcQjm7zutoDiIy8ICBi2L+YIljG/KmB88mwgEZtURyEYiirCJqEirUNa9cIWAq1kJYb1qnby+dy5LD+0X1tNxnZ9YAFMmygrAYsDFCBAmefXja3z2ycEUBXxIDhQBFYRKAxwkFDuTwXj0vv449H479sMdV7KMN1e+UY5vUZ4ZxX8xefisdyJvzY/2/mWdjCgG8EKboqpGUDAj71fMUl7zB98MXt4hnfPzOew1UOHSNcYBpkePlJ48hLm4dLzzu0QCOMIEQflO5qxFHXHnOfUXXdnoLvIrAY+xrfe5ExRnrw0DgjEGNpKyMTPDJyKYIlJtEea31+8CHcIFWRCJcMcvrdmGlPEAQBnMk08NkZCKjV2xLhASkz6mT3+egGDABqi2iv4Fdz2GOeKyS4ChHep1Fm23Whd6vbCpbYRdgdZEM5dRldrp1HR/LPBjbgDLQ+4EiTcD4XNNaNaAwUhNEQjShut63NCax/+M3pMH6aRlhvbl+lzzw8Ul+V7V9Rw39yjA149bqH2Y/sXAyrvw7mQifZF4Jjc0EX/dH7yEeVy9z23LZ3jR85DIkMSw9x/ub+DGastmXsHdZ29j+8+WrjaeIXtfoMwGjDwCiMsE8uhMo+fImABN2i/faKLo6g5WL4vqbJu4JcGFDmBT1jp1eHahzWjkCBZ/ADeB+5cqkuSeocYd6aFmcWXMyoUskUCAJUsfv/p9pLs/K/sT1+XFwTLOCAmStnBq6RSYgzJIN5MHvz1mkusSYSqVH0fNKjiIC/lCCoJ5/lGAZ7/XwsrDW46mcOIGAfPOBKdGvN+Z+f0AY/2wv+LWOH4KcFfZDLk/HC2n/uKyjMAM951TBLjovRjmQlOOMHBBDh+EyI8jOM/hMqpvFvW773rOgSQdzVhENSy0/zE6zpmXaJWRnS9rxlgUoub/T3bWukkLnGhtTMzNO6vBroFY/MhMzcR9S1mTF+yBBYcmDin5zO2YE9bFyyQcMUTPqLsdq/oTH9/IQxc2Q0H0wl2oMeA8BECwSR6WVmO2FmuGkOl0QAqAUhLiaUIFCM7QwaXpaiCUmnl6rAC63mtm3HCCLR23b34QdgA9uKDpnbme8dbWSWA+0BNrW2B6I9kDHi/bkp1z+EzP/Chz7SXYfCgMt6PFxfCtG8TFa+miYa2IANPKcs1gzOITGNW5//dHuZBcxUNxJEYQg2OdJBjvifj7tyQPJmfAb+3U3A8Nh770GDDRwiGDroicAsoVSfODYNLDSFMtJBCRHodqTOR4rrs5HrP5ZAVX/PmX+6af/Sld/oWUW3WAnypBH3wGE/b6XS/nEkQ4Hdw2cKBP5CPv/RgDsY0aPa55THevC+HlpDu8OY17zmmJBy4DaPr/wlG3d8fZmAOFaLmJjvRQlpAhsX1Z71yJrU1UvZcqQc7Onvc1Tp52saHYinUYAEDMKoMMCNA7OMCbQtMjlUGSgeVbre6EG7nneoI4DiiOE2CJsIUNgC9+kvLzvFMnswPmPkXk+3i/XVbVUCWDPIIXAyTjCBOlDprOds4QfZCWksvjoMtxV07HaBGyXGcAeq//GPv8vamIgJjMDx07vzIn6ZgKt8+/btP8M34zH74M7nhqWS1jNu6oxNq72+kNrxiHH79e/+tX2b0zCm5BbU1/U1IB3WJMH7P3/7j4j7RpsQM3kPke/oFiiKjNxEKNRYz7yBT70wDdWTzgDtG4Bgy1BAqFWt+5Xwohdb8b0mqLPoZ0lQuKdd3acKILbg7q+X3sdyfQwxdy99cRoQRgHgi6VI79eyq0AYQgKBQSKAxjDVGI2xsQo3gQIAbBUuQNDFXG/Pkeosdc5hh0OxnIa16xdyCSp2pepByGPZ8Rle5gkbJEBicyIc42Bk8sZeZStGo4qhgSnlsjQVwBRBAKQj1z9G8rxEBOKgNDy37XnY89vLwoxR3lR+rhlLjDIEoWLQnhZtDqr2lKhHgdGTCC/YpHkR89EXXcyMal64H9duzC/Pv/b9xU2E6WeSKEa5NYygoxittLpoTgLDyXAh4D2Wwm7VkHmXudg5mYFe65cWqznnJ2kCY2HvgHpYWJPrHX16fpujj1izta6uwzqMtUuTYPdNjuo45+migc3R8uwWyuTHBCgTYBhONQtF1vrHp7r5OWbHImyJvso9wqO/3R3NxcEnJ79rbs/KNCQYyT1riETZgZLchoYC10CoM6VQG2v3q4Z6dBjwybZxyvqvsMEGClzFB1OtCEBzIEuLQBvlfqBNAE2EZFPtwIADALotk5f/yT69cPJTBCWcOpvYDsxoxMZwRLIPQBl4KPWHm3JfaqiIcKjefbjFKMa6a0vItx/vAd0aFczEI8vDdrkHRwF5gYa0tTmf4z4w1XA+TnLEJxTcp80bpMenZP3/MgeTdA6XNEAUGMbmOJfYSjmDGyKWJfz2Jv7na759hU4WoGrjCQBce45IwRU42VV4DVcDwEOXNM/GyhHoq91Eiw07201dOZH15j0uBNR4wSlSRkp0fFHKEVRNYxTTz7o0sjGAgr2+5rtavn3Db94EVYodqNU850hyfYoCbZcWhNRHMgma3cfsvTS6AcsYaz/ebafkDsgc4tMDuK60IDG09Gp7IvsOOMA64Lk8ws4LZMbL6JU8Sqyw4QJUQwKqmJPgjjTlkDLbX/iZnSaFmZzFVH+To39aqz2JXpi7hR92fh98VvXE8fklJYZJN42Z/8NpAmP2c+A3zBgnGQGgaqdAmJiF3Y4QjwSz24YuQjgCoYPdWq6aCczQl5eP52XNy2LEMZRcOX3TOhdFMUJ7ra2kPgxsuMPj8ThXgek9HMekiPnyyNKFl8Z/XxQOdcVZ6qUUkhGSFUGDUFwDF2u4outipQ1oDnNYM2Oo6FDakZ06tJ9yqDEMq9tJG5+O0HaPcG31i0/+ZMr7qtEKjgfI5aqwaBQHKKP0exL17jSHlWl3EaJoa6VRAO4BgOcFkDkZ6TI6pAwGAajkmDuM2K39VuTdXy652pURAqAU948zAD9BDXFsjVWDXJhybIyHiHeneH+TpPCeyBTjp5vyEGysBM1CoP63b/40e5YJg4Cbhv/0h397ah9nD/s5er1t/xKj/l965wjg9NVx0vIC3v/w0z9Nezmj0aC27WFHHDxX1fnPf/3f2Eu6e2nyoSkZ7hhWMyD59sP2RviqdJxFKanvavyJD3+taEm1SJqscEf/6dsf359qshxo1I8nDc+cxkMmHE1xD28Y0X4fv4vxG/jNcRauqfT4j67EOadnoC5dR8KZEWgMPgAp7vMPc4IdkUNzBJxxd6fk2iFU+xZmJu8ONOIh9O7kt6+UhYAUYRXOpT58rELpVp9RJxtxbVxKwMntAwDrC6KTOWlP1mp9oGHFgJ6zrrcziVKreOhtkp8hFQetFAKJsGKaA2p63wEQHUR+cBKrkVy4AH9jm0Dt+Nf9wjWJcI8LsCZ3neH36PSu3vv5YXFQLCc986I/e/6/FjxmhhsL5wmUn6gRPa8RuYB2EEFPnDeF3hdz+AILA9Apg8RSBYamq/fTPLoLmCAHPvYGHImRI2EYCrAvhi8TwVPtMen0+PMy+GS4w7nhpycUmcMOtlt3EymCOcyp7TTgyI0gGIpdHwvY3P/pELF+SX7ivaaZCYJ7rJKVTCQm3zLR9h5zXJBcwrRQPaD3xkLDjC1CHltJZoWbMGMSWZYRjhivB8vs6cFaPxOlScik9nIUEHw2NbGPvsK3x0QiJ2KDCTcQC9slUf3zMLQx7F80FgFiSfs/zz6zvL+J8+BUT/Ljuxvc1fhQk6/QZ7EYG+tkRCmdwrltQmLmqVRSiGrv7z9urfUAazyR2025EOhnxn/6zVf/7pgF9D1p3739y9iqo13buT1s32MvWqfaW8BZaIPiNsd/V+LPtd3VlmZ7dvW7E/7X/Y9/LfORAaAIQHy4f8gYN4VSR+jYPyeRNrWoxYL8GYXyy0xAco9XeWWFq8G3cDuIxsnaiKzPg+67WlDFIlAMo0xnaeMh6rsb/nQzA9pUr/jpBu8Rd3VNhxiRyH2sxbLanXO38PvwcuY72jcERKLgC9qBROdexm7gBuxoQpgtgSYOgkrf1Uh1v1zcJ2ygKwwxNrKVneoWSboeuy0mmyDBX3kHcrHw/49quyC/2N3Bl27XmztLdt7SsPwTVgDAsX1o2XSy9wHMtHW6dhEiW3Rkae+bZ0p2icfP6oZGdaROi/4pVG6vrn9JPm8M1sgB/84OLdRjdA7rDN2uiXtHNTAz7p0nppgY3LLXxAMFGegIOx2MSyTEhX7zc1X+1fvwKNpb6yv9HGAGoGMuaMXnehJLYt/Dtrlh7yDr41VjmJXHjQFa/gzvyQO6Frx0/mMyl3eAyDEILDkJ43ufBoX3vVKCiAgoQEORS2AU88Ml7Cr1sr8DYLE4Zn7uXHyq1aLVpGeZ2En7bgyt6+JKJeuZbQRo/WaRpYQkWvaS/jiT7TXiNB6Yy7UqSgMfWJwh0LDWH2p9f/KPtz1SNHKTb3yooXP0/fWAxga86Q6mRauv62rRe803Ct99uCuXXGjE9vG3yo2mj4bIq57BvkiiehZ0+u3Xf1jvPO6iwLsJHBmRWxc/lvjLux/uXcRo7Cuc0nfE/3j4/tuSbhIZ7dLRGn98uG/3CPUAPwe8GQUQ7QE01/Aa4CcO1PvUOEqdI+T+mfivab2uuR4DatO4dQyaRMQZHx8iEroamWz5UPAuyttX6Dw3B8BQBNC2LouUa9m3OI/dFUTyv3+NbS0CFl2xx53PtAs0jona9TZc+B7E//L0ts+26DX7SdfvYHSYXHZvL7ywo/POQov3EGg/CFjJhRmyOCjhIEldEfYv1pbNZly3B2ogWUvwMN+g8JlZfBRH7B6h4tfU9ux1pq6Pxr+WGI5FiouA4imhzNATO/91bfGzhkAvbY0wE8PrO5Bz/bfAVvJ7jxdL30GfKRqAGMv6s4t6B8V+XfM/QZcdFQYd+HjCT8T3tyjqKyOl88MrPHQu2s7zKMcbXkxk7C9viNz/BVyb7Xz/Tzw6aNu+qhvXFaa16yHjx48fHx8U8fHuQzJOpokS4hvF/4m7b04EqoFeU4c+1Hintm2xUsCtdJpk7mYYuz8JEPr6zRt2mg3xa5t/YJaSO4c/07v7incFP7wa3P5AI0BsxMOGF3mxvk9/eIf6/HV++a6Kv0Mz+oAzCJvoSwqlTeaFIygYHCktDphntk8IRUB/Q8Ovy//n4m8MYX1lRoRDYONyUMG+0T6OgC/m5tnDe5cO7IM9kTvofzzh/39hXzDwn6TGjKrm0HksgPdktV0zPsvW3SWwmQXtRE1+XfN/tbFjGAcASpdR4DPvlYye3DIn8Zr9+/+27eFaW/cwaEEf+1vOXjZ4XywKGHWL3QzM3W7FiIUCMntQNBiRe9PgyGhhhHbOp6nOr8yn5SgcJreyNQ7rO1Dg+xLfv8J9QeIcSaKvih9veXeKcyR1dU8BGklHCByJzXjbC8LbeO0NnMytzsc57WAMovLrglHwpUuSp2qL37/+/anlAok909KbH9666fxo/Prw/v3YOdrrCOEQt+9/+gtm5M4NUFHdePvT6Tcbb0Oll0O40fHjTf1TnH+sdexhYzFuWrxl/F+c3zbcNIbC+VYDIIxa641DA7lOnkuxfvf7f1Gsoj4x8wVp//ztd1lHA0CzbqGUUOfPOQQ0RlEU1ZTmeEuh7AizLczfIYJRkceBz+U4O+7Fc69z8EzILBtxLq/u40SXUfA2rbsbvT3h7Ss00kCLKMLtFu9ucRd4KKSjAC3CiEZUoYJldENUWMUIt5PyuwKGJaJRYh3ldo75X3e+XMKST62jXkI/YMvX9l41QNwcD8qgnVvuRmixtVALUZ4EHnaINusOMYnZmeHRKHZYgbAl9kqIyXZE6y9sx1ICvPI+vs5zWl9INI3N/JJ4y/AhPSd9TizEDm+6b+DtlU+B7rz1pf4zS0+TLDnTAVMd5+0WpBf5x2OkWLFZd3rf+HkUP67yv6YgHv22MDYH93ayAI8nPpr5nTtQLGDrFO3koQmlT876fo29Mrs7OSAt4RC9wkEgoDbkK+67sfo71a5Ng5ki2Pk22f4fhenq4zFFOWwAAAAldEVYdGRhdGU6Y3JlYXRlADIwMjUtMDQtMjFUMTA6MjA6MDMrMDA6MDAgot+sAAAAJXRFWHRkYXRlOm1vZGlmeQAyMDI1LTA0LTIxVDEwOjIwOjAzKzAwOjAwUf9nEAAAAB50RVh0aWNjOmNvcHlyaWdodABHb29nbGUgSW5jLiAyMDE2rAszOAAAABR0RVh0aWNjOmRlc2NyaXB0aW9uAHNSR0K6kHMHAAAAFXRFWHRpY2M6bWFudWZhY3R1cmVyAHNSR0Iq8ipvAAAADnRFWHRpY2M6bW9kZWwAc1JHQltgSUMAAAAASUVORK5CYII=;strokeWidth=5;imageBorder=#99479B;" vertex="1" parent="1">
          <mxGeometry x="1240" y="401" width="85" height="85" as="geometry" />
        </mxCell>
        <mxCell id="fkhzhb3UsODcdzvoW7---45" value="" style="shape=image;verticalLabelPosition=bottom;labelBackgroundColor=default;verticalAlign=top;aspect=fixed;imageAspect=0;image=data:image/png,iVBORw0KGgoAAAANSUhEUgAAAFUAAABVCAIAAAC3lz8NAAABAGlDQ1BpY2MAABiVY2BgPMEABCwGDAy5eSVFQe5OChGRUQrsDxgYgRAMEpOLCxhwA6Cqb9cgai/r4lGHC3CmpBYnA+kPQKxSBLQcaKQIkC2SDmFrgNhJELYNiF1eUlACZAeA2EUhQc5AdgqQrZGOxE5CYicXFIHU9wDZNrk5pckIdzPwpOaFBgNpDiCWYShmCGJwZ3AC+R+iJH8RA4PFVwYG5gkIsaSZDAzbWxkYJG4hxFQWMDDwtzAwbDuPEEOESUFiUSJYiAWImdLSGBg+LWdg4I1kYBC+wMDAFQ0LCBxuUwC7zZ0hHwjTGXIYUoEingx5DMkMekCWEYMBgyGDGQCm1j8/yRb+6wAAACBjSFJNAAB6JgAAgIQAAPoAAACA6AAAdTAAAOpgAAA6mAAAF3CculE8AAAABmJLR0QA/wD/AP+gvaeTAAAACW9GRnMAAABVAAAAAACGaS+KAAAAB3RJTUUH6QQVChQD1ejivgAAAAl2cEFnAAAA/wAAAP8AYjLrtwAAF+lJREFUeNrVXE2PJElSfc/cM7N6umeXRVrB8nECgbRc+E/ckTgi/iInxIE9LFoJaQHNMLM93V1dlRluj4OZf0RmVk83cCHUk5MVGRnhbmZu9uyZefLv/uFvHADQWgMgYrwC+Mn58staf3I+jzMAikDBwCKYQOV5ERQOKiY4HYDoAIobZXCarIgAnIpPN72pX//FhjfjJuMgCcD25w96/JOvLgd9AAyAUB1w2sX47998u5k1mgihAAAM2OgbuBW3GLkIpzfT4/bUbDP8PzvuD/hKTJQDYOiGHp/a8tH4Sv1fD8jB9c8vFqhpf4P/nRQE5PzkFECYwyDKuVzW4CGX6xuFHa6vn3nktfTPuzqW2f/E+hxQ/rv5Op1dscypyuCcf+bj8w29DmEOyY1pM9f5Cwc9Jq1PXPDjx53brxO4Jzrz8a1czxjKFeb7GCEFzpnbsI+YXfX13Dr4z1C+uJu9Mx7jn5p86Jye3vLLD1+fSYjdW9MB68/tAqKLgOjMRwvmdGdcYFWUp9ik+4976STvyWmvNgq6q8hV5mb3FwLvqkGEllE5DHDRRDm9+yND17nD8kwfSCMEFwxCfdj62XZnCMcG1k9M5DZq6VrzLyo5RfBFRuAsH4ud4/uCM9dKIx7Lg4jGKUrKTG7cKAcsJ0CJ5twcBbD6p8fXMYKzzrgJJKdqJ1eEYvZ4TpC7yfcJE5C5OxSLUPlEJ4Xt3ExWvKAvUdE3nA6v3PdWFuPxe+a4Ff7qX/+jmQ+TSfBicFmznVOkWLW99o9V574iut2xvToeCNWHS54u2x1tVcHKPQdB9el710z+X+S1WdC7q78yIftSDyDYk706l34jEZRAUU1o1iWuxE4H4YgN8iXWWEQEpxWhhkodidjWhbgb3M6qNU+Gruan6w385sx6zbzhJ6Rg9z4SIYDoDk/mdIHXaiIgNQNlY/USkKwIUIFYw2nfPiXGZDdGuGjw2iZEQA7whZByK4WXBPSpb41oZ+pauX2dKnMAAsEZMp1OWQygDvhle8xzVyf3XLnv339iMp87zxjJS9FIRCPD+b2kib7I01JfjEIv4d/95D8P0n3usUghlfBlxwJ1bjwNfYy8Y34vERDnhQl7TTChjjU8ZYZ5i89G5l8oI9neodyVws3S6+PeiVPT9a4zJGBSgL/iEn0IjoosyAHUg7e8o9r4GBOEbqK1HGI+oJEEqgqkjLd9Mo5CnaDS/WIkG0aY5C5zmPVFKWLDaTNumIOLRzfah4rG1VUagEvBdxeeSxdHZtOGmYc5YGNFnxp900HmMIExHkLVt1JK9Vb/6KECEOzd9uwco1D3Lrq07QLPjBIBJ42ybQsvEjILrObmh6/sD1yvuj1OJV5wNnCxKAG4WPn3x7fP9kFMMEOxOt4f7Te1fTigeoBWOCmgGd5/7c2mntAToaen51tTeiBeP22nBg/ABwOc8Fet/bHXh6Z6amfARHzU5oGQCcpBN3enNcgJW7xIvDrNYB1tpp5cB9dX8K/TDudcXV53BpamhLPhXN0Zvs0AHRofD/7dV3h7wqGF4bERojXi6dwNvktfNABP6cvWJWsPm7fzq9PmjiIaYJSDbdvsuRyKUEFBHlDE6B5vEEEDJpiDQ20jM9NccGLKVv0yW3KsnWugKOyBk/WbWWRyIxhTMKEs1IWUuL7fYYS0FVzt/atCXQWoDHUQphbJH4WaypCb0Li6k/BSkV7ccVAOA3u2RTaIMphpzWwWJydGJpbfXlkzsYsS8J7ShX8e5hKG2ykdfHbgMGfIawdAhxP9Uv5noGg0xkoxAB56ZgRnlD7rHTbg4ro5TzZao+W0AQitIxzeicS2DAMvsRN5Pu9pznC3HCmuM6+xYTaRITsNSRnVWDCNcPNGNPPAueELw1yvkb4MsiVEBxu5yj6Zn+6NGAzq4FFFNIul5Ka0hWZ5UpHPz+fdonLvr778eXtBqMoqlEMUqhM95IcKTfStXDwpRBEo3qoTkXKhWF+o4SwYp7QkNgJgBpgs89DhHQBzM1kRJCMBS/tvM5tKG/EUd8x49SmLLJQBcXm0s/MxhBkAuNM7a8QqmmCN5jkRSydEEN7IplMLg6O62fPC+qHwQjuUah1mG+A6HetRKpMQ7BZ7ed6QI7BuLLgUfDziXBIOtE7mPB7wXBBxXrlM7up8vzqmaYT9t2Z4rsHrM5xOMKEyvK+2mdX//PZ3Ih3WHM1SkclMQEJpfN1YfdiejLLnUr471OfCYBCDVBdxtvrOnzZellWfx6U8Y7+eGdqhRCDYMIUe7Cz813a5XILDWBYXoDZvIc4o+PH5aUi2S8iK8GTgYcolhno0b+4Heo3JC9ZIIXCSdX/swrHh1YbqQKMLJoN5eSr2rh4eD1a8+wjC6U/VvqM/F+sqmDZ/rhV088xYM3uFW5fA6gg2wzOwWf45l1jEkV1i3jCRX19fmRp5I55pi+P0MKWt+DuvR7cKGWhiLF4T6iJUb+RmfjEX0ejBWQaTJkp0wExzPRfBOp/HbuSdjTModQhZlw4KfNAVQ6veUzfPh4ZA3Rxlh5VXa48g5IPKHgwrob0jREDJppkVL+BBXFjjdDwtfcZ0v818LNfrhbjQY/0Ry6t2MSz+XLOacdusZ/SI4HgpjfVleuqv/R9vzvT412gz/tPtJprePm0atmDN4A1YoncjGzXwTC8zTKHMlD1QDdGYyDosJTXTuWXuOHUkhpt5x6K7Vb09kRFzMSz1gf18mK7u/jFCts2ikIV5hAjdMiwJbJalCB+ormME7c9g+VPY6XacmTEV+c+uYO+LxzIbWYeAiUFsVUzgPxMcMrhkqzAoWdRM5Q0wQnITTGVIF7KgG50z/tgCb1NvmXK/VNuJBPaafTRAs26J4SOvb5DJyCzw7dSssHGHQLhAY5epUBuOIs9WfyiHs1WBTgsKAUAzO5fjZta6uorbcasfKx9rPZuhFPaiimAbAVyGjrwbTnEcWy+c99obZCY/yCmF/RclLLkYnjdcDCUeuqCpiBV9StPRRoWbPYWNowgneZFbrwgHmqyu38OlutcPONHth3r49en4u9Oh8+pxtW1mv/347gwOXESguumCb//tvcjqQYVnVGvmfrQxYqWx+anhL3/+i5MHtEYjIC+yU2s/P74hts1A4egA0GhP1X7z/PZjUC+yYwOArfhG++2334e4B61uAN3evX1LGaczkIiHbfvln/35q22DOQVTdVgDjjz/8fHhqEvdWAl7KsfvT6fvHk4Zn7gBoOrF7D9xuZQoM3VlCsXx+HQoSu81bFiEgSYFfm7dVRbHoeEUQAJoFn0R/rDhNbfqeq5O4dRiMaIe8LCp0ZtZfBfwi8ACEy421vZcKeZm4sBLTgd1bPj67F9tLdycuTmsmZ+aforL0c+1EcSCLhE1w8jE3Gm7aBwOM5hHugDJrhZjCihrOOlPrBdqo+Ei5CJgK2gErbtDn1ZDeFGBo8gPnu6mLfC+F6MgmAc3I2FPpYFePIUetza4lMk1teS/BIKAQM/DFn+8m6J62ucc8Wm5C3LFThagX9D2krpKH1dGYD5KA8P0Mj49AE0kAqEoEIA7bcSpARLZy0HpFwcoipxv4J6Qkznc8qaUN1qI6jbn6BF7lbcN3eYMLSPlWqI3wRGZhgfDU9sEPFciENH6etkM/lKgXtDeDg7IIDNZNoPAkAab/1UBIB0sShdqgoOi1OEg7tXFPl26U+dqqMnkoAewWB3hR6JKW9zGKkOn99hxjMNiuU0OO7S+ZlOaMIcyMYCwiYymKABAcZjg3pn0KpRm1pIbNKd5IlAHrNEiSx9yDWezNlUsVRgPOyJg0W+jNKvqUwScgjDAoepwh0OZXwb1kM5sSZapIBFmYb8TZGYyitZ5B8ubAMDG49m2cBZQDVKjqDXSUes3r81R3x/sXS0fDwaxWQnThcxJBD+xtHpEPLeb7phgF3rCn6sy4u0mPFc0w8Xntyhcmr09snpptPBVAER7LnyudinZ6pJ9a9ntYBGkSmaWIRTLVx/kv4Eu4GyFxSKiwQ8AQDNtziK2+k8/Fd0vpl99/83zx1ORAV7UABQvTnz8+FH7RRXKP2TGfr1iYRT9MrEgADwLv37/fdQUVj9XHT89n6qjmZtQPRaBNdoP22UzZo4oUJl6/fD2fY+1SVtTZuLTuyd64STFAfhZ+sd//peDO7g5YDoCILavtssf/vVfmaN+81UpbhvLh/d1oxW3SGMJL0wDKzf+z8YqWFagOjEeviaG2wJ1GZ4rBnJlZ3uKm2gHh8MMXt0yCyKeUKJYREHLg7hUDePiWCnsVhAD9Cwy4WLFGaAWpkKB4JHurEKrQt3MGgwgleXwKDyJVgWTFfm+hOrsidDVwc4cZqzpntKtM+uZ7fosU4neHW0qVISMcoMlBby4z6Xzw5aMaFT4U4IWdTFhs9oEdURHocgbm6M4SvWkgC34CXFXvR9uPGCPOi1tHRPcK/TvGhtui9kBoosgrXyJd3fIJKNDPsGv02M993o2xd7Dh+CtbliGHJo5Ciixhm+yHoDDC9W4KjrhlhlmrlYc2wtzQ6/8TJfQeZVJ4FrErrSZAaRKr+oVt0Ib+Oxuod47poo47EQZJSQu2dRuGS7idgPds1Y6aZ7QYl31HDpxCzJ39JLd4VudMC7D5b7xsL8v+wUygOMY4lqTvvpuEIfR55JoT4OVTKMAzCnLeI41hx4tOWFEhpaga9cLjNqiGVAuOuCprU7glJsVPrJALA4PvW7VmTMvvYhunQLXgIae1nEuKI4LnEH+TzE5FZ7PsYg4kcXQ9qwuF8BBdZavL94YV+BXm86I/aQJteEExS2yBNrFnDdo5oISERKAS0Y4yeyljjx0tF8uUxlGEdnEUPIVjE1avWsvcE52zccUKMIoNxn9lE50FB+9mAwe8b9mMsDeEMVTELvhfQ0wbRvKo32Nw5G/+Pu/NcHczo/PtiQbwRyJ/ub3H5pt8R5BComEDiiEAsYjwYYBKM7FHCY+ej5vi51nBbGI7//jbVnCWyTzJnt6PI9Q11kjNz/g/Nr84HTNNV/p5fJRQIl6RBiR0w3YPpyLAvmxS1nG85ujF12q9NAV/syekzAKSUKjN/PNBDR0wyuOgQgD83b3472CmBlXW7KasmQNY1UNHDGl0tnsiGqWsRCgmwr9aO0BOpYsjTlg5gYd6A5VU40FQHoaiIrLzMPAY3VvFx4+FBPPXVrdMKdBrh4rN3PMCUS1oyxdAN2P7ebzo0dvEBhN0UMI2p3vq6bs2p+vmw4jC0iUpdLJisqgzFSVeVPHC7TZJ4195PCxSm8+2knn3vmr0X2eJPz2e6IvRKqC0go/fS32ifzGe6MIFYqQDfvPrp7+xcl/aDxyOeXXxcb1w4m0v7SNdUmmPnGk/n31InDQd5rfpb3Zl0uZoTe5r3j55rm7/oeEE1d5eL/1Ovr1w9uWydnPwUW0NyLY8fkjgky7t/3lWbex9c7rFfJZWezNf8iEPYC1ost/lDeBpf4zSVtmHHVGsVFFnWnqtPma//Si+pjqj9QnVpA3wkHvwevZCzkaJNCb/AGUVPhV50+QYqI2y+Rk8uJRTNqRdGr0gJFee33SAZ/rLQrloyPaO/yMOyqlwMV7r5O+XjNMBs3u2RFUM5ZMM2efZGes5tDNaWXMnOHzZHJgA6yHXE5kyXPxReWA4AYvbq2gPj09GUBsDw8PFt41+4bj8c0g6xGy139BgG3rqH/auIgP799lx2nnzcJeLs9btNakDCOaeNm2Zl57o7Wn3wLEChij2pwIDWD9+PhUfNeRFUP6/Z/8nu3XIEQKeHWcUKpXrhvx7Xff+EQLuWgDS8f3e1NcL2yrz/JW+ejJrOtOU9A60KtVkCxY/OvrvyezzPOYidPiLK7u7eAWMAHohG3SwSxogwIO31Q60tn5v8zngtjPtgHn2NCwLNoVt9zjreefV9gmB7dSxsqundnPGO3qQjiC/q30f1erZww8EjbrmNtgkBMoImcbTqOM0cKrjlauJKnez+KY4sQy27Uv+qXIt2KE9bC9CUwp7KZ0veYBOG88fv+oX+qGRkUh1qPNh51xM7h1GVGwvgWw2rStFed43FxSj7eG69nOIPlSd/1Lx94EPilBTV8W5ZbrFrhFEItYJ+EOaSfN/XHV/+ij5SzXyUuDy1LfzXC/XATs4t4B2zt3u2rvS8vl9M62ouYoB1iiI04Giph9qFriv7gzhPGus0y+jG72ZF1BZo02zv+bIzuZlvSE0QZypdIgP5H73GBi9jyoQlDQoQPLCm7ZpNl7A+hAidWimaMmCtqywb6rLiwyktZlHFrGOvYkmKB0ZrvktyvDlx6HngWo9P1Ys5Nh9MiJiwmEVjT6XK142ED2lzoIqsiv8pSJ/4M/ArwkBxM7ypBsGfW4nRdB7xqYbp2fyVEKgM6NQBHzuX5luIwovrGzPx71LicBHl6dMpvOTW4AvW6Hj+09tm1QyYEdi/DN978jooKyK9v97PXXjmu/5QpCUFf7XzzpUEzAG5WZfdNWd9cd4dgMXZEX+WhgdRkJcmazL5n6rv8H2R0pEEvLULmq0/f+wnRVmru50PFIIjrZlYcKU6raJxW+V+nYaXBnH97uzGzm913kMyzktyYp5Ff3+DH3uWRukc/m2TVw7vj/JZBl2ruvDndmaczzE5n85x/LBpGbloHscggfYWuwnZ51701vRGC3l+VsOt16vXk/698LbNJUJ4Xq5ia/6pAcKZr9eD637mHcjzl43KsGpvsjvz+rawEMYm6R9T0fdHs3u3dyfuD97spfheil+y8mNnpBGkMqYighSSjE+6Ro+sw5ftJg7RVYiK1rwWagTSwUv3URJffIxHf9/6OCghme8tNKORhlFSQ5RO81b7sxwt0wYsrjMeHae3G+V7+nKa58AXxtAegzvytQLf14AJxqV+MyFE93IwPks5sSyQIvZ0KC0bysmu3XmmW56WgEEq2nvZ/pFDodYJB7buOJ4iyKm6nX59eW3fQXkxZe06Xl0QTcLVBQIAUzestMphb3/LWDNMBmhHqVAhwZbBhOA1C/fv2GUNH25qsHQsVnX100fz2ez9f7oiAA27bhxlNSbB55aJLQFBT7Zi6SmlzMW0UbE8vheM0HqQC27faN2UhPfvKzN6YaMa9zUCyOpx8e46pFzYDwuw9vi4DsiMnqHoDTmwcAlVCRB1aK/t24wIniaDY3pL3kQnaWKHi3akuMaKV3UFG2+x2i1YLniNcscH1YXtNMko/yPmXF0czcGpw0X5xFAo4GszQczP3+tgmolrtlPZ6Wjrq3KGXf9WwqdRtNDGmRK68EMPtzBsHY/ejc54R+46GtXVZ/hzKdwSV3B40fXeifF4fTyd3uu2ziYXDBu/xJ9HABsR/Sd3t+R8t1wNOlzfLzjyUU2+xJ6NX7LpoJVHfHbl/4+ibbXmTKf4iEZUQEX+ti/UePJpYdv7sxHrWrf+/MuMd/Chb9ttMQBsgewk5//2kZZb9k6HktHO9M6noktzcZX7BPFhK6udnVYCe/r74f6IsD/Y8dN4Ayu9r2dQPO3SGf+1tQP37ly1PpoEPRVkPAaoCzTPheqE+jZzjeW26X8+v1vjPXXuqciC0JitTGuvnBNEogPyqAuKN1EY4tGbM1cIDE0ReFYbbaOa0aRJj3nwfgMoOxFXf+kgYnUVM0AVbplTKbm7B6i+YscsbX+94J5ONiC1TC0JmJjhi+VADz96yCFxg9M+h7Bz3ILq4A1J1lFNCm/w/I6PT64fGZkGEDYGgDC49l4+5RFJxBGm7Cq+OhOAwWwLP/5B4v7SI56X3yBkHO0+FAWbHSLSioaH747hEyGwgtX4zlsJT3RieElb4NfFqDNRde/ezhKjZlnnNpva6VzUdxo8OrE7r/iwaJKNdbEhBDFZykYH+mQyhS6V2wsS8syvwD/3acNzeeUtaBZI8NQsnqzVi3QiQiNiKWLEnbbI/3hcmaGSfZiHX3MeBFol90b11vZcPKf0Z7+b4OlzMZjChW75KAWxEgYlhXrsfuhHH0dbb7bC0lXTXc3zYUrE5nJrxYc9Z1kX3q2PvSO67V1snP4e4v2mU41x/taLJlfwp7EzU5+5avO8XXcfbLRkXkeqz/gyBWsUTTbHIZxbmOUrVvc4wlvYrCJCfWdu2bH6ScUngxFRdjI9RnHC8mptzxEQlkri5eH/Hfu12gieJCXJoAAAAldEVYdGRhdGU6Y3JlYXRlADIwMjUtMDQtMjFUMTA6MjA6MDMrMDA6MDAgot+sAAAAJXRFWHRkYXRlOm1vZGlmeQAyMDI1LTA0LTIxVDEwOjIwOjAzKzAwOjAwUf9nEAAAAB50RVh0aWNjOmNvcHlyaWdodABHb29nbGUgSW5jLiAyMDE2rAszOAAAABR0RVh0aWNjOmRlc2NyaXB0aW9uAHNSR0K6kHMHAAAAFXRFWHRpY2M6bWFudWZhY3R1cmVyAHNSR0Iq8ipvAAAADnRFWHRpY2M6bW9kZWwAc1JHQltgSUMAAAAASUVORK5CYII=;strokeWidth=5;imageBorder=#99479B;" vertex="1" parent="1">
          <mxGeometry x="1333" y="401" width="85" height="85" as="geometry" />
        </mxCell>
        <mxCell id="fkhzhb3UsODcdzvoW7---46" value="" style="shape=image;verticalLabelPosition=bottom;labelBackgroundColor=default;verticalAlign=top;aspect=fixed;imageAspect=0;image=data:image/png,iVBORw0KGgoAAAANSUhEUgAAAFUAAABVCAIAAAC3lz8NAAABAGlDQ1BpY2MAABiVY2BgPMEABCwGDAy5eSVFQe5OChGRUQrsDxgYgRAMEpOLCxhwA6Cqb9cgai/r4lGHC3CmpBYnA+kPQKxSBLQcaKQIkC2SDmFrgNhJELYNiF1eUlACZAeA2EUhQc5AdgqQrZGOxE5CYicXFIHU9wDZNrk5pckIdzPwpOaFBgNpDiCWYShmCGJwZ3AC+R+iJH8RA4PFVwYG5gkIsaSZDAzbWxkYJG4hxFQWMDDwtzAwbDuPEEOESUFiUSJYiAWImdLSGBg+LWdg4I1kYBC+wMDAFQ0LCBxuUwC7zZ0hHwjTGXIYUoEingx5DMkMekCWEYMBgyGDGQCm1j8/yRb+6wAAACBjSFJNAAB6JgAAgIQAAPoAAACA6AAAdTAAAOpgAAA6mAAAF3CculE8AAAABmJLR0QA/wD/AP+gvaeTAAAACW9GRnMAAACqAAAAAABirYRGAAAAB3RJTUUH6QQVChQD1ejivgAAAAl2cEFnAAAA/wAAAP8AYjLrtwAAFptJREFUeNq1XMu2JEdSNPOIqts9M+oZhtcGvgAWLPgoNnwUv8BXsGY1HIYVGw7DkY6EpO57K8OMhUdERmbV7YcG5dFp1c3KR7iHh7u5uUfxn//xH0zRQSMcL0V/KD88V9GYRwAA2m0DcDhvVLffFlc1EwDy3xACKIwwYrneAPSrP333t9BXOBwCUAJ3hy54/+N//3vFe2F/vgmxP1DLewUU65eFxc5xRj4aaIGtad6YRxHquGAcFA0a62DyWf2Jizw8quNnOkTIB+GnNnU889ph9ovE8/k6H2VCgIEAijUlnEdA5zPOk596/x99nCQUca/2OY1GCIq0CM8nhGF4fxQNAfHodcLnHfrZBT8Ib3bL9/L2afkfuV1DzLx9vbHS5/kTDzY2j5YnjxcH8POvgE9beMqn12/0cbZSI8G80aRBD1voH87/mmECOPz7igX9vEcKEsMr5X9zrKBAA16mRhzK6f6L/c8aroLC/XYagaDjXv7hBeP4b3t9nHfzQfwkcxEtzODiLhCOus+lXiw6wsNVuc+zgIC6gxtDoFHpCAQNE3nnRUT3iwcVxLbdK6WajJ93BXS9H1VX0pONMyJKH5OKQWyRMwQZECIMogV2XwAogNo2gA5TQBhs+OXlTfN2P46XUyTv7/MlFDwEpwiFT/F/TmD5UvlLKRUl/FnuNuC3b0qA3UL7aNmI9qGZiPkQk0ANB/ri6UZ+bdEccICa/zqErYoamKJrjGj058YLYF94n3/EACMP7WxY7vwbxRnKNZx+iAhEoAkEhL66u53XIUDAjAhbRQGEMHyhAwKdf/TBKGf60/7viwV+KOSr2gG0oDXahDpUWVATAULhGCro9wZFIOigiREOTsKvDl+EGCLStEV8eQj4f9AIltizCA90MzExokJ/nR6aTx23cQ5NcYAcGM62jc9rNE4f9MrCFHjy9z/RU57i/705HM5QfeUenyCenyZHTCjpj8KMCblWROH5vp/zEL8MaOo0vI7/I43XxO5PEv8HJAQIQKDCniaqoV0TsuZ0TtAf/LwU6I/Lk07oraO9BfPsqB4wQwgwV2b3UwM10+juMA2kPpcSLn09M2hdVIov+dCCPdP0VueEYPcrtcYTuK15Ra4hlAx6IER19A5fyGfEt0OyAABmvFxEHI8jbo0Fftsl96J9PlIsL1cQaDuczUvs4hfCYYn5HNGo//XcAAhh2MBF8Vf1N5fmKfaM13/21SFpn8Z/jQb6RgIo6RXpFtu3Lz+0cIOKFQaNjUE+f/3N74tvKU7H4QYHX8Bd/kh9/fZP/xquJ4sII+KR36Vaewkf1n8LXPz+L5/eVL9PRzCwc9TnuBA2KIZRQ4Sf2DpOyAVDI4yyvcHi6tJfEI6giYgQURpogcocFNgA2WBDDy8h8j3j+xQpUKYaCiOA0uFtpFqEXxrVeHsSU0Twcdyxrw2acMaUjGIUfV8hu8vP5G+KPRQuQ4EQ3eLg+QNoREtI2YEnd19YYGpj13ROteiw3F/jMt0RNQOGz9FhxosYlwW+CFwt9nHy/30xOQ4T2BMbiEbYdGYaWoXH0fd8PBU1IMoxB50Zx1j842nutr0b+35DuuHUFDKT++PiS2LZFH6BKskLVGUOPKFu92oaedLIKY3oySbnGRMgipCYa5lHmMq4FUCjQAhojAiwxarWcBwltPgl4e6hwCkEAINnD5l4f+S/jYPsI+AJBmLFNDTDoMhFKRqri+w+rD8dQAbUlI3Dv7KrnAiiDKwZAoJBywxZ5QGY+gJ8Se9LKgV7YDzUuEhVrIIypQGjMsy4Q3QDaC4UQCYQNAyaPYMeL63AVhRmmnHk/wgEwqhwHYCamdh6PPwwjdPD+TNhRl84YTARTU41AVuUIRGmRsKD+t21iCOSmM8Fby/lej1oPf3/8y8q3f3zno8zrsF88XAT6XvrcylJsSVAHMCpAMW4IOFnugx0rACHMan3mYz8tEPHDwI9vKm7FSDqf/B9H7cDRCn4/fb1SqfFtP/vvtnlz1BAVOkdWKWFPhKt6vbVtVa3Yi3eDdXv31VHX5umAboIAW1wscICk72nAfniBp+jQCKak5z9i9ZuHrlP+uNmNNxu7Zn40Jixqxty/e5aW/Q39rPpfpb4UYxw0CidVka4EylXqRlPbXqZKGYxrtK1VAl1UCA9VroKlShdg934BTMRrYjYpf1ycpGKbvAjiMIgYIEbLHBd/6hbsAXomPJXpzBxXHSRJyfrODxkTIMaBpw8e4RZFMUaIBylh49c//3Zo2K0BZespX/3k/lV32VlypMeUSkNpzaG+psAoCw1jl3grAg5Mv7tA3cUdRyU4EjpFEFx0k8hyB2Dc+TlZRkpBBXENGi84rY/a/p9cqMrBXBSBwDUHrmoKRVVDkWuPfLnBI4QOAyhGEUj/sWSftLuLrdnE6LhjBr7rMakBveXani9Me405k9LrzEq3sEKmNTxpLngP/RERdOZvwb7jtm4129HlfJsflrqNt5pm7h/+GsT9ZOOGciXdXSobqCWTpULcHEnNtvkcw0adhSghTBWgcYUEdhm9OqcowCJSjRNu0Bp2ukLD7TcgbcxMnf6iZh/zkjA02RisH2HjCBpu1DUXz/fsv6dkyTGrVwa5VzAFhBhZXgw0BKyzGeFPgReSi+ZNgaAYtxKPEW5CmGZpYUAFEVVvNQauMxFThjQVdtXN1219Vx8KJS6GCCfD9PqWeTR2T2yG27kCqUyJBfcQDjrGh6IAFH//s1bAeELAGL7UOrvvvnmQ104QETmJ8/bbWc+egiHqT/gtui+x4wiYPuuCOhga9ib8EYuAngbnJoU/tXL9jfx1VfPbiEngQeJeGot9J9PbX81HaUV8IbL90CjS3iAbiKMt5e3xdg5YQpQwa08uWBDB7v56qi/fv4wnBkD7fsL3m4SR13TFGWiMdfInsllvGzUc6DFLCX3u0yolL3gMeylON60UgbkAtBCW9EL9WP76kpvoRY5xOTb3gMqeOEeF6PgCryI78Fb6MIhaoGIuHTuYjrx9L+NrqPk2XPccNToSY/ucp7d2ASQCOOUi07MdM7kk2akPFcKZ4lhd3eTh5mms0DF4ajHYi77SwOmGUnMa5GVB7Ag4tPouWYOl0sFr3YEfNlxatRYjw4QunPqaqMSC4YhM9RXeNdpckHJI4b751l1bQTY/XSyOhmql7eLhwJJH1teUxe7Wu75mN7ilIk5A9tdUJwe7HhzxwX7HC2SbKUzbovLSAJkzn/AoV4TCzHciW0NOI0lcfn0UQcxsmOMyXxOoU7aeJiMzjrcvPgRiFOui0SHOWIaBaKl0YCDUcDGHTsiCsAWdCigsBqVTKMAJuS/q3M4tDTCaP22piI7Q9SR3j4tWXVN6KLeBXGe7eydyHx4rVLTjgdmlO4th6AACBWjZOTPItwAmgCqUOxIxSUwC2wMhCoa0DpNCDjUDCBaqGhn4MAeL1sGxN6zFBr9T0ktp5fuYC5pzLTJFD4Z0XzEqh0TYZYduu/fnir2w2oMboro3pQKo9G3gveXRI0RFpFZYHwQ3r25fK+307BNGPViUE9XASyDRZw1myAflEzcuyDQds+CujUAoNLutLX45tv//eFSdlcAmNGIG3ZcuNi8brTu1oOJUnhC0OmizAqjDWFENOK54Hcf/lAlIXLystZ+Rfvdd35qLXnRAOgo4ruX57/79dt3NxbFyCaS/Lm9eRfCizkiGyAroGhboBG7mzeiqqe0wwUg1vnPo1uBuwr39U8AQbfgyeVCg2Dfz+z2uLHjCAlhShEv1PeIMNSJ00xUdW30Vi+6tGFOxaitAHiJJxlFDCd9aI2gm/F4sBxKRaws8zzqdLPdTNxLZZMU6i1nnLkNRufTsPeRIC9+RQFkWW0mc4NIRmMPIUpaAg4fio7M9pYUNX293QiFZkffFg5sxVtBEAalUCMcrUUsVFfk/BFocQiEmvLzPPoFmfAQDvYew2P2MhtEfWcI8/xuGWSjknHpHIOzGpCAj+vTTkV7jWlKJzqy7R5WWijhdpwXv/taGAnynMsavgtmxzrB3REnsWf96KiiHqumReyjT3PggHfD9loS6TgEDWU/Z0LJJV9eqyk4VmuOxxgPH0O77H9UqEPy+8C+Nh5ls8k9ODLPn7Mh6xFr4BUd9ag7Yk0bf87WtTEEDIZirNas6ng2B52X9jLsnbHeQf2oX1RCvRgIt1H/ibsVkcNqRx3lO/xYzv3EvoK4kiXR+052uBoCyk4oxuSaetD2tJT+4dSMgmND5ue0jNXv6jtA4QqghX4MCF/DWTjqKDw6abUVnTqis6+oJRzvFjSNJSDkKh3fZouiYieqEniZNBQqY/LThqLrx30FDa8WiC3w3VMhnjwoLEAOXxTvUK9t8PF9OpMRrsNO8p2Ao/7Tv/wbALr0DpHY8Cvdyq2Pv4NiAbpcK7ABC6R3gO1ybb3IxW6rmcDXp9pj0m5HBLzhUN8LD/alBAC796ADaICMD7PDcpCUNOT2r8++Ni1WbRO/fvnwJ9ffPD23fEbJ+EoCEdc3jk09jnaOv357eYeeVBa6gs9PfMEgc6Mv1YRqBLsdLhbQSr8mZmolhKHoDebp+SKZWZplkZ47FbM33WMUYNktJCZ6z2EXawO+faqxUK8Za4vVWMOj/8N0BKlGAVVAlsB6Xyyi5p3RXymO2Y7lfX3OyUGenJ2NEKNdYxLJuRL37uC9zeAQmXbv1TtTKQCRTYverz321/SshH6MalYFjxdljX+fkhQu9t54YKCLU0j8ROFRHK3hWVgyvaiNd30Ia2eWjm1ph6j2yj4H3LnbSTe8krU/7vzLY7Q0rc3jd52md0Fxd7HonTbdyOdkHtsvorvivoxHyRe7G58PXfPu+xz6YRFYXNEoPnlwDDKMenrD0gyALgbHtpj7vN+hiAJl088CYO1OvDpdvXrHdno4zjcsXQNj5EfujsNTr0F31iBx/DDVLcRC5kWmUgNByaOEL6LCDEQ2Q48p5dL2Maa0t5Bg56VWNY1+ozH/UkdAncns7I1zDV46Qzi1mKxmDI3vT1cYCeexgG4OhMIFqiyNmcUoh9SzzyGFMEf/HwCgEhNyxzIba8EEvTXSFTz2xTsipVM92p0Kt1ABtzv3kVvtDgQKOo6LvQw3584xm7XnV2VQfVP4dGw5pMZorPv+N6q3LaOam1ANtf60qNv728h2cly3Woe+DsPWJQzG0dkGcG0/WFg2QSRhx629T3Li8ChTl6sUWxyLPIZRCjqSWb8QSujYY0/LwAf/WCa6H0Tqjx9uX98u+PDS9z+4l15bbH/+5mJKvbjQK9yzpWOyAAxTe302sikWrkCFt+MGhsjIEp07S0a8JfwPAigBJTrqts2X8N4ftixdDhOKtapDI5tEeDSYjPyr0c2GFIEteT2mZ1Qyjo3FPBie+v6H/tZhYGbsFa5JjW5wgHXciP2uPn+dvctOg0AL576LLXm+vpDcSkI8DAp0PLDsJj5TTEWWkggf07BTDop1/TPc/XGJjErcDB/3omancOf/8coxVdB7mJai4pjPLtgamhTZT4qsz2mnXhzZnIQjmNk/jxATRw8bXiiJ2afycMiOvv8xm9R661HMnSsCwQj3KLDuc8IdsHu9HLL02B38BE1PfbUZq/b6eKcfYi/74+je87qxFr5ob9UCgZYZOjUOrA2VVDVPwvtOscv9rzYhzPdp0qwn/Dun8fTQWOpFJ2OkdyD4QNpjeWKKdX8xZ92dJ2SBkRJy0EkUMm7vFco54N3Cx7fZ2DeDpYJBGKPt8S4LCGA0zMxOyeELyBV6eX40DzPSs5VJPU3hx8UjZ+uswZ6uMYtvPX/p9YVdmL0qvMzn/IrzvHa/kMUsWb3lsMNaR9Yt0xQqCLiEQUcEywbHNmZmr1JfsoW6Q4CRSzMqM4ytM1oIV80O733aQ2gsGyNAEItlxLLZfV/UlRzgLMuQLKVexH1Y84a4Xh8YIf3y8gHZY64OOhsB0C+2o4WAQkc20YX5BuSOF2LOyfVSwIYFSvSofmviHnQHcGC5HRZjSSXc8D8/vvx4OwhJI9h+8RcN3OhDd2td0exe7dov2PMDn3zhTm+qTxqR/byNQYA23avUvaPREYraWvEs2gTIcIDbNaYrOGzdS253SgKU/F9tsY6yy9PCUTdSy+6AokpqYyVvZZG/7/85kI2Zzz1utj3K3zO1XpgIHxpsPJoCPNpRctcKR1HXgw96+KJhdbGu1XU+MTruVpd8n2u/fvTRn2949IDXHrpTsXTQEX0ECwHZU93OqOiztgofXveAnv/07fdandXkVfi+/xlYqsKvsB0fUYH2Opcf5ch3OseRhz5VjR8eq5vESGWPX50C8xrU71qkMERO/NP3PlM93vIhCnrYQhkYCflMmJeRifbo9TRNQuCir1k4AsBzfF4l8XFIKyiYdaqu4o/zH73o0l9toJqZISlZWHMzLsf3zRrTvV5691r/kwdiIOAqJXQfE9WqVORH1MXeWYw9+2AyyDp6ugwBuU1kECN7C9hrhSDeo1uitmhTc62nh+0429olPOjSQBsdiwfzIhBoxSoWJPeGV4WjStkgjpG3z3uKAZM4dPBmX5If+b+6llXHcWl7q8xQ8boETvyC6ttfXSf+w2BoeE5pcihT/t2KhuHkhpdkGg0ipLfXy1PbkhrNzJCKArwJVnEktOMuMjTfuDd70biixIJRkNUKgK3n8MtQI4T28vys2DdjGHQrfC6FwRILtDFQxdGcTfVesM5z3695PTqvThAAvYOOCiOs4u0iZ+ly8EstrAqWqdhlze+2gNWJ8GLuZMmy5rnkS/Mo4tyPtCyEZeaON1SzDfyoZItEPjT4zpz44CBn3T69Q4dmEKFiRm7+6DFMQJRk51YO/C6T3wVFZF8UDnisWyI5K1+LHmJ/YJzM93wIRPXS86XeVMt74aftvZICChi/F9GpZdElMr2hFkiAcKEfjGfAsH3X/MwLdbw4PkIALL0DJ10uH3Y0OffV3sfPOznv8NYQKU6eaC3yLG15uc9p7iAYwz0nmnsQW3efxGE8mflknvS4/v3KJHmWQ9IT9uah2PHvjOUfZz4O2j3+zlmcLhb3tOK1LoPXj+AnYvpPOgZs2vdVZ6fhqNUfiiBDMw81Ijg3/8VOQndAxfVpWRctlO9QSgKJmPo/jDPHhsE1Lmh/rSO+WgtZrnl0srbI1Dqbx7Pzrvt57plfsiULYzX3z8ilqSod53hFw1NDhS+DUpgdVEUKlNX/CSjJh0qOPdbPjWBhYuxQGHeMdOoTwh7AL20yO0jG758Q9em3b9eeJ1ENN4BFMbP0W6AY+PA8Cakkj2hcNvzG5SIooAHFi8tV/E29XOsWjvzJARONUQJvFVXdujoRRIvb7An02C/JQ1Y699SMevwCdGb5iooa1xLzt1myTRaFcb2UglJi0My0gbqVfVYFAGpWQArlzq/xmxmgVWY+O6orNKri2tDcS+sZ3q7NNVTl3P+Y7HUBCFTFrFu4C6eSzaeUKVi6T6O4huRXvZ242shpkSnQCASkbPgk6r1zKaO0lAWG+xXlQcJlL1RjbLGzJi07H0gzxsa2aarxep73OQ58NezXj16kS3pO8phcStwo9P3OBHD3ExIcjfQp/MzPHnrs2b06e6TdT8Yeuh8N/+c+TukCcOLFd5Ki3t+cJZd7mTl+ae70OyWmFJ2rwvwBi0Oz5ACk4Efy/FNx6qPHR9WYPxayV66zyzQ3nZZhg51h+j/fPUoKGfvHyAAAACV0RVh0ZGF0ZTpjcmVhdGUAMjAyNS0wNC0yMVQxMDoyMDowMyswMDowMCCi36wAAAAldEVYdGRhdGU6bW9kaWZ5ADIwMjUtMDQtMjFUMTA6MjA6MDMrMDA6MDBR/2cQAAAAHnRFWHRpY2M6Y29weXJpZ2h0AEdvb2dsZSBJbmMuIDIwMTasCzM4AAAAFHRFWHRpY2M6ZGVzY3JpcHRpb24Ac1JHQrqQcwcAAAAVdEVYdGljYzptYW51ZmFjdHVyZXIAc1JHQiryKm8AAAAOdEVYdGljYzptb2RlbABzUkdCW2BJQwAAAABJRU5ErkJggg==;strokeWidth=5;imageBorder=#99479B;" vertex="1" parent="1">
          <mxGeometry x="1425" y="401" width="85" height="85" as="geometry" />
        </mxCell>
        <mxCell id="fkhzhb3UsODcdzvoW7---47" value="" style="shape=image;verticalLabelPosition=bottom;labelBackgroundColor=default;verticalAlign=top;aspect=fixed;imageAspect=0;image=data:image/png,iVBORw0KGgoAAAANSUhEUgAAAFUAAABVCAIAAAC3lz8NAAABAGlDQ1BpY2MAABiVY2BgPMEABCwGDAy5eSVFQe5OChGRUQrsDxgYgRAMEpOLCxhwA6Cqb9cgai/r4lGHC3CmpBYnA+kPQKxSBLQcaKQIkC2SDmFrgNhJELYNiF1eUlACZAeA2EUhQc5AdgqQrZGOxE5CYicXFIHU9wDZNrk5pckIdzPwpOaFBgNpDiCWYShmCGJwZ3AC+R+iJH8RA4PFVwYG5gkIsaSZDAzbWxkYJG4hxFQWMDDwtzAwbDuPEEOESUFiUSJYiAWImdLSGBg+LWdg4I1kYBC+wMDAFQ0LCBxuUwC7zZ0hHwjTGXIYUoEingx5DMkMekCWEYMBgyGDGQCm1j8/yRb+6wAAACBjSFJNAAB6JgAAgIQAAPoAAACA6AAAdTAAAOpgAAA6mAAAF3CculE8AAAABmJLR0QA/wD/AP+gvaeTAAAACW9GRnMAAAAAAAAAVQAd5h/fAAAAB3RJTUUH6QQVChQD1ejivgAAAAl2cEFnAAAA/wAAAP8AYjLrtwAAF45JREFUeNqdfMuSJDmSnKoCkdlVzRmZHc6Be+KNvJA/wyN/iD/DA7+DwhtFlhQ+hE8R9gp3p6arKh+R4TDdgwFweERkdVfjEBLhjoADZgZ7qBmc//bf/CsAMgAQMBjQQ6v/9PEfP7QaoCH2DoH48cunR/gHHFvQL1+fg5YZ9H6DLz8//S/wDBfQwCaAUc/64fPDH170sUQFAG5AAPXnx/o3p/OnH2oQQTaBVm14Oem/xOfnk0qAZhMMBCXj4cLi6E9DyJBdjD/8+GNxXgkCgAFs4v/986eNAgiAVpUJADCBPnPu8zcBhK0cA0QQsK7Wb0RA43NtJ/gEBFyB6EO7GjVQAJkCAgQgWDBr1FOjiUYpYOazVEI0aZgy0ARDAIhWPLmAwar8DbmTCQgAAcVx5rVTzgSN6xZAcadIAAAbdM6+PpIp6jMAJ8H6LZmXl1qbAO98LtaLTl8f6kuRgqAAgQHj84M+F35+rAaSBDm3c8Wb2SgLgILJf9RACcgx10x4irPHTAwAGuw8rv/t9ZKUyy4BbJJb+39/+enUFCg5xHiAXr5uJul+YSwVb29vQOfJIL/OhZ8eH876IeU/uS3rtdS/rz6XlpMEGxAwfn7kf/TTp1KnEMo4hS4bvpy4iTXQBdagoRa///jjQ7Qb3sXLy8vVamk0IQLBGPKPSs+Fz3YQ7+R29H7N5QWmOUg7toP1FtR6BcClPj7X8lwe4QLAakAQcdbD11N9KVWr4JqfH/Vz1M+PJddDqxilwMQGNYKEAaYYGACKo8a+QgBmTK4EsUs2YV6LQNXNnt//mZMlhLHDjEBK7LjkLpBBJfMNgIOCLvBJcYrcaE49Z6MEiqkwwHDufwjgqfFxmwwQ3WdPoARgBCAQQCOCoFG861wT0YVwbJOVnzdbvI4bAmOK3MJ8AxzkDI2hRhdh32PJfGEotOwgi65CARABcBOCzuvz0W2RUimuBFAGisNDSuNGsFf5F9EO97sivNsq58qtw8wH4byMHQjT7BblQIXblhSRozhgmeDYZeq2SgBS80VOwHe0lBkBwEFDVGCXRyBAz2lrjHMlzakyrnR2Pkhj5bOrphSYV8aiE3sunIu8cL97uAIY3MAgQojJwr5yxvjRJ+fjLjURY6IC0AcBd5kPE1fK+Lj4PjH5jomrq0AH3+NkXy53S3L3YZoGaPLH3MxLMNkQOVgwmqIxtV5MK9WEptTPGKoRuzk3OAQvqSCEiWDfMPTt/DkXLysHWaWgDuYLDIWCUPpYJKTG3YpmLzP3gFZ6Gbrwse0/+x/Oenit9bkq0LUjGLCeT/r6oOc6tA8iCKM8ndTayjQJ0YhilBYCIlKf98WfWrBGyogWFXgr57Fbh/VO1Jeny/wxB7kAl+au3o783VosMpHORlx4+ot+fNMp2TI31LNO/5/liQ+bmAIkV0Bfiv7bdv5cGgCasgE0bm84n2WG+wgmSChKiz89/FDDJqaHTUs1invnIDTkpTEdRLTuCZFEUwBQKZOd8s7/LnGTOu2OO4gGNuXyutTIkYLwxtNZj2OHp9+mcynP5fR00lYAQN09rs+1fFF8eSAgWqcGMC6CCV9Sn3cLH4AsOmrgoR2lPUCgrNzk/rnrb4C0fU83oPs/99o716cv3fswgOifiGSAR4egQt4KWrrFRHSbEkIUCwbTezVOybd3n/xuy7BnkkBOWYiWCqurrfuqTb/6KfepwoOzcOhxtdOw6/bFBAxKuYcYdyzON1vgxkgtjw3tM4y7LkDFb2ocAUYf+64FmoYnwNUPPa7SxJZqNanT8P1tKNxO8nX4wPtG8Tesf5p8zXEC6ZkpmOqg9wH7vOQU+7kh+39ppF+UcVH6ed8vAt0kzdkNb/rID9+X9O/mf6QnwqmfBSid/2DG83u82TrSsKvY6TIqVIJA6n4FUQJBtO9Zv6GAV8d8OuPRXbshExlrHCfxW9ZvCi7Yvf0gEKiNbCRdzRlx8Fz05aE+ndIBHSCK+Vp1aWzUFKU46o7v4EcfZJ1hD8bScZzxnXEH46j2/Ydu23aP3uX8Ztg91IXAoOM12vZYN1ZySy8wo+Dnk/5HPP9ZpVsNd85ftvK3cT6jKvbtLoPwQxUd6eHACEYAERGMiG7/sj8DJl5fNy/bcoStvGzbDNIHzwXE6XQ6rP+76Y1i1h4UWgBBNKqxNIqo6JtRQZxL+Vr4+VEl1YJFo0bZqHOrkKLHMh2AkL9386ulS9w9xXQRZcBUrBo6e/cH7Syv7xnAu9cbcrcTif+kFqBNNapRUw0PLEBBDWcOGYkZSikIUE3zacUQgt+zB4IwMrLM7d03WurjA/8BGoFDaM3faP889VwPUvJhJtGd7WEdmN4baffJmZM66E5eEkFGwPoNSiCgMqCHvvgVmwT4/n9/u/2/dSgXpCXG3ULjFBlNL77d4rQ0hSUAm4FAvQvEfnv515M7XCeuwY914t/n/x2gfd+f6JxOdF112G+gY8fnpvf2Gzy/d9dA37G3I3Jf4mkAv43/wgAtmJxMYCqU2ZODQ1qa4lLiFIgB2hd3/x8uJWDGZgCokUgev39GO6v3xS1wXsaeHf+4wj/L9vHOgLTbtg7dn8OyEY0PE6gKBqBzOX15qE+1gAmP9Sj46VQvrhtLPnXrZiptvnZ2DU/5XqAiOgBtlJJ9VNJo/gxAt+7DEQVL/fcQ7R+9bY+tYfjK9a9//Gejw0rOeD0/D8bu7fmkv3v6y2upNNmhwTD05YfTf8X5U0ltHGCjQZTXhp/Nl0tfYZpMAbBhKlW3V+hC59c3Dq9NYzYb8NPzUzmGVkwkvCZ3D+DtAQ5dQpXfv77963/+L//4egZ6GFbV+a9l8QCbNg9YdpJALGg4vRWVVpOjJgGddfp68s+PMmowUtgU9aKybTZKm7wgoguh5lqu9chxCyQk2cjGAU9yLjIqDgm5jHmF2WsMCRDx0PDHl8tfP53HMv19+1+G4BLRU46MGENPvdJdGdqMAU/cVeiLZO1Ryi9OIcdepdU5DSzabs1ZLS5g0m4DW5+/4/v0/9Vsx5TXlUQfOOch3wWRk/bfa+i+t13FFNFDbGcaMoH5d/lvrgvt0V5cP8ATn95ldvTyAt0eCbfDipkDmeBUXD9x/9eRVLE86yYZ3bOmy5XlSxDmcE+s2/UvucB7SeEAW8a5jCBNJ66HGUf1hIo7HH49u6MD6nce/T1NR6/k7vWVPHAdebTr9WtGL8tsNJirzEkH5ayJoAawL8B0hVnoTgKLHSmd6cBFCA64wHj6klz5xiLX1eqwZt3Qgsf+Ra6MUwxo9K78Cz2DJjjW4Tfp5aTPj0oMtuPO1nPVc8VrHUtiAGJw08AhlozgzgfgBpbRrdH9disrwDWBl+XKjogam/T54fH0Ye9VR5y/x/MAgHa5XIA4bnk9hX7i9nelpzPBTQatT1X/O7afW7AnETekvt3qpSUxVxEAALIsdJl34/Hhw4Lnxuzxw+kBi53HcJweqbJHzfvaP336S9I3M8L5+YX8d//9P3/cLrPk5Ib/ffcS1jGQUDphTyd9fpRSsAk6Sui5lteIVjXiy5o1L7LcVv7MvcD+iIMICLgDunyjES6OcrM1Yt0Ui0e0sXx+KE+nMqTyoP+vyx5mDcYcNMhGbdLw0lXQ/VmTWcAz+/fIF75KsYyVE1mNsxcLqPSUsQ52/hbhXjAr4o77pOkpHQt+ZDAeaIAMHvyfX3QENLP9u/fO1gg1meict+RY3btvDjg+B4Hcvf1f23ogcWMb33EsJvXTRioQv8r/izs2dhD/XiJ4Rd2S1td6rlfgfING0/fHqgvutm94j+M/HXpJL3VUNOxZZr0/7PWtDCe5ZsEQCwli/RIc0nvI+ayo3G8P+6+IsiZgzMP3Q6maHAyi0VEi6nGF1x5I17+rUUWmn0nv0JIcu2aeBRnO75YjuPpx6nWWHkzeOfiL5FinMh3NeC+90RdlpjpLJaiOVAlW/fzhZfJ51PBsgF7dAJkTBRCMrw/6yvr1oTBq1i3RpVgv9eTW4W04hBopXUFGoVF8LWhDgmIBf0FEMTWswOq/swd9R/YoNjAWYdxTL2o5gBlTxTI24rTWS9Z///I36/rNCDXFqVx+hB9C2+IR4qfL4396iL8N0RfZo9rFLeI1Kt7yaYUOdryFJSpHYc9gRwBxeiij7nAEjgTt338sHG7cgBiQVZJxVKsJ6b+cz+AVWSHjd3/6cS2Ty9EeNn14jQcjYefiqJ8/vE5aL+uPoo+ZYBg+R5j6+ogvp/rloSaWVGYBF+TWVjsnowRoMaq6I9xZIAOMEkBWMuwVwxJaL/abFVs9mQ1TqzxwoClNe7o9C2RkNILsFItlKEJypXsFCY06PLy93EbumXwzwJizy/+ULDnFHGIP1K5aE0oEGeuk0ZXi2M1cbrjXD3Ss/qYEyisyMksawRFGXpm9uxPridb5+479S0losyxuDVmyonpf/Nh47GVs8xkBCBHUjV6Kb/1k+NYNWz7XfMY32oqpXY0Ws5YZAURdbQPdkVwwzOS/gaFdB6iyIxeL4l0qAmbxR98gky2H4CzTgVx4xOnt37ECky5eehyB019oc6XRazDCQE3fZu5OAgpF5o+EYqaEc0KOXdiy0v+aDUP99PhXTt94uZvk71B0XMmnuildkKw5rUQUvNNGd2T+Khy+bjGQj1lEVTNpFTlLKw8PELp0Cwk6BV4yikWPOt+ltICWbM7wZkQBqSO1xmddcLyXEC9buvT+O3Q3QzBrR4y8459p1O/CeHtFxELlDnBkgVD0+ldgx/MNEhfWZ/KiUvpU0iDp64PewAF7jKQCBBTaGfBgCVpKQIHiox4iYPSMMLzeKo4aKu75tTLy2RDYIHVFuP5Ft5DJWop6A18lPA0gaIIV5y4S29wYbM9qnz7qpQj0zDEAfKrl6UWNJQCQGigSre0tFCkge0rfDrQGH3EOBtBG4diOdtCiW9lKwaGeu5Ewnr9+bcLA0XddsN3oir53yq7a57Pd8IcffneKXo9WrAqXLlFEr5lAfSt6OtWvJyHP4Yw086v09qZZ9jlgZmUZX4laPKr3GEbKc+japZ5RjQ/WxShGdZRFn4W6eivpVfPAfxOBuF8AtnqKhyK16EX9mT6IYaFibI9ilRDAPDmTG9UUjNJP6WgxiQhIIBMSDKXbB8ojWBBW09gnJ5dbZJdGCVSHxokjRa/E1Kj79xpxpj2+KYffF3RspqYfEQwG5tmJfqxEVnGTsyRRo9iy63x5sed5dCkxxuFpykxMMmODg7HE8CX87iyJSPArGd7rdgGlC2gIaEsx/92C719qEYtnVK8QPo5SuiZsQnUHz64YBVzHaruRX04prAXyfbV7t/F9TuCgI1evtNNp9X9it4i6w+jjfw+r3w9vhal7/l+q30yYGAfpYtCQY8clcxo7ETv6Y9q86xbHO9+PtJ1fjv6QcZ3V+S1tYXntB5smMxlwgJEJPOfPvDPx9u6HZJB/8HA6/cbBo7vxfMyYanX+k2XHjN2oi8/imp7AupL5sO4T4z4isKbqDEQNluWRogH5TfVcyrmUxpXN2lILhswg1CYcBJ+8nULF2suPA8VRbCH27FB3vLYywQ8fJmeo0XMTeS9ulXyzBcd2u1rrbYyRmEcQjQG4CXmoqPLH36//MaM5tscPP71tf1aZRZO9PtnlpQmXUGJecgBbtLLhrx4ff9hQYgwiAiguP348TXx+iTXiy/PTvani05fnK38ue5RSPCr8p7A09lrM4Qv2WFPEZTuvT8wiCjl+ZiweB2oj80yI6UzmN+Ot6M06q4oxRzGhxqCqE/mH8xyGLUQN1MApAsCleA+WSz+fG0sy0UTxXfuUkUFJm3dM5inL7SfaT+8FfRh781D5NTA5dXMUQWzC6kHX6Il6YX46gJCLOsIRHrNPtjTFdJlwzwjNgucR8Gud09LrusUEB+6bHOCdjEBf7aDRnesdX5pBRP8y7B/zFE2AMZzdUOah9hOFPUAeaeG5Q/fa/isq3E5x/367+JGTBt+1C7/Ypqb0MJn3JrHUfx7sPwGgZa1+9M08CIZlW8bqut2NgXU8iv3ttkrQHhfOCd1Z5dJrCa52LCud6x1B2gOKAd5rfxyWndbdvn4rCxUy7Z1REMdZMhQ7wbJ5ApWOq/LVdCV0rPCa51nnpwZoqW/B2O82Ls/Csf7vBhe7Hj9Ppw8mKE9ORUjYBCgPUrUh2xUifAorz6H1SUMTCx1ngNBPzu+nDq9U+n4yZ8JKi/QsHe/Kwp38X6/wHtHBiMMjgOVQZ/pvuzzUl1kObuXZyiZcyEzgU6JRxjZ6aIrWakvnPJpznVGiwyR3mDM8+bUYpsMKC1rGdUHf03RIw4xsP1BGDcNkzEBxBMQkQf3z707oE1qsczmd/3KOt+oR/ySTTy1ev14cciCRjmAkaHhuaJEFE9g6uo4a8fjhw7R0qzZ6UFn5O29tXlPgC9AUxq0+C1wul7n+NmSj9ZdJHLSsATo2d2/dk//J4YTr8xmbeok6Ry2RrBooxkPLs+sIRhnCVuNg2/vciI4LeDgRiwjkDirTw/fw5Kw46v+7tdbr3f1grrv9zKM0a5AygUn1opXI6dREM0qMsIdoRGPGsuo73yxGIx4bZNToTkgbhypLQOie76TCro2WHMGwv7APDlAPKxgNqxbsmdWpFOYbDhb53/3/7gLlOwr6q0X2bYKbeisC0lTLXUgU/bRsTxs2Iqis+TJSHcwsSMx0yNoWr3PHy1cteDgmvpgDzJcCHOf9jcbFsqx/uf1ce04S1wSxk8kgQpEuhBDFbsOMr5j/9Pw4IJ4re7su79e32X3ZSr90OmUHP4/C5IGZzzT8TTVebrQVlhye3PjVTTdmzmes9Fdk7XmThFkj+av8PPCteP4uzn817NpWb+raN3cmy3Ypq/l2BQrqOFrm6vN8bjQjnJBeZNFfI5pMD+/ynmaalRN8Z4rvtZmrnCHNMT11f6gAdJCU2J1x72Yta/KO5FBtKIn8UpD7gX+PA0ml45kGWGL35K5AWAwXsCz5wjztPZOt2VOjIOkbzJ8ycpXPvE5+dpPeyuI+dcHXOIS9DDJSQzGKGiCg/v3nNwBwzYRUHk4K8/XpYp8jsdyuu0sAVZI7AJzRkWUhfvf44RRojMnDYinw4VTkclgG0ARdNLGdtT2fLxmP7oURFoyX1/OaC50S8fHDY3GHTNmNf2nE5/NLEKEOQ8sJwWxRaF4mEWtjRSZCiFF+V+ETsCU/l8wj8spBiwAXsKC/hymRH/bit/weizcuI4IqkVhFHp8cMcixhmf9srwU5BrpSWekDG3VQVchDfba8rwEVvzjJv99vwJ5dh8uPfN0yVCHo5xmvPxhopTDpR/ov2OpRg3g8KIa+Rq9WL+v23i2Va72ztiDX3PJjmT64CpIv1EpvxCBHcz1Xq6YT15wjmP/Wfe5xznACKjzpW0DU1gQp1tC3DJHd0sgF3OTtMuXJbWbxY36r/dxlf36ktV9zxrJ/UTU9RRHsJ444lXJ2fpc/2p7MXWw9jqfvfTgtnNbwNJ5f5ZlLVNyrw1bOuyjdIBFkcnS2A8kh7rT3StoNGfTVUduvgRS5YVFsTBqlZrbz3VO8y0ot2yfTNq924ncX/G/VzJ33vbSlWvi9SERiJYHmHLB7vmq6CmDlrxlp7HTkUDskMR4RYma1IYNWTjfy2rGm092h2w3Y4lE8nBxjKw5sZxGbbvM64g45N/X+kce6XunySjo77PKC8URxmPbPrA+tm2UlvTugZoR1ghjlJhsE7ZQ5khiqRchQKsgMACVaXpaj4B3cRhvr9rZvoJciv5CldKW41A3by6sr09nAKlKzQZG4IIIkr3eiUybkqr7j3o4xVJvyQDwIfgv/vRPPrQWGBVuAKCXUv7D//w/55GK7/JCBPG6Xbyvv89L9u8/PgpYS/pgBaF52HwRS4Ln83n6V1r20YNKI07rjkCYbJcWyyHV2m8tb0G7j7/mkQ6EHHW1KRGgH9v2YYuPW0wF3iNWE8BGJocDCoapxgiWpoAVjEYA1JIaTi5NXiW+Nr2DifPsqY+8NSe7uAO7sziFaOH/PwAwQv4/aWMhrwAAACV0RVh0ZGF0ZTpjcmVhdGUAMjAyNS0wNC0yMVQxMDoyMDowMyswMDowMCCi36wAAAAldEVYdGRhdGU6bW9kaWZ5ADIwMjUtMDQtMjFUMTA6MjA6MDMrMDA6MDBR/2cQAAAAHnRFWHRpY2M6Y29weXJpZ2h0AEdvb2dsZSBJbmMuIDIwMTasCzM4AAAAFHRFWHRpY2M6ZGVzY3JpcHRpb24Ac1JHQrqQcwcAAAAVdEVYdGljYzptYW51ZmFjdHVyZXIAc1JHQiryKm8AAAAOdEVYdGljYzptb2RlbABzUkdCW2BJQwAAAABJRU5ErkJggg==;strokeWidth=5;imageBorder=#99479B;" vertex="1" parent="1">
          <mxGeometry x="1240" y="493" width="85" height="85" as="geometry" />
        </mxCell>
        <mxCell id="fkhzhb3UsODcdzvoW7---48" value="" style="shape=image;verticalLabelPosition=bottom;labelBackgroundColor=default;verticalAlign=top;aspect=fixed;imageAspect=0;image=data:image/png,iVBORw0KGgoAAAANSUhEUgAAAFUAAABVCAIAAAC3lz8NAAABAGlDQ1BpY2MAABiVY2BgPMEABCwGDAy5eSVFQe5OChGRUQrsDxgYgRAMEpOLCxhwA6Cqb9cgai/r4lGHC3CmpBYnA+kPQKxSBLQcaKQIkC2SDmFrgNhJELYNiF1eUlACZAeA2EUhQc5AdgqQrZGOxE5CYicXFIHU9wDZNrk5pckIdzPwpOaFBgNpDiCWYShmCGJwZ3AC+R+iJH8RA4PFVwYG5gkIsaSZDAzbWxkYJG4hxFQWMDDwtzAwbDuPEEOESUFiUSJYiAWImdLSGBg+LWdg4I1kYBC+wMDAFQ0LCBxuUwC7zZ0hHwjTGXIYUoEingx5DMkMekCWEYMBgyGDGQCm1j8/yRb+6wAAACBjSFJNAAB6JgAAgIQAAPoAAACA6AAAdTAAAOpgAAA6mAAAF3CculE8AAAABmJLR0QA/wD/AP+gvaeTAAAACW9GRnMAAABVAAAAVQBBpYabAAAAB3RJTUUH6QQVChQD1ejivgAAAAl2cEFnAAAA/wAAAP8AYjLrtwAAFX5JREFUeNq1XMuOJUlSPcc8bmZWds9oQGgYhDRiMf/B1yCx5bNYsOFrBjYDK4QG+lGqmurMDLfDwsxfEZFZ1d1DKHXrVty4/jA3Nzt2zPzy1//0jwDA+tXjA1ANABwAAMpE7Nox3TShCOZ4vLsVoQgUAMWnQvnf7z6J1r9CGWXFC3cU34oTy2XffvOBMsoN2Y6Dolm5d5jAGAoFg0PmLocBEEGNV0OZ7tjoYX+hli5FAHj37h7Ato4mhgyTARAIyPLLBoBwywnnHYcbAbRZKUYbfdjccR9TvBH9suveiANikzpoVI0RtDadsHw1B0g4YPnal3BM+HDFzcP82VeyP1XcMDUXLVofJ1HHDIFceZuVyFr/FE9SGO2MMdAqLWYi5gpX5Hcrx9pWnl5DNG0SRixtn67N3QGA/uHjR9Cpef4swl/96lfF22S6WICPH94f2jIBsForwGn+klicqO4ivSuCAxANZvHVPi2HEVbubqQ52D5xS0GV6dneL8zmTTfW8+7xZsLFRT+v/0EXDPDiKL25VGw425s+CKASdDtq0DSaEND0ja5koEZTofZOC0Pg+ai5HIBg3YbExGLlMd3UvFBvXsf5q5mbefTUWHkKsVaUVY6eQuXKKiZOgksLojQuIbqaRiQVta0/RDihfJ8zR7eQbRP5ZET6np/tii1G5OKy5b3scrOwyTX+Dk/oje3Vlui6u1d3pinkwnwsrACU93uPmhegzfzt8RyuLXTvMF91OywTodOcV8PejOKFstn5MQyzbP2h/pGuLZat69r1a6iSLQPz1qzh7eVpX7TLT1MPQxXPg9Iyeb7Syqu3s5HhJi03yPjo0Ahl0FutHbukv/3Y9tmGQgSGk5pMog1BFAEgGwQ4iCkWdX5P5X4zocEcGFFTCgxEQFlfz5gNxdlp2tRjym5V6isdH/NfJXSSrsBKgwAOaypCTN9tb34dgBNkU5be6nSFGvchhhEN1wfzAT3hhAubE9PNEEN6iVBSgyZD7ml06X14bIq2lZK36r7jtMgO/M8fv8slPchFwrTnOy4ymUlthhKwU4Tut+1WCybvFdK7lTtoy6bo0anTIIl16C/dBCfKndWrHWDLzeyjuOlpLw5zAz2wU8z8UWXzo/6fGpZ5MzJdMhxTmx4MHdPSFAWR4YHCdxyMSKyMg6nDbmI6LZNXoETLcHS7wH1uYx7E2UIx0JIYLZDhpq047hzn+R/99k+5rv3P5FlDnrGe+CJnpVX73oodDv3HFmJCuJwWHYSz4G3L/JMuJo6YDcHl+8+Z8QwNJoPhjA1yNfn1W28M7nB93v7/2KtrO2Si+89u0DmsTMZ5l/rJ4REOH19uPYODf/71nwfkxzfxvv9dDPUkSr7+WXu10ytFAhRNMHj4ndLAa/EG6rWsvx8aZ2y7H4UnIcATcjO4g/i6EzJ5+ifFHdg0gLPrGVJA/5YBZgpPlq+UGZwwa+/7pxTMUaRovDhJBG1jQvE/t/47UcaSRmRtSDO3o4fuCYDDabupzJPva96jzAwQU3bmaOZDlkIRzCI+Xl6Lo8iLUDy/HutfPIms7Xa7hXy1PZylT9nLp+cj+J/+4fm+1GbuTggOGqBf//Vf3lWrEXGkfrhw9/37/xa50B+EiFIMltAb5BCQi/FEvCL/au2mMeyDh4TvtN1afLlHy8RGPMA2++z6fw4/ny/RKUeHaCM4F+Dg3kgmB0MFvqiLCcMaNdafaEjcQ7tsPAMzH6oeI4h2hv6fNvfPN9ihtA7ErqPTla5rCuMoyA/ynU2NTnGXMeOftPQygKkkMCnMeURhtPhUinkWQURR+iYKJueX+T//eTBBgw6jJ7qnuq4eO+Pn2+pKNeyrSGi5A1LBOI7gjS3EDI/wqv1vS+RfGGwepIWIds5satsHGbdNROVnRBhcW4u1xLTnLdqJu6e2uP4jGKMR7zvl/8f/y3pU2m5Zu9/H9GrXbzhcpwf4/VFO+Q04f43/f54VOHA1nCbPq4cv5wm2zX+eauL/lXpkN/orPT93cZ7V9puPT42K1NRTPrmbfeu+T4O0kXLR3GJnXQUBqAhrFIwtHPZShnwbVLWeL+kLFTxymCgRlrxwNGVBAM5EGzsB4UtuIqfnmaGK4LoEXgKKPHbB9g+//V3YpR+09687PcT3/X351z/8+/f3t3k1ITPg6enpMPR8UwYnF37IYMXxh2/+a3ObQDoAlHpnWylu/QvDrzeWI8LhyEUV+bb7zRczGfD+rmzUUZ1MeCcUIMkaAQxECKpCvv3Nx0+U7cZPvtfBIbgzXMptk/d4w9ICuzfuubOOQ3fOQbggYi9wenHDFM4KrwbACdST+YUnR2Q3r1ubvxp9VoStOfaxTYBAftY0teXvvEQ2Edg2dzWyIqakaRaDilzGtjA/59meLieGK4jUoreN4EQ5k76hJnM0l+B3Jc7wpdeB1wj3WwAzeAuqHZATtaPOlY39adfK5477U1p18HZdiTg9xrbI1q3GKxI/DPVSOr76jg0yNzgBQXSniXCwjM5kmHfAskZpEPq4l/wvuhUwrbaXs5I15IoVLvSYYHKklPNzemcTNDhnvg93LFiwig2wtENMnNx9z5fTYQfSpr/3+XXJ1biaP2tebQhqcKpN9rNeXK75a/dfu7YXuz0bRDcX6KXZFZ+SyjYg8NmDjpVMoqYldzTt8M7wV5vXR1CEiTK4U0i/473NsarMrXSp7W+skPMtM7H98fH+xfzmfnPc3Ck3raqKBtq/4PLOKHEBp80ZDpmG5Iwu0uAn2H/MWxENUNPpi4rNoHJp4kooLXWS77d//o/fE/7VS/37v/vd1y66WJVKKPNb/erh3ad3ZQ4EIm8XhQM+WYQCAqg16mUkAmIlGGUZlAlEtfYtEaDu77atLvINiLHv+1EkMsJLKWUFhYFwCkhmVIMpjyiXGloLTZFUAcghbH98967gudJebMtUSQQ+/OkYeJQGNBVw5Z6yXqLRVMDN4ftiWWOzNEMwqgbo5kfEcdD8GY9pMaDj6nS4A9vOmwPOZ6qYW2nlLM7465twRB3nzdZ6Eia6btr/boDMIdTYBKOOIlTumN6NHufE3lCNvsMO+/9zYGAO48PBBzu4OUul2eSok3h43dO+3c2VaIbj1eQmJoZjSR6Jx8n34Z1B7qv+f+YU15n3a0N3SN3y21HxA3U5EVHWFU9r87uWpe277rw0c5yGZm/6xBajOQJp2RtrfMDflx2fmRwzNE4ecno117REvHK5h+scn9oUF7Cx7q+XBhyw9ZLznyePL7hej0Kur820UzLJ4KCq+ZDdVEW1wu6ZuurRZ/4nq5R4Mdye/z5J0qb0qbWPJ9EILZT8MaD/S+Z/c1Sgkt/d314Meymilwzt7P29PZsJTP8s00EYDOicJVqtjBMuLy09w8iEBfXYOLVu/6rtQzoyoJpIReYZZLBUXcpeYE7PJjujBVfcjwrI9qkAciAOAJFT9ig6MN/elVtl8Ye7f/m336PZXMs19Ofid7983PeWBFfHX/7u/mHogkYRTa0vvTN1+kX26ZO3SgW2VSQFbqJqKpCMMvpWxLLfFS/mm2nUjprcX3YDIXMOqpfg/lyZNYKesayEI3RzAq4IhFXkG4UCezJ7f/fwVLKqo0iAV3Ng/2VhUa/DtRYftMXPgLTR64kX++e5DmgRFkDk6uV6VsKb0zVVygodvsFIGek+lTZ4e/EWMjCqJgTRoV4R52prU20tk2p4PPz0djaKC6UTiKo/o5FoH/U2qdJJch9oWJ/QWASUif9H1dSYXpT99Ay60tkF6vHTYn7eH7c6lzUBK7TywhnVHltM83M0+5wWfLEEA2AuxU950yDOH71izd/ghbvVeLua7EQ896IjOuhszE9MfrvEucNt61o12nDGqCcJjGKmhCqt6qYjQjXuPTh5dkIffWCdGlimm5WiE067VIEl258L3r/l86JOjc+pqARogWqaH4qQNlXZBgUtU0tqhNubWYBzPueKutdpGoG4IhYOjOxKYsJnfC0ulI6/XjIw9xtYzoHN6ZoZmFmKbfKRNVsdLxWl+F1qiop1U09rt5VHh7rHESx0JeUWeXs6CIVnZe9gKgE8DdbzCEQucjfRgeK79cszDAoiV4Sf8h8ZpHsHgErz07SAMDmI8EqDF2MWM1erwOJy0QClc8JW46yGD+vMKFoI3aqxMIbazY0TMNdhVwJlUDVNeVKmo168kzrMLS8C293DnUDa5h/eSwp0L4WbhMSPP/xg6uFVEsVgLYWgmzSlCSNCmMdWvTl7sUxwmoFM6Hh8fCgHPsM38wIvxY0a1f6iU7bjKailbk0SYpdWnj3H/zJ7saij7XVEFIpcLzuETXSou5V57A3wiJUeZ4G6XbTWQaUDhZOlJBXmrK8w2oDGzmzhN+mRh0bYgCwqTYiklJ33TRSaxem/ufjz2DnsnyH0t5cfAAFIYbEvti7aSVnDRbujJZGBxQ8yINSQmGlsdaCGtThYAWcd6alVEEn3q6EMOpplmVJS8c6dyzJZg7SBUrjuf099bJaBedcRZ1Fg/lo52cK7mpivWYffIWzzEb0mZ6F6ZyIYr15TcXWiN2eQ8Qn1vFt+auYO0BKkB9JF0/tZWikUjuXs638e0hLevY20bCp1mSoQlqXjRQBrDdvXeEAnq9kk6B2EHsj1L+fmOyl3nOcrufTl6MLa0qQxjahp1wVpaKe0LE7tTVOfIeBwn36wIPPX9dZ7Si1rkkejhq2e8v/zQaZRompqAca6Lga3qDrSFPBkHj6/exIzjvSNDpLtfKVlCNC/rRY6tomdzxddMh/J7sCgZhOYsNQlE7a9OOTOQniRQT5D6BoJ+QY6e9MOIxn00cGq9RN0nQKJfOt6WinH0G1ZLMtcgenhUxqgTOTfDkU0QYlCNUAoUBlS6Af2tHn0boq6SHocN6Xc4Ns3zx+pQt8e392bb1SZD6Tsxb97/rSX4c/aQrNFvGx/MTDdCuPhXttTBMq/vj0Q3gFfYhuBrhAZ45iRKMjpTy+1ZqQ8VpSy7e6msfouuAir+IvHr+9qLxoQ6ALuHI9/4haQf3gko3x/2gnfXgzFUdgP9sq6H0ouq8HzwWd2oGlT+BwHLLyVPYenILsCRzZew9BnEVZuy87yozFFQcYO/QqkOLh2ZmjgRG0EbXr+yGgzSmztJjgrBCXRUAkIL1H/tWzKUb3dYol5ayGB11s29xCxzWyqXqmlm7ZxZg3zsMyof0kZdMVXnosJ19gWoG/R4AuRjEhdDedM879qlZ2On3p5o9m7iz7Y7YzYOJe/jT1tb1O9dE2Hgk7XlCtWnP0YGOGcEdrOrLbOk5ed09IX19W4r1z0pAR0aEsa61hM3Di//EpPQ03UwEWP3R93wso6uj2PfIn/+jm3TuV8lm/5kmtklrIivmUEBwpuh936vpsE0aU1V4FfXX4uuZwO40WhebN/8AX/Y8oKqpeytZ6m9MMxCzj/1EGbLdFCjv71Xm865/M7NTh2eOCcvn3aTvEmtQNUS1lk4UQLcBpZH3XR7cQxAaPYzIgl/zE3J7qrsQXsOa8LgrTpxcUmDNZ0RGA9/6NxAiNGGjXJbvG8AV47T0xUG7LI2YYTWbtrkxawG9zpk5bzJryr9WFfSgNj0Ft9Fri9vLxQ5q7CG8EstCcY4SdBRuDetDFjfClIgcwUjB1zu21xYrgtDoq0OR9ud0W1JJAPo81KvP/hh9lGhGQryktlR60dkFIst9sclQTnZKq/+sXjfa1OT1YCAPj1c/3tvf3ieT/M3w3fvX+qZhtxaUUi2MJ587eFJaVXAoehAnGVVrQZdejNQ7nTIsivNE48Wpz5d2vFo1Mo1n8O4nQE3sFK7MYK7Fk6J9vw8lj3X+wvUSAe/rUS1fHkn6oO9g8dovu8tabFCUbce3XVfA57xabNatD7YSNO4UewMZZVBhO7kCbAejXBMrxhm8eOaFJwsIIvwM4ckkxR8Bi/neFxdqZj9gFV5spfHw6zlUaers9WV611sSPgtuNHoQtw2kwZnJnSLoLpUy5joYN7og0l/us6BeRB8xZxZ4rlUP9v89Hi/mXL1OJCrV2KpXUWIVd7cq1DOEWBnVm+drRL1STU6m5t9XQTT0G0LJN1j9BzE4dwdoSZ7YjKmOGPO/h2mBSOYOvNRMCYedAnF2XVE4iYCghPokSf/Ib0xLYMZh3G6v/OBRPt/3NR5WF54sF5Vhn/Nf83s/GvpZvmqqbDWc1zVTsob5nq8+RbEQGpDUI1r4bikQjNEfY9vkX9b57Ab5UokeYhZCg4nmFNsBGwdE5OzPWJWWmdZLMQPy3lkekaKayeJujOMqYiOkDT4CZ9yM07rWahCMH/0Zo5Z4WBBlo1iB4pCfZCHkAGcRexyZ9CeA9fbVPkmz1Vlk9Pq8owzhjp7j4O7S/HmAgUlhg6KMoLAkrww9NzkGVslJFBlayyCtfIaid1HOcIGvIda8BiDUZ70saEYC9B5tN6qkrQjf7+6Vs+fypu4ekdEFkJ3QBiQ0uhG/YBeEdi00B3lGnvYUoh+hy9t++kglBeImEDVKD5+bTAFtQFLMkKJmvQsyklGfHRbO+j5xSiZLbjZSeg0g8IOUxRU8tdZlDcgRq5oKvzj2v2+MsuZZlgeGwtYE6oraYcHa5m+Z2JcBvxecJqWg8uWt1JaF472AuAo0rtMNge8/Qf3eigM+Kuuarrs+f/3oi00SiH0wNZkNFKQKcsUAA+So78ha8aCnwMKOjrL1rksd9uKa7T3umnrdlby8lflAZGBmObGpsfOU/pGvG0CidvWiCbRJa7pSUlO14USTUW5FhQOLpymE3+pYsnI5SWlmrOoq/DII7jIPwJrQ1rdbX+Ay1cCeLNsmBO0R6WUiGU/PWuuDllE5NUGy3bgrJad1d81EK0dSWiVw680PLX02PJTTqAbc5kpOy1djxV5M2jmU7yoxXmuQG3isY3wwk3ON2ETdWE3TJ/3IebNnLaR46hU3NhwpSQ8fbbBD0KQo2TO101CBN2s/ib59+sIKDr/b9YXdMxmf/GoXAHdhslUD1vQ/md1819l8s7NLJK+5OrMn60AJ1ZF+CFWkcyZUEWNBRxSjXsSsq4/zDVbtiNe4P5Yxkbp7Lt+x6ooJSCdDllmmQp/fQc0BKtBPD8/IyxtdrS0XFf1GI+EwiX7w+1/u43f/uuVs+EtxcHZU9l+8+PH57KZrnagRGtkt9/+KEaRxUqB9HLUQudybtq+NPz0+61MssEEMn//eV5uz3XGTt1kLVj7P+5pHVZXv0oX5i8DceReyBU0e9rfXzZ3aphb8fyrcjvvLp1btNCjbv+T3U3/b8jmOmrmlE9bTePE4YhoN3shWVnP3SelVhFLmwG/z8Gn2OR3fAEKAAAACV0RVh0ZGF0ZTpjcmVhdGUAMjAyNS0wNC0yMVQxMDoyMDowMyswMDowMCCi36wAAAAldEVYdGRhdGU6bW9kaWZ5ADIwMjUtMDQtMjFUMTA6MjA6MDMrMDA6MDBR/2cQAAAAHnRFWHRpY2M6Y29weXJpZ2h0AEdvb2dsZSBJbmMuIDIwMTasCzM4AAAAFHRFWHRpY2M6ZGVzY3JpcHRpb24Ac1JHQrqQcwcAAAAVdEVYdGljYzptYW51ZmFjdHVyZXIAc1JHQiryKm8AAAAOdEVYdGljYzptb2RlbABzUkdCW2BJQwAAAABJRU5ErkJggg==;strokeWidth=5;imageBorder=#99479B;" vertex="1" parent="1">
          <mxGeometry x="1333" y="493" width="85" height="85" as="geometry" />
        </mxCell>
        <mxCell id="fkhzhb3UsODcdzvoW7---49" value="" style="shape=image;verticalLabelPosition=bottom;labelBackgroundColor=default;verticalAlign=top;aspect=fixed;imageAspect=0;image=data:image/png,iVBORw0KGgoAAAANSUhEUgAAAFUAAABVCAIAAAC3lz8NAAABAGlDQ1BpY2MAABiVY2BgPMEABCwGDAy5eSVFQe5OChGRUQrsDxgYgRAMEpOLCxhwA6Cqb9cgai/r4lGHC3CmpBYnA+kPQKxSBLQcaKQIkC2SDmFrgNhJELYNiF1eUlACZAeA2EUhQc5AdgqQrZGOxE5CYicXFIHU9wDZNrk5pckIdzPwpOaFBgNpDiCWYShmCGJwZ3AC+R+iJH8RA4PFVwYG5gkIsaSZDAzbWxkYJG4hxFQWMDDwtzAwbDuPEEOESUFiUSJYiAWImdLSGBg+LWdg4I1kYBC+wMDAFQ0LCBxuUwC7zZ0hHwjTGXIYUoEingx5DMkMekCWEYMBgyGDGQCm1j8/yRb+6wAAACBjSFJNAAB6JgAAgIQAAPoAAACA6AAAdTAAAOpgAAA6mAAAF3CculE8AAAABmJLR0QA/wD/AP+gvaeTAAAACW9GRnMAAACqAAAAVQClYS1XAAAAB3RJTUUH6QQVChQD1ejivgAAAAl2cEFnAAAA/wAAAP8AYjLrtwAAFLBJREFUeNq1XMuSLDduPQdkdd07Gmmk0XgiNH5sHF54Z2/8I/4Yf68jvBmHF2PLetyuJI4XIEhmVlZ335bMuCF1Z1dmEgQIHByAxX/413/DMiin3yg39StO3Aqq4/rjVh23Amf/kwkfNnz9bNc2HmCUX9yr/MvL5cm36rLxR5HAE1gcAAGIAOR0cHM0sAEOeL7C8HiUwpOLbl/ahyIT+jwNbo7C//3nf/rDBd+bYFLI5WQ93C+i0chYCwBwQyO4XFdfKTgAeJFXn08weZUXV5HHE6jxZ6NgU/KT4ZxiCzamkfpxvDgMbnAKYH8K5QYUeZGTMoH5ScjqySMEW95qDhLVcW2oDved/q8brs2vTSL7ywRCRVuRGWRwxkLBAH9ZpQAge1XIl+8nbkYA860FTn4y3IqeC0BBdAcKrF4ul/FRAFW+ff/TojqIMOLa8I1frhsaIfbVMeDS9PtyvXADLGQzOeGUPdGMm0mhcAcBmHi73UxdybmUDjaWRYiDUoc4sZnoAKwrb10sGdt3f/yyaIPMY6rw4qjQpf5c+Kl4PM6dONc/hZr7mQCU+t9w3dCsaz7GxXHFVj3Wy9MunFCxjXJLNYS97aeLOwF+6SCcuBmeRbO+i73AjDfDVvCpgIRStaz3L2/ElqoI/QNwR2MXXtxN2RzVRTVgeC0BXpwIS6GwuADT8Y0iQDxwCI+t4OHnvEiNLaZOKNRQRIMTZnKE6d3rXyFeis2cX9jSg+FFsbFFn7eF7Rwnp19V3Wej782ci4npCI0wEyjr0unO/xOgYIDr/LnrD2L/5+yihslhhIm+ZGR3DS/pzc/X14YW8le8smVUoMXRKm6tgEGX/DX+e7b/i0ClJICvsUBzlkohRXM27uZFELmH5p6n8DnDXg8Wp+LzxO5SrcdPHuU3QUJxc+aCE06YUnua7wjNt4AG4d5hI9o5GZLblGRqz1/Z7veSr1bw4mDiKCJQEN0MDYTg0zAIAPXado+8uNWG6j7kDyGvGy7u1wYHRB/XqyMCP4Z5ywAwvD2ryQlAZpovWoUXgTmt2Hk74ZWzFfY+siOFNaaQkmkrehZRFJozEwq3IhlbSTdWhEavXz3TmUgLeGp+KR8rt76rc34fhO/K07XElY4fFbjq09b9yRqcVaposrR5Dfc5IRgAuEiARJG7qPCjXWw2yMzS7uZdBXARASjXVTHhj1998bGZMx4OCqZqwJN+LhIj2ECiV6FeGgC49S3y5F6bXwRn94DxoKeGJ+jauvI9TABgAEQZBqSVAU6haEWvvmh7jjtDMMAhajpbBwoWd5OWu9jIAhkJFHlVc8QMnTKTyFbkBIr6zo051ZyHh0nEWjQfGYj3j+6diskcIDNN2oNWqgd5KpHSElN363G3KHrFL3zeWD337npKc/R/DoD+YrTPJwII8/a+BQMshczU0dvHzv51xfuMVeD9RTN6ze26dzncRaxhAsJwb/PRWjDZHhnClFcGoFLCx/Mkx09+6TBmmd6r0h6f+TCOmqW60EOkTM5UYASuUKm9OXqv5nOn8PuneP7Xfy3rIGJjOuhD9B0ASIddixA7mUJJOS/SuEcEwSIQZMb8sb1XCbpnXawmUfGcQgcn6VxXK8iP6RQa+J0VrHft7shp2elq79e4RnofEgRPUH3yGTFbJ6jT/MTUA5iwOPPAQIF//cRuT1LAMas74d8DAVd/zT2dkc/08FX1yUxEy1V8Er64fKhqqWFrBierQz80d2y0mf9L7IGdoJITQKDkp1pMI6+TCAJOtGfNJKhbiiBIkZPPmQb0KEuSosUKOi5YFQ+YjCQ7JnOAIAkSlBSvMXV6Q0AtggQYnCiO6l6kpzbtqAibofhB/5OiUsSAVf8519XzJJo6Kv8UFP6C4RbkJf3UwdrcHA6gUh46KrH/geoI/idU2WhCx//mQDHvOH+MtiDFzgtG1lC08+EnYudyjLm+3QVq8TWHpexBLXCYDutgyw9uB/ceVMHYMwxGZYkR98/yZTZ4A5i5N4FfnREY6GNwmXsR5sap2CUQacb0wbGYIsMBpola53hEcKTZO3WsizVdwkTBe5Hpe/XtXnev51eFx+njlpGJ/J0LAV302NBTpVPAXU7OJaiuiMjGwi0hN03s/5v+mUvw6pJRqEuxoYvqQDMVd5dZgpkd4SejaALdwMaR1i85wjS58eT7QP04C3jZF95lTa+K6ndw0wKGVADBB0bCnPGlOzknBAIGmaMFD+KZWvfMFXOneNQVAuwT3hPLnkk60/uOzYWOphwZQNN1HZSZd/Ixghw3uEGu9XYP2g8oIct4UjW/re8zh/mVzbSyCm4m3IDNOp22gQA2kwWyV18jQ6QD7ticANG41MYEh12fvhgIItadchGSpiYXdZVSwpHnPN0ZaEJiZK5MRgLFVYlCm8WEzuGDrSKRTleKagU1vKUIivRKUZzrTAFCM44wMcm/nuTEorL/N3hRGEL47t7MczqruVIACiVoZv09oZaBIblFHSFXgY4DIPVV3qw1jKV0yIGKowNK/vNzEo/XOdyBf8AAYbsMjDp9iOOYYlk3K3R8/uYQ4FltWgY7It85Ar0TXb9r9BfrwQre1UVSJ3ZEH7b7Qba/eLoc93PoY8d/xEZ++CTZ6t4Xk7E3RrUkyLpUx7/2aq+f3DLepBdCw6vT2EWbWI5zYQ9oL8KY7XfcXUZ4P69Hpb5e4Xf6/iIiamiBPY/mZiKF8Lh35bAFpMiO9jJnS4T+V2+8E+glumrlZH3hl7wn8KOwO69nytRf5oC8J8oOSLM00zNou1P+K0M2/w05o/483fMO3VZf3dWca3ntVe8YAxfsMtwZCJdt2ZbFK4ExXhF+NX7rQWC8VwZWyDLOTYuoPtLEIH+d7u7qjERHV24UzIzJ7XZkDgO81rlkPa3mBtaYkOiAU0P5vnlbt8YwYOkoYmjkgsu8cm+Sk3rujrCUS9FltynoQJMcUflclnzn//wMeB5p3LcGodMdFQhgU2dkBbClz+vyL5G/l08Wcx1L1nC4MMEaRKjOX8Ow6FAFNwBrdbTr7tE40kYrPsGJyzsF+ehW0IVRNDwt7TB9A874rPhvwmdY9qMcZjcXWmtd2OYUZo3sECZT/kfO79cYfver3f11Ekdcw2NQ7fwFBQPtvf1oPentOP0zx/j/htE1NsDsQ+kZAdZHnBjrfLeJgiJY8P+r3SB37+o9Rfo8RPe4MLCH6L2ks78zr7x5rnwFxt4Lf19HenT7iynzKszOKiveN/R5gh/KtzxqKcPJHT+Fu88NVlvrvUd3q72cPvF//Jq3VgdtZI9JOQNwzkko9dbrWVntNQTYURSUNTFP/NvNyZMmvs/hbUlMznpkfACq4eUMurTniIepCwG46Cbi2cou/gNg0OUO9qK4CLrVm1pfsERlzoLscMgnGIB6eSp9I2jUjwFWI1E0y14kDCyFwRyW6HA19jW1Jc53yYEifP3Vl+YTa8doxF9uPzZL4hARw+3Sbv/y93979Ru0QDU60X7zzW+KfntnnBr4YsovVN+3aYkjSs9JRrpt8MHhURCywe7oCof+78dJKTLqbkUwR1EvNNjqKumiZ/3LA8wSetLtY/tEFcjYEwd3SrDnGVV3C4BhQ9mnVaMfA9kCwJFO5oblSPtO0gwsYSx/pfTQM1j0F63CcyELZ6K1sCz5rtNsyjvdgneOSZLYyx9ItjdUgqW3Q0mQ6qSYuRN1aJVnDQJHdS1RGm/Cne9hlutKlRhOVuFBO9nuxYtvg9NNI6tzQtq1huDAXB0ECz+yVs1498nT+vA7hEcAQ8cg58ynMuPf3HvxM0aBJBjebBYR5eww1UfLTMqcHZhnE7+jvdWb83uv9SA/D2O5OFgdnVHdL40qEDQHRXPFu+U2W2DCizdDo3PRRjp8F+W7eOHUI/8HEzLe7JQ52gqawdSjkacmzrTtoIPRLMd3Q/ja43z3h95i4a3FdQXBjwZBtAZAHjR2WITTQY2OwI6uKY/Yt2x4W35dZxtlNM++GBNaRnsHRv/4i2MlNj9vI1SW66juRPC7tY1w9fqxWbbkyQiDHIoibxgI6Wy+mhy9CKC3tgU6ooZ1zLCGBWs1gMT//PiDjSpIzqcRMmlkBxAkQZK++eZ3H9snqCZd5L2RgTwFp/f8wtS/ySInbfbsjmZNYG8hDJrN0WyDQFhLHkIw5wYmpSMizGHu2KUkHR9J4i27oMZiQOwLsarVX++LR/YOjULeZ5BXVaOFMTudnN5sNqE6QffGfmZkrXP3mJf7f5/MH5Olc+irOAXiBjRO5LOr/L4sAZPVeddIx0ygK3zn+aMKFBWi9Orp+fvCw7NkPFpDnd05pXKADuyPxR/s3dvw/P3EQXqHM7CwMPn0+esSid+kfzzkeW0Wc3xBWHsUmCEgQYTPdGz3yMQwu6DI3jX5ON0bRtNv+Uxa4PVha6ncHgh5fufDv/gLwWhtyBj9hQ8f9HBR1jLObJ15BwqqYOL/sTOTKlqa/CZ5ZrKZcBMm32YlA5YF4jlbHU9wYLrbfSH0UM/8/PrSO0Yt2ggXrMhFK9oS59s9nhfQbKIxEU5Rbtlm1DcqES39JIjhSxlHjgTJ7gASpd3WdQoFIPyDPxdtPXxmKfnqzwUbsWW/vANeohnXKzOyCjZIJ2pbXxgS1T98eemdCXTIii7+/U9mT+udZl6EDa0XxTOSiyC2S5kuZOTzpkLYbDzsNWw40PTsg9sem46yIowg3/MlXn37x7/+3dU/xQKOHVr04dNf/ryp7VlTiPz9t39SkqmO6NKQ0TffwC0qFOlfWU03EUVNANAy9TAC0kK3IDw8GmC9RTUaNRyQZdGSad79HYrDL0OtJnpDcAZuMCr7P+gk0/B8bDqiffRPH9oPuRMmR1o1w+2omgrVwvRkIgyt43Fuhptpy7pbRGLWg+dn9IlEertLJGYdflxR733X8KP7oWiBQT8CtKyD1qYpedbnIjlwGthPIs1W0cRPOLaP3bPsvlRQM1OAgA1oEbhLZDpr/9cgIaZNJhdyrL3/gjZtjxYTYIEsTNPFSpNH/hfx9bOev2KnnLNlPZCj0SB4p4qDE35XiJ0xvO//8D0LJbYr0cHUS7ECTtJVurK+lK13XZyXu8BHqUeoeanMuKgL0AB3cCi4Dk2ko8qKp8ztUJ9fsEu/YpYh/e0aevRhyjt6m106rz74xDTSBfeljgbfTnOw9xF5rm89dDGIs7Rj0ZAdoXiw20R21Mb1yPAezlU7xzDzogkZ+lM92fSJCwSUviiTgx9W0OH22Zp6gpqxpsFTgNtGR6akBOrVfxpyAWDv88tvN8gHgd4Z8wjvE9v7Z+0YcZQyNTRY3JNc7pRHeksv2h5wG373Qy4Kb8atd090FyjZ1son2eZcoZ3Vv/n4PG4m4Lj8+dPWcF3cUxwNYbViKqUfno4zaSrCF1aPHB4B4Oeff55STuvgU1kdHigvQtHl6y8+FDXCR7VXtItfGEhgKbVRDnDbtiM1Rgn4z//6d9GZ+CLSk1ZavdZmmyhxfLuB1av/NHkuYIMXqLFwwX/Zt8u589+m8r3p9/8nnT42WhjkZvIiDzzapy4r2Oz4snPND22BG+ObRpjJo21Ob9a24mIL9BWLWcUlz+vbuGV/4TilA0jLMf5ZP+O+XLPIeTjY4PtG3ckX9v5UOKEiN3kZhZp+sr5gv//7kdk+7USkc1HUCzYCYA5vQVKYi74Vd/o4oVcjteXS24aeqPb9f0ezHmg220+rN/MezvPsm4u4XHFlKZMdw6u7aIAwnmd1ryAC8VBiDVbRnO6whWLf1//vE+zHvOrEcxOr6hSrzCvROI2sMvWGejnuBIrVbxx0kK9NWvez6j66444CMRh9EwCaG2nZv+gdVyjOhWP29sUhl/3TDywW9nFudn7fj8mUL+WAvh+Pz9mpLuoRLVX/WeeCRulhj/+WX5azIAbUQXWMUhyA2Sc3BVlF3IP5fO7dRO/dZMdndNDm8TxBYsAoc0SlGIKNbxzCxEPHHs7xJUfjaW4+nXyvLjqwEcWwqXcCRtHVq2wD4BrJ5WYRgRa2PpYmvjmGihNBJho03jEPW/ms2HgkniuUI1qBB4WiRBZFXnV78nLxViJFowQ2Q3UHqlizT74vqwmOS3aHo+2SiPzyA4taS6RAauaNB8ekihL5KCS5QK8fn+wKaxkXQrdF/lRqUfecojnQaEVeGd+RZN7TjFC7fnupWJr/I4ib8GXJXp1ZMm4fNvzdbz5c22gcHGdo8N13f0o+cdY5KA+af28RDt7+8t//Ad7GFZMRVPHv0Z4Juk86iaiIrzoQwDi5UcA4lREBOhyEE17kpokrmQZpIztJl8ZeuRHkxDauu8zgBhV4bL3YrcJW0J78dvVndTjQH++slLXZjOJQAR0swfK3fS5MNmAg9w50A7M1ohEFFkYRjqZOJkf9khMNtqP6kSx4T0764lmGvN54xRFErX+9EGw5IGbZasPeERonZ2lLR+MARe/rfHtL/9daqtJ6tDSq1t6izpcwY+zk0c+avRNIQy2QZb9QWKl1CdnGzwpeKAKPbIj3MMR2uOWnXSNvG69XResu/SayoWm3YJ5Hd4OTXLbPoZ0wjgPuOKJhiqmgQ0zoFevdMc5IWnq78juqmvtqCf2FdTj5/qf4opaRnCQuwL6p/pS30LAUk5Kod4Pn+ccNiNb9Xb10GtfuaZ7fYfbu7pZ14c5XsPa4PVEAKSua5G9Xmop5gQCVkcJjlmY2zC+aCrE3qBk29mjUDOYBTLg2EiOLZQ3cxppqsFXHJX6jIeyhB+9XQUP/NuofFu6VP40G/BEBDSSfLMmeWTKHuxlkGtkRO9No2sgbsMUqUjRUYgO59m8HXTuM5Reoeoh6z4g+XLuazGxn/oy3b74C8FMacJhGgez2/BwO1hn8WZfKN446cr6vCdtXX18ZAo9SBKzocuWnsvh2sThwbeWvvv32Gu3pE6JIKGZrBjzKy7Cz5lvSnp6ejG2F20VAce77V6IyUMf5gaTuRT4TzfqZOSAa8/gEA1SdJUujboI4qInp7Q0bcQMq8RwMPGDOBlnw8As+GXWvCIGmRLyprF+l8vXwIf8HNqgtbbuJQC8AAAAldEVYdGRhdGU6Y3JlYXRlADIwMjUtMDQtMjFUMTA6MjA6MDMrMDA6MDAgot+sAAAAJXRFWHRkYXRlOm1vZGlmeQAyMDI1LTA0LTIxVDEwOjIwOjAzKzAwOjAwUf9nEAAAAB50RVh0aWNjOmNvcHlyaWdodABHb29nbGUgSW5jLiAyMDE2rAszOAAAABR0RVh0aWNjOmRlc2NyaXB0aW9uAHNSR0K6kHMHAAAAFXRFWHRpY2M6bWFudWZhY3R1cmVyAHNSR0Iq8ipvAAAADnRFWHRpY2M6bW9kZWwAc1JHQltgSUMAAAAASUVORK5CYII=;strokeWidth=5;imageBorder=#99479B;" vertex="1" parent="1">
          <mxGeometry x="1425" y="493" width="85" height="85" as="geometry" />
        </mxCell>
        <mxCell id="fkhzhb3UsODcdzvoW7---50" value="" style="shape=image;verticalLabelPosition=bottom;labelBackgroundColor=default;verticalAlign=top;aspect=fixed;imageAspect=0;image=data:image/png,iVBORw0KGgoAAAANSUhEUgAAAFUAAABVCAIAAAC3lz8NAAABAGlDQ1BpY2MAABiVY2BgPMEABCwGDAy5eSVFQe5OChGRUQrsDxgYgRAMEpOLCxhwA6Cqb9cgai/r4lGHC3CmpBYnA+kPQKxSBLQcaKQIkC2SDmFrgNhJELYNiF1eUlACZAeA2EUhQc5AdgqQrZGOxE5CYicXFIHU9wDZNrk5pckIdzPwpOaFBgNpDiCWYShmCGJwZ3AC+R+iJH8RA4PFVwYG5gkIsaSZDAzbWxkYJG4hxFQWMDDwtzAwbDuPEEOESUFiUSJYiAWImdLSGBg+LWdg4I1kYBC+wMDAFQ0LCBxuUwC7zZ0hHwjTGXIYUoEingx5DMkMekCWEYMBgyGDGQCm1j8/yRb+6wAAACBjSFJNAAB6JgAAgIQAAPoAAACA6AAAdTAAAOpgAAA6mAAAF3CculE8AAAABmJLR0QA/wD/AP+gvaeTAAAACW9GRnMAAAAAAAAAqgCOwuKtAAAAB3RJTUUH6QQVChQD1ejivgAAAAl2cEFnAAAA/wAAAP8AYjLrtwAAGGhJREFUeNqdfNuOJEl2nNnxyKqu7u3Vrna1JEBBEkg+Ug/6Jf2GfkGAXvkvehPADyAE6EEUQGolrbTcmb3NTHdXZbgZH47fIjKrp0eBQU9WZqSHu5+bHTvHk//6P/x7IIwNELibBgg/fPON4QejgFJcAcDbQ9W/KNulVoAAwiAM6N11/3e/+Fc/uu5gpUEAAMxvHx7+y//6f99cLuEABYcoM0x92msNwWEqbyewST9/8xBWOAQEIAAIEy+fnk3AYYJG/guAYQDtxhzn8D7WT/dS98t+jR0U+rKj3xRA0NWcQ+FwCYCocYNgAMUwAQoUDUL5aDEAmDAjlwHCDABCiDUXoz5a5DhAfj36nDSWZHh5/fkr/EVvtvXTBGwCIBy5oMPWYU6OfaIAAa9DM19wfEl3ZgGBCKv2nc+vEKB9vG9e7YleXgP02Ijca+Wnp90ZW5wvAmPW3gDAcU/aMO9Mn0YAmltw+Kh/M5YtaO83pYDMvlmGiYDAO/K8s/ib16tIdbxHXVr5woTHqo/y//7r+LWgBUafcdrpMKIxjxBDCFoBjd0tRm13KeVgeHwazcTmIw8rX2SUTynLPt6dc1qrAbFtSt/W5ls2uMx9dHrB6B87IKVtpCShTdgqGM0LDLm9RClb/qkhgU9b2SMq25dzovlRVZt0Gp1hmgA27RfVcPSNIAAzXHelz83RFAA2749WqD1xuFIRNS7NvgxTMIRQCFZtRhSAtg8fKwBYuZqmpLAEY2+TaOMK0k/f//Rpt3hQimL8nz/8ofS9HSr3sVx/V/dPR+GIMMVg1xS7701R/fM//ZP3Ly90AAiHCCMq+ccPH2vAQ9dMAg+6/pt//vSgl2bCrLmXz+Xyd1/99rlc6ADU3le5Fv/P7/4xJS4GwK2rzuIU5jxljiDUpB1w8aqh7bsvEUH25QEOEc8l9oIat8Yciy+OFGzq9kPdH3UtSvsKEwIr41nXHWFIiNQOOh51farxqGe40AIrITgK9otq5YaUFBUWDQeKcaWG4/uM/Wus7Rg2pFSHxTuGYVqLF+gqE6+NzsWT93iZoyL3tytHYPH2GWjT5bh76PYnI+UMwAiD09sDlcHlK4lbwO/zfyfXku4039HinAQYCIhu9ina4N0I8vkr4+tNONAiD+bfQeVkzGmNBojmO/K1IPSNSP/nHMChz6y/q72WqcSqGOYSkwkY4kncbpDpnuSxuM+hBdFWHt0ew1we1IdNP5fTA3Uvrs1h81njQY7pIwF9Tv5xF76kR8kP0w777X32yAivG0Dx2rVqmRmVESlDwMz1xboFC0AVreKMUWOpAhAwDVodNqrDnMO1JSD9zBYslxL8hAMIAQlkGuYT1vUDIKP4dfs/b2uTyTViZ4Dd/BFqCDpyqstORBjFyHwhVRAWjbCKVbwDkYunnPMf6hzQ5/3fWT40TL0EUQoAsbSBMlalb1rWb8TO+IwLvLcdsZPPpfCwcWHCDewc5EJjky4SvQMAaiYlF9fwXlxyzkDNiRUzEuVbZhDYyLMk8tbHy7ZObsj5H37/NdHysHF/AE/bw+36K2P/7PJPCYmBX33128e6TykZQNB4enoaqHlOrOqn796+rSVUAIBXheDtU7n85OPLw/bAzC+5A6DjucTDcyjCpBCZ/32JWBb5REvsgI7zHcWKshEqCkBipghx47q+94qdhUtexJlxhXzeLxrF2rT39yUJ3kuUcN0kQIaAxD9Iv8IUTsu414e3/2eA5K18aNDNqt3AaVAMRIiBKCIYNIEwWVNcp4xl0bLbtKcyRureYiFRBCFKV5LpAIxiFCvcEGqxBYUTpO0tW2l+nER6x2A6hS+0/7H4Nv+bdIxmtCQaFCP/DywA5IsfwrDVEHSDQz0E9hT78AWouPl8J9RDBBRQwGj5X0aEMRMBJZdzWr/uzQgjKGtJLceV8xOQLvgLFX6V/A0t0cC4qMR5Le0/YM7PX2uQb2LSydcQLYt67YpXcNjAJOO/vi8JXI0DbPqhCLBv0HG2wEqrwFQ+sX8c3ekuE01LJ8y4nXPev53S2LtiGo432o4aI8hP8060F6KA5he/FwHd8y8oAjnz60EKDcYhRdeWMXFegFUNm0euOfUx86sg1XExusJuf/HHr/sy1OcUz6V8+/DmJTa02D43NYx69Oo5UM2MLm/v+VxLFib2apCySBe42PTMoQAUjSgfy0cz2xwUSCpdJT9sT0D0vOPSeIfy8LF8eI4HIEyJu9nin3oGlRBu+0//9s/7dqDxji6/eXr/13/7337z8AQEPHVkDz5/eqkx0BlBgLDx4eUlYJirKjUbM9QgPYEQdLH+8mc/f9QVM38LuBjx3XffVU4tC6gasF9eXqoyHGb2KSFk/s3f/eriOrSxEpV4Kfztp+drhAiFuguMGjveXkrZL92dbn/xx68Ih5VMg1GA7bH6/fX5Dw9PSMau4XzZ0TT2lJEQJmqi1iOgbrm9ozGrbOD8se5PdQdrW78JbBXlA2TEsAvinA4qUbdTv+JTeXz2YRrXgIjn0F5SVYspoQRQAxF1JGYEtpE6xggVTjNRcgkBdbZHkyxe8CkX4wyv5tLZ+y75BI4jS0eLxn1ki4yYfrrb47xbcONLV5cR690L5xmGqcQgwbaPdOKAFmJe9f8xwFbzGopBH/ozUSPOfzgWgnTi9mUFisxGqGUVoyiSsh4faX58uP9wcZkHF0LhDv9v8MjlnRYguQTOMX/9K/Mf3MNzjepaKLY4wsF0ICn/sE3RC2lyDksjqs/wzpvAPm7OZQdnBaXNZyGstwxqrVaTtzE6J4e7CuJjLq3BRlBx7/6Gt91jk5eAwghPWd8+qaOJttqSNy9VsxPcmhGuyQZ1pC4dSq24ZhMDiHSq3VdRoBFikgixCl8h8VDeaOxdAEdJpLUHREWgJmMLuK83hDBUGWR7RmUM5e0LS7YvzMCymMb3jqLTkZUSJ+E/73NO0160eavo/H+TDgNb8g2VybTGArKwVYwFrEoqZUWxDjmm5K5SphwjRatUg+sMYxMVhiOlmm7nSEYTsipJRBzrHyBKErudPhmIaISp1UMkI7Tiju333z4DKtYgrcPl977sZpXlUTaSLVf8yx//pOtvHMLSdR8KMd6vgQ/7S2aKwwJr+FL18ePHXappFYOEcnza64qKeqFWz9cP9CwuDuT7WNKtTI9gSkRspQa4ECmECvnjd28dlR34b0IhWDlUjpVRSTEa2dW2MNhL1NMUJheIeu/9Cr1IlTPnbRYIpVklXIlk07Lyjk23Vs2GgisH/mss+M4gdMCjveB1jxjNKpHiZP/FLbFBU/hI+2+7MjA/ZjrZ3mIWwVFjysy9CiYqusNLgdXFzaU4TVQ0HjUcYs1t6BreoobhaJJvkxJha0uzXUFnW6UHUu5hO+0c4GL/q7EJQLP51y964I9W1+HAzkMCM1bTCs7AGwAdPZ/uYZ2xlECOyBLgjHPN75rJtir93Iipa31xme/kv+MIBERtYnTjeWXZw5pngjQ+WVHgGhHWSsGEZ2G42eradDGtN4CwxQRrOG2GY1i9hmxncfbGauasWmKjiUP60w/8R/iwc1kzQ/O6GszRIst714m6RdIwszR82tUOxZU2wtyCsW1Dlb6YUGh5+hyhS37WVeYMtzjOo1Fua6U8fe2hn+GO/59W4+X9QEKp5EVv5xqQW8tM0+U0r9Fi0TF4i96H9RP0MVbcY5+GwTczMRUzv9p++aMfR8q2o7oAvnrz9GHblM0ZA1x01kFsHn7tNKnpVByg4qhEvZ9HgIoBqygpepQsvGd9NnfPNRn6zEdFgQ4hVNnZJ3QmrthvFMVNWjPEEs8bKuHGxCBjZ+bCbkALorb/+Pe/BED3eiEcxnMpz+/eXUvThdU6yGpOciI6I6HNNJJpdteFsP7ZY+luqQyW7EH6s1/8bNMeWSjtpivyuw+tmK9GrLpSBfsvHt9tUg214h8B4CL9yduni0QfwsqnLf7rP/7q0xbiVKAw9tA3eN7LLDdtv/zRj9E9UAeLBvBm2wCQGj6zBuBoOLf728pmDjmF0eQzdoeoJXelDa6LtaluftlcHyS6LakyzHjR1R22ZLCu4U372/1lc63SEmjjQfv7azyocpbeMuXZNl+JrVhecGoihVb/Zva/HHsTbk1UE70sZY/18tqXMu0eyVICtXN1zXrtXrRNkrJ1UwSkYxK52nNP3Q85LCcZ495Hg9rZ7xqN/+vxUTULld0i8KoPv3clkQr/gK+go5EaLSdBx2dL88/humVEx7/RlZydFwoHHQQ4ebeggt3gl8lPkDJ5DWqLtapwpJnQvXrPT9WJ4Fdp3RUR9LxQoyPqkC90Tn71la/Lo7nU8GGcJIuLOvxJDwUUsb1PGNkehQBsITToA39h/9s66S+7ZQTgSZ/ny9EdOtJW91Y6OsA4dVb1KttZI9atGVu9fpcNvxQzacmBnFb+4Wz//ZEnLViFwIneVhPy0roZ2XUAsdXnpuMorTgfRUEb2JgJ7Ew9uM5vZPJeXo8tSMvaT92HC4rrpc655eaBzvgi+S904ut6wJs3G90RtYkl2DkcCM8lqlVclnSDIvZYMLVHMjNTeiymJOK5cP1K7v+1YA8oeirGNr3asoNF/pdt+fJivZ+er+flGAG8f3pzclH556U84ui90qv/+quvuzzZB3F4/+1Xz5FJ41IdKdbPnt4WNT8SkLLJSRVv3kJmc30tERDiH77+zakFiMbzxutj2UtMf5Q2UPC7b/54LVMBfoD9m5Rnojje7ulV9GJY/9cEE4QteQczI9yeSwSySz26+41NKczmI2yYUUNbTzoyt4uuApV4KaiRfsSjyeMlcI2oMaKAWimVYTayY6x/WQynFvTerkNUZwMyoxKOhg+cxeYGltkS1QBY3As5jbJr2Dk7dvputn7GHNrDizJS/sPyb6/RYmJqQUFtpy7qqGEhAU/+7wdcPjfL6P6/rUFSzHrRimpaQ2qPlLlNjUEPGGKos1MaYl+FsOTzvXA2SSFkWQ9Bu6jjd7cULmd/8H9cWupvMcmRBU+aaP59G67X7UnvNTx2zJT0/JRbEHQ7bK++aJVzZPfBoCjZ2tOKUAI2NmsyK1M71P2Cfgj+W+VwRxfjtW+JdlPjWbHRUQ4D3txZ+eAbuh71NrxR28l8IaKn3qNraKH6ZRpQp1DU+9+HsNq7nbpZEOFy9mIUC6Ip1UlIC5hEusyQEKapOxyATtTYvS3AwlsNsS9lkaa5XdEiOq2a/Co5P1Vzwb0j1tgC+xAIc6KWORaZ3Gsr43OWSYRRDO3lgcG7TZYaYdbkC1zgLp+AHO27jU0wBNbwtZS0srZm2gChDxfsitkU0SQS1+JK+gYavd3VWimSLKZNFcVmXduRBwPYHh9mLR9IYwqB2D26z8ZWF8bz88ceBYQJM/Hm3Vs2GRpjgwJPb88tgE17y5Xu5tfjv6CP2yd2JmqoUhH++3dfjQbIschi/+TtWwAKijRLkSS83f1X7//07RVb482kgKivn7b/+/Lsx0lJboGXIX8AYMBboASqgHFAarTGiYf6ftaCyqw+oZfSBku1ZzuI2NBYULIALriFrfQG1NItbcm1KrFng6MP/fibdC0g1FtS1A6ZGe9e9JNnbLVlvo0UKnqoi9lSG1vmPGja1i3ZI9OeDPxIPNHqZRMUo8fb4fCxjvfDrxipPJAs43K4LFb5YwDq47WmEJ2SAY/cQe/EuGlFSy/KXojjwfcknZzJdMzZNujCJO3Gjqzjx8LAn4rz66dHDT8s/rXrSzruWnN9bgU1spUNvqxbYALegAKTKHAEW2V3nmK51y22ysG963psQWdWecQyfbw8ApQTXdjTw3Ne4V2SRPBNXqgeYnl+1iw3jH2J1quLgKOXd+ilMIm0rRbi1CimDELu1Agdi2md5DNbETEZvMmLteDcHwWMPrd+mkpgUhfJprVPuSjpoVjSA166hpov8vmLPm8LnaiB/0XVSDy/N23NeObscdRYVfpwulXcMFvJJsfSF9CPBC2YQm5dE+NYikJhN56i/7vWp4S5R6KTvM8mj/XsjJjn7qRona/ipI/BhOGxXdTzXI7enh3apL1DmrTnRt6VRkvOMlAv3aj3LmTk16CxjQBTm8COsTJtyhGyq8HIBrbsgpn6miwSjdo4IiSfHK4KvUQbbfDcu1GMj5ezrxHx4ZIp9wBi2n5RPPeUyvgP7G9+9g7eht9xwyr8UD2aTdXZcQIPZLSqfCoGDbpgV30ZCUrfYKICJRuDAhZr2gWNl/rxRF3mN99cHgDk6dGe/EPAV/6Azib2+/2WeHj+3bvr6C9r4OxbCk8Pjw/TCW0PrQlxVrKTh3rQBtRl1Cxu8KK4RiQiLA2EZr81D3VXT6ZsVGzSkGon9QQENbEUEFTW1CvHM1PzXdNEstxJth4gokbJA7braacAPnTORcv6P22tTwU9Zm2eBcau/63GLGBfmhlbxwrh1vDdkGxPcCh6+j/1fjs1tB39K628t9r/9BSt2+ccI9TyluyvagoshImSQ3bf1pofkEdg20xwoOHdd1YmNnVaZtG2yEaYrguIPHU5GxItI6ZmLA1wuJn5wqb4pqR9uk5D9PvV9b3ByvCQEDrdNIslgwLREl/6ScFh5s2rbPAFzLPIZZy7ABDO5ucCgGYQRHAJ4PziVv97C70fzO9H/s8WacR2gvx2MlmwWRtWmkhmB2n08//nmwKOtc7BXj8f951awMds2u2ZuzHi+HsBzGDQ2zIOi+/vdCe6UJptF+6gaR8nc2phOI1/C9y23lqazxwaJWLvoQc925UaXzCfILTWWoOTlnKA8kJsRcM8Ok1o9N6MclOG0tNqWx/WTfvsibB6tf7fBde762av1ra5nZnDkr0LAKt42ErZSuayO0WN3IpApNVkvayt/6Wgspy6XZb2Kc6qc/9gIecz7xI92oQSw2tUQSsAlPkLIt3Oa+C5rMlYu64broHKgfm0vadbk1UzdRC4Fnyzf7yWQz83jepy9cWD3nCriNbgp48fKrYO8nr/G3EdRzkaQKFhmFf3hpyTTraKZgvdxSxZW78EoSKUScKKjI/1pY4zvVQ6gxfgf3zz65uaJmpIRVWjVRHb1smWqZOGIhTaA2W1mTwgQAvqnV+pfmFgZ1Qya/hDemoU0Bw8zcGsaOQXgRZxE1LW6QMjFbUcsRDXTLRR4/JiL1kper7Mb62OxGU6KwDbfVfsHoMNH6yO59u6IyXqKQMBFBzh/YuI1g6f7/g5tqO+2S6PmEmU8uctwFMf+E1dA10iC0l/l/9fWepDk9Ooxqr31by+sP8f5gPA2s80BipITYxJmeU8B3ziFz6u9z/067h+r9Dr+Hpxs8t5q55pr4Vnz+4YU73acZJDX9vSZeBG1a5716mULv8yEXqW9OwJhE4bL+A1hDIne1x/HqpTHjkf7bBjzNax2y0887xZnM7jlyNf7rSa6rEf7/Oyytq5MD1jzWDCds4gi7mZg51+WeTueCup3xuRhiRj60T1ePz4VKOKuexbSSJhxAX13xVyHsg64ajMeg/NYqOPbtKKI0qN3/OJ3g7Vf25LpsBaQ84OH4TBGrCgezbYhJQealaBAdRVr7e+JcsQrCB7m7mW+rzEqBhNZaMVl705QULpyr967dxFdVd/oLVOetlbgNcuAG/Wm70+1n38QpsAM57LdqUrT/gix+qqvXbAG/AG7oOV27ZLrDcll1RLXC6hrclvjs3y6999e43eNdp0Jx1zVEbrfJtEmNpPWczCaSTwuV6f0btaG9DOo2FbT7wclAsc8NO1/tWf/fz9y7VgJ2q0XyiL3z9e/vP//vtvHy6367/O8wir/LW9oVMGDqJuazDI2mlxFkyY5cRJjrf3IY4csuFXjXxrtNnwACvWdqDPhAYvHZsDWdPaVN/u9d1+LX7JX8cJBRDXQA/nqwn03TxvSsD7chgrYGxHDeyohlid9dpymvbPg1NYWtrOIViDF8QN0jvbwAlbsLEDDu1F5g7sNaqxE8jf/rhuW83fY7jTfejjn6DZ+vf6/b6J/wZ6u8YBt0ztEPO3hBTjcNbyqN4vJWckb4QaDn749XN7MIn+lZEXtV5NtXaYLiS3YJT5x2vZeEwBntWk8T+5N+3pE+10/Rkc/uoHTueKvufqSOkWkK+7hs7Gdz6ipVJJXRGtTXye1e69iQulm08T+pm1m2qyQHZIpZa0jWkucjgveNmLlvO42Qj7wg6VuaTJY2mfPmDPqVM4PXQ5udI7BbLqJpRWGmkGTPNoMzckx3iTPn/U6/3bMsQJ8A1fFoslxNLL3Db4lGOGcVcRv+RqNQurclTKUdH7XD16hNJ7jeTl8GN8jujhFpNHYK5Obvy60gv8Ezz+Md6QzBoQAAAAJXRFWHRkYXRlOmNyZWF0ZQAyMDI1LTA0LTIxVDEwOjIwOjAzKzAwOjAwIKLfrAAAACV0RVh0ZGF0ZTptb2RpZnkAMjAyNS0wNC0yMVQxMDoyMDowMyswMDowMFH/ZxAAAAAedEVYdGljYzpjb3B5cmlnaHQAR29vZ2xlIEluYy4gMjAxNqwLMzgAAAAUdEVYdGljYzpkZXNjcmlwdGlvbgBzUkdCupBzBwAAABV0RVh0aWNjOm1hbnVmYWN0dXJlcgBzUkdCKvIqbwAAAA50RVh0aWNjOm1vZGVsAHNSR0JbYElDAAAAAElFTkSuQmCC;strokeWidth=5;imageBorder=#99479B;" vertex="1" parent="1">
          <mxGeometry x="1240" y="585" width="85" height="85" as="geometry" />
        </mxCell>
        <mxCell id="fkhzhb3UsODcdzvoW7---51" value="" style="shape=image;verticalLabelPosition=bottom;labelBackgroundColor=default;verticalAlign=top;aspect=fixed;imageAspect=0;image=data:image/png,iVBORw0KGgoAAAANSUhEUgAAAFUAAABVCAIAAAC3lz8NAAABAGlDQ1BpY2MAABiVY2BgPMEABCwGDAy5eSVFQe5OChGRUQrsDxgYgRAMEpOLCxhwA6Cqb9cgai/r4lGHC3CmpBYnA+kPQKxSBLQcaKQIkC2SDmFrgNhJELYNiF1eUlACZAeA2EUhQc5AdgqQrZGOxE5CYicXFIHU9wDZNrk5pckIdzPwpOaFBgNpDiCWYShmCGJwZ3AC+R+iJH8RA4PFVwYG5gkIsaSZDAzbWxkYJG4hxFQWMDDwtzAwbDuPEEOESUFiUSJYiAWImdLSGBg+LWdg4I1kYBC+wMDAFQ0LCBxuUwC7zZ0hHwjTGXIYUoEingx5DMkMekCWEYMBgyGDGQCm1j8/yRb+6wAAACBjSFJNAAB6JgAAgIQAAPoAAACA6AAAdTAAAOpgAAA6mAAAF3CculE8AAAABmJLR0QA/wD/AP+gvaeTAAAACW9GRnMAAABVAAAAqgDSgXvpAAAAB3RJTUUH6QQVChQD1ejivgAAAAl2cEFnAAAA/wAAAP8AYjLrtwAAGjJJREFUeNqlfMuSJElynKq5Z2Z19Tw4M7sLLi+EUHjBCRee+Ck88Bf4e7xQ+A0UoQhuwApAkQUfO7OD6e7qzHRX5cHcPSIrq3q6gZCRlprMyPCXuZmamnrwL//LfwIM6vvvvwdEAxQAQAA6Hv78MzoOuLvU+/2HpuJAU3QUMQyw92hv2/k/fv9v3rZrjwvYaYSD5rnUP7z/+FRLGIABimiMFvHnD0+XiM5QjIfTAHAoJzjCQSAUPdBCYf1FfSh2KxIARBg0v72c//3Hp391PgNjXDRoFJu9Favm4NeAQY0/diPFZ180wqOjYRAwIOb/qrgJ3VB+YYa57nQYosMIgsjpQN7wyUvZZxPZ9R4IQ0AABowQA5AZNAIAZWQTEa8/17up+YKLa77oHLwJE6BydkavCWWPuX2yvs1hzY4EHLluNLyflE92jwan1QBBh7k1l1e9W2rNwf9LLgEQA4ARPafEkVM+ns6AmSYgIkzCInJhZvOR9+ff4dF7UyLC8WwwsexummERAiiCCVF09s1zmNrGz2kTuwnM6XjZRjxWey7R/InXrwwQPcZ/JowQ5PFAAtUonSHmvVwjzJHPdeZayUCOBCQArXa3TQfIKGOTIxwxDEkxe8xhGiJUAcJBNFBhTXNRDtF40SOM3+c4w1g3HPr1u6dz9RUeT3boUvrb6+W7h/Pb6/VSpBAduVqX0G8/fGwBAuExXoPnUnX5eK6E0wSUg79GfDy8bSiAhIjp0gCY1uyGqZy+HmgR1+mLc4VoHcE3V506qpoBBXuoEx1WQBpWGmB/eHjoLJuNzPnuHSBzZ67r+/PH//xXf/Xd+akzgCiiCNHV+qbpIPWwiEMnEFeGCX73G0xXkE+uil+O8T+uP787lKqYIUlh/HI4/fd/+NMvhzcGDHutknFmm1tLud2uxCHau2Mxj8LeQtvXF/3bx+++Oavm7K59GxDgyEdwvwt222xYkWCln1pTcNL1u/PT757eNRYAVRFGDxTphAirB2jUHgBaVEAHu1igc+MUxaHH28a/1/tAObX0GhojIw5qdDrUHD+K093A8+80WxEtcIk4BLyNn53xyFZbOTXU+10/d/f0Qw4w7r7Umorbb6IFzgV9OCrQke7qeAcXwgDHI5YNjXiBSI8t1GIA6VZghPGJmPXsEmA6dm4FMMjhIAOIbC+n1zN26Vejrj/dCYYRjme3cQKEaURbpMy/szOdFAEznPE5zACqGPiCwb9wrQAxOqOoz33b8CIxe6xXo8BLU0BHVZz6iDDFANCJYlSheIQFbK3qNtbGWv+YWC0MIUxNX/hshVfbw2dvf7/aW4UjHECv62PCKwSGJQadoUN3Le2avJsFGkXRGWU3qvUVbrfbGCGANFECDgEmwq5W2U8O9c+AJebYjADksTCall5z5DnZQcECxWEkJeb9NyP3Go1uPkGudnRGZw6bpjuxx4RmjnE8I+2ix4gjM0jrIFVlnyODdYLILxq8iE5kMDKRK2rOToZqTj+hmDF2DkZCZLvg9F0TSwKYH/Y9Ru+hjxXvjzt/C3b61NES9TOd4niSiWtBS6RNm/Tcn1U6daWV9hh5xDlaevjPX/0e0YrSvsIxwBB7K2iBeqxBmKjHeihjgXM8YURjudQILgMOzP7162pkDwHKH97/+NPlKbEbHYBAv2l6/OqHaAvQgSbNXvD3737uIThA0RHWoUOB3//m2x4owtoCNP74+NVBP72YoZEkwGFZE0gHPl7biInOFEugTtZZPss1oWVAxSI2aOrMfylac6kD6PNrgu1+83fiY2UFi9a8REBhtBiGwkzO6LTtFriUyMkKRxnI0lWqVpWKEh2CxmP7svVP+29z+QgPXEglKq+57Tn3f7YdhphR2KA217p2O2PLDm+dUg90Bohw9ACgAHpsMDa9poA0t5hwKDBzJCPQiwW0YpNKpGCGon/u0AHQJjScUS4gAU+ngM6Z/4W3VHcGSYsrFxQQoHb7f33FZ1Eg8UbRHBLTEDq9wURvkFFl/HqLEQlDikf/w7pt9Itd4Jb2KudxpuSImh1J8Dii8VjVFyPtsw85b1t4AVU4tagaw+gBYGzjMj18pybImwnk7pEakQMEY3MugyW57YNe+fsuUK7hWDOtjpEUbuh/F5p/DQIGXsbNERo95j5YzFDP5x3zwFfT+pKuyS0fI7mKSSYFUPDPuvbTxtmfMOqIRhmWXp3SwM0fay7j2ScmLgXXgq6x9XMTtbJFyYWyaIztTiXy24xg3mBy9V+J2X8Fet+N3Ddpa/r2QZAANVMLUT02oMNpQIbCrGqz92NH0wEN488h5A2d5f3hZEbtBJL2MKAr9cfHr94cexJ1+fAq9MD/UWsMM8NDABBV3Pvj18VtJfc5/h9Pb1rg4DZy3y3/j/DYyIuPCAgIBazhO/JuU63oCfjliHo4Ggyx/PTxndkImZ4TxnB889W3sExmMpW+InR4+kgq1qR1woxrHP/b3/xDMcqYyJGNhvVf8Y9Fo7O5BYsgwiXmImeuOTzrQ/1/vHN114jH3/5wDJTEqU7aM8w4t2YuXKn06AWdOMzcIT2OHPoI/q/r02PyX6ISJCtW84leMp3OoBgBKGMBG8GiB4qBGMYS6EBn+VgeOpN+TqAwE/IS27wCmYQAQNkw1X7bHY4FmxMZ4yru/5o46UJrYvMEs6UBDQbHrlKMwJGwcgYpZTi4FjwBLTL+OUTEoNRisVoe8SApyvCAPUFEeqmSNzuSAuHGEwRy5J6OdzetaaJEJHPyebs578oUqRV37rISTofBnRvKB5uKwRonoYBB7Ux3kNw45yTHTLYX04oeM/fYpU233dp5l5tPtt5ozsxycsZs4AuvsBIUhLFzWZ4baz5/xPzA86iZE0EqeMN/O1aeM0Y7KefYm+DdlUg/s/S9ud6FushxL5YliE+BGd83G0AnkIZN3KbD1OTINeNvrOrLXWfmE8OzKWah6XmHZvxQAAEXb8zg/d2TsdAkmJ+XPT7Rlc+/0po6MyJWD7g0pu1ZEx5Jp0xlFSA/dshADQuErJmrgTPByAhJqHgPqASLTu+iG77IAhEwjEGlW8Cgpb3ZwJdMxI37AIDOSqsnM2ZmMn/7pG0KRJi+lm1EogB3q5s9Wg04OY8ANPnfZVFFqOpl1Jw06gvRgeWBBiY3gzCg4sasq2UPjAJ0Isw+y3r88m0/RxYdBXHMdperMmE0zIQK0+yLENZR08Td0xaOagf5INdv3z6KrYcbLj24XF3OfbW+Opbax8qNukA0+3AlVYjpLBJHBvj1V4/7tTUBRw/804en6Iv/2OVLTA5qfxUA0gtOxOCP7z6EdQvPBeCrr9/u92/S5gfhm45T21kcZerU8b3KqbcaEortrFM4KE3ERaBIVarpWmdE6W7ygWjhQy9abWaZtbjfjB8h9DCLW2eG+pgOMqZNftn6t7hxO4SB5pHeY+d9o1hVOMw+hkMUoEP30e3UVQOyQSaaVZ+bjTPFoVVm4XWWVgZXbirT6bk7EIYt7Pa5jBh8rg11BHdx+5Me4GVkIGbMXuU8BURAiIKODSqMbL2H+spXbvf/QGB7/3znkxSz0JL+PGnC6SNfil5MKlEcE6FZLLx9/hemMeNHicRGYKPIGQVmfjIDcA5tVt/toUQQ4BkOIGqPCrbNjEl6jNLIrVOYXiZ0kwWPdPXlUOfYPTqMMEcB5ovGP4LrsLWbtZppds77bZ760nNWvThSdbLWxCNPiKQoegxfv6893fhvczf4uyHtPxkjxwTIO2bmcy9Ngx9TEHv6ZjfjmSy/lC9znw5XrSIfQtFnnXSsonIKqBj8+fxq5KpZ5NekzLaWMjJlZmHCpDhrbYz9/H3pNijuSvDHNMCFgp/XaUUO1szk5NgS/8z6j+siwzzHren8AZhK3pYe/CwgBWz0dGhz3+0dR2Y4NzgRBnpWjQNgWoEjrDe90TfM06TGDmOuh25j2d0hCVjtID2zqrISFCvT0iq9af2xtR3HKACn3k/AqbeaygxRsBIeBbTIQFE/nt9ji1VZFBPVUH+gSwEBhss0fnUyGDRjxAWILtR33zyYHlIPJwKKg65/+fWbY29LCGW6Uy0OP/7sxkMvbeRthojGw48fro1lIdkw6Ki+vn1zCKio7mQy+Ib63buP35575yhnEy7Gsbe3OB97r89SiLFuEIAyuMqNt891yDJmTvCqrE3qZr9QaQtpB+lPWxml+7EYR7U3Had+TUhfBFCttItPBwWC8HVJV8KpEgqzaiQ/EjINTzIzo1UUyASsg/qbdn1sbWFkAsU6qJ/A6lZBTZHaAsI7sL1m5tewurfU2ITgyHLdTOJulF5jQwyF2nYlMOKU4bzoGl+Azn6VFJyio8z0cxIzGbndt6vsM4c6Mh7esbyrnbsJee5+dlPmXVCcm5m6HeBa5BFmlku6v2Zijxe8p2P9q7so412Yy6vupnO6UO5BAPFs8Sd6fWVlXs3ntyI3vMt/bsjvgZQSblKejjE+ZX2bFxQHPb4bAFds3BVdNg46djjuBWnJLZiJuDWzG1y0/zCxA3fiAW7/7iZrfJgRZz8LAYlDNXfXE94v/tx9ueD5rEFk7SRs0+I45EYGqhlCN8OmmVKfbQ2FKB682POBcuif9sIz7HWb0/xkTeXfLMyODREKKNymRyibkAmd6CFAJculk4m54TaGVW/zJN6QAeIcPLdpA7op0T1cF2Dtkd5o4gSsavkXIJQd1bf+Va6tUcGViEKIIKLHV2c8dmXl89Bn4do4yuedOGu66D1g14tub4r3JCCMU9Ob1oeUMafKKmjHiOJWf37/ARTQDscAG9ATb5igbYC9AYs/SIK8wS79AhHsgGY+TyOusm9rlbTBXmvMkm9SF7TxcPFff/3Db/pTj2Rxw1SP/tPp9L9/+bkRLaCAicaM/0BkpX9yvs7/5/l8bbgWaVZMJKI/nb/r/N1l8+MDKTkOFQHUzkFpDyOnk/mG52TvSsOfZQKIzjJnMIZ7Yy2Zb00FRt5Zxa8v+u4JPXk4KBnnc+CgUUEYTHxWKLgkedoVS55FiqEpNlA01h871UDAYDsoJUacxj7R8uKqc2PhLvjHTYPayZJixI/tlmTvAEigqeWlcgGz7nItMpD69PXMTvXYGN5wiqJe2XWTrMhttXWOS6e0MRLKPpOdqgnc9vmId+kUXq7yvr743PkkLOAYoLyLwHtoMJjZ6XMAlUS7MTTymMNmShdfWPDbTzYx9pzNF2q6EgqoCgreFA6JveY0r8r7LcBaz+Xk4baWmHH4tYg99B8j9q7SuJbwKGnlWJJWvpofzzw6xCizvMdbGD4fsh3JeDZ/v+Lbn/EZn2kCd0/RDnnsVCYpt9k5l1g6d2PHxA4H9Ime3E5Smt7gVyYYmbfdhowa9nYMI4uKu2x0bd+Xm9x7gXn72P27EtB4/iq03FSHdA8ZF4c1Mjy8ZO6zUh54jgimi8koM9R+SclP/h9gpOa+jnm5Efa8gHAJbbq9PHhhaPBuOxwGQMZU0BdP0Wb6JioToZI8CtECHw7x7jTaK0IKXp5qmCrukXUkB9BhEbVHETVcVDpU8qB26jy4hya5Thl4aD2sYq2MZ0kgslpZH04FKGG1fp3rOI5XAJB9HBsq09iA0Vk7K0rvaEbd214Yh2OBSx/5bKQnJ6IUESlyj+IsCsQFxz9c3/3Uz9j2M8J8f71+/c1DHA7Ju6xt9aGcfmJc67Fu+CLgeGjlL4ivWyhFgBBt0z+A3wGPhUlaT5xSAqzlmOc/EFtsjN067gB5/rvpsMbBDkMdE+cTYRsuWZPffLB6zLNZTD2HqEhdQA891aiDqx11y6J6LgH0ql5UhnQjtXtFw6QBQMXWiCw6dT62LsBUGR5db1qrUpFHCrjzI2P98YnLqdiL2G3v9O0mlL5qR5xx8O1dVOfKFO0BK3vYYgMUg5Z0kTav5lh2R0fqsTl3CoZrjE+EA90UQPBMU/Ti9Woy+9KdL1+zl0MpOVRq3tzW6sQWhJ49dpdIchdrF5s8feowYI768t7tL/Z5mp3DOxiiWXpcFfFscLFlvrH1WUSJ6VFXUfGZJw4rtzqHg8lQXIliRihVIAnUR7N91MYpRqd2NCa34GQ6QkzJ4BAOTG3+84W/WYm75fm0CdRfYbactHdoF6X3KpDt6SMdziUib1Jm7WiZXYrr2JEzHvRJonquSARa5tIIKVV1M2INWQ2tYhIqTtXQSO/5a2LhuiXsuxFueJ4SczDacMWIPVNasPvtOJk02BtglN8c0ohDco+stQfQOJxiH91weKgGABhsS8g9XBcK2ME+z7CmkjryjMNBw5qGtYYOUgyIlXWXpabbxn+35M8MHOzsgSmeWnWxydsM8mOU/UBcA42uyXAWqaMddX3bdFTr0Yf+mQB47O5v6lOZkRwBRFFcojzB51IPUxcoAtC51M4uXtNYPJLrpHRds3w7rcxW1ZCbvyY4qMdjnivC+XwG8KzCRSuiYCinCUOk4W6XYwUDE3LntqjSb98cq4Bhh5n58KH7350e37Qr0KYULcJxifJ3P/5yLhUos0WWXi+l/vH68VxUe6buIxFs5fLwu69L0aqL0AjXbyvr+18OamHQGVMs4iAdopRSNkVTsiDG73//e/p2/bdItNH4IQYo7zKHVI7HPDU2XYMitZNoBSImWWjBetOvb6/nt+1Ka5Xi6Xh/ODXWD/W0WqejsFyifrCvUQvLSsdEOK6HgNkHNObYeSmKO7hFzxEO3umgrNNvY9SthLjeUwje6jZjFjFOms7i1yiNDuP30rYBoHqMXbjmZQYd0doUa6P6fgDb6BLnzh1szSau2WfvQJt+QXmInopUxFUNQJGeUkTVVju7TVhe2f97WnZ6tECKQlb/bm5Y3RqV1Fz2Mhj4/FXHKjnOc37hxRSOs43j8+EFNNO+nQqOK5XM3GbWUaiAYxx4VnEUyczE4cXebr6tzkr/DbxZVc3ZRn6b1aBNadD3ZAbXkfN66KiiEBwcbsCAD6OsSCWxET0Pf8dWO1sFeIZJIcqOtg3PetSej1tvdcCYuUWW3J7ffRm/7e3q+V8rZd/bxh4u0K+hQmqXti74dVdHwa0wf33+TMwxQaGDigW0Z53q5WtTGdwt/v43r+L/NbScyJU2an64cQTzq/ykh64FhQbYB4hvmQIEWkrsbNAqiDJ89QzaDg5AnVE98o/kplZ/6IgRLwfWnqB7SF13J3o3NJ2e5Rncq+PsGeh1AneUJZcWtmcOuyZOw/nNTTtqSM5DZF9dro9XFUfK6HP8D/36cGiBHpKpQtBRhI+BxnKJmjWxhPcF0aLsdJs3dNXBKuq2RoUCnbhUX0+9nXqnZ2kdEEFcLqVz2wJb/vf+dAZQP+qST+aRAMuWM41R6YD54xlrEAZ69UAg8ycdeHvxf3jz9rfOon2k7rKHUITrGUjRcaEij0m9L4ef2vlPBUmGzTc+WL3p9LANfNpIQTyo137Ng2ChIqLF9cHn79l+QEu1djh1/c31ei7XCxIXTP1eqIf/7/lve6hqBbYBD2+2vykPvUxaRywjSCYj+ZwVAsP69tx+eLommX3oQaBTreCD1UJJvBQNVE+zsXwsx7Hnd+/RIHnrggSnnk8Hd7sBKEIPgKq+nno/9XYp7kQZb0Do3ZcW3dFpruMALXQ+tH7kufYX9/8u5GSivom/9szgXn4y0szYSaBSO0VvP5pFac8iPHzD3cVn5OMxaZLpPj1K5ls5fUulSUegy9vLNe6G+mptJ1ZR4aXP17o8iwBp2DFPTSwiaLRSbA5RljFh3E3mO2RVv1p01DpNPg+aDEh2s0wbB7v9cL+ULzazmxGPFylh6Hzic+jwPNv7mmhkbSdxSxPvZvZZf3IQo9zsREHjpSCbYGXWS3z38/Hf9KljbADqFod5TU5qNwWfU/l9zhfTuxA9KF1AkYeTIpNWr9Okcfe0be4XUt4VYrqpqVMHBi8wD0LN04xMAsIeTAHXS3f2VVkExvtPNq8z2pmyHXG0sYqqu7USxvujtAMFysMPeQqgKk9+xqXApTSWkkYlhh1EURlagBvtiCapNqsjE4YKEltn95Dh9jwFE+hi1gumBCoTrUmE7t8ylal0IIpQ4ZUC7UoRMV0xZwVkmIm3O1k3YmcCtrCYm7wDGDVcAI18d6jvj5n2oc64+E/H4zU+YuM81g5J/N9vLIIu6kf1kxrYi9ZhdxW0HrqWcV4wmAvTWm3ng1pJIigZQfVAC6CgB+rlcs1M4/HxtI7N5WQnjL303Zu4Rj8IoHAuyZomqIRP8sMIqqkjiEvw6Vj/5y//+KdHNlYxUudm6oOeng7HyUHFbnJVagG9lFgAgX5q/dvz9W27gg0I2AZ7uKqfcf2lXHrIBGrWRXor1/7Wl7JTUGIc6nLIVK7/lGUk5bRtrUBqkdYO34eC7aUA2FIjqozlFWZ87ogW8f5Q/nyq51LE8TIzUI2Hq585EQ1J3hRj7Ewgiq+n3t70BnahwxDjShW3Hq2Vdi0pj8543FrR+eg2CYTU/2dJ32ET1UwCZ7W0apWpGaj3Ocb0FtuMzIXbnFm+tCCPfRuoPf1fEQ5yglsUSVFh+/Y8Q9r/VETtxy9H62g95r5gzyoI0Rw9PydivCPB7qHweB0WYOFGUACjblrf4Wb8Jc4fNzeP8vl4gUr6AniU7LLgNWRZit2p/v7SAzWVMjcFYtEeRbT04VrShzzFPAW3s46H/Sts1ivADIgmOM9/3ibCi3iOQNCOifC3w8ivX7w9jrbreibFkaRgOoiJf+IWdK7FmHthPzv78/IWh+4+T0VunbxrHXseaaGYFxc58KlvP3E/FnobBPGdQLDM04GAlCI8vtLiZxwQmZzHQNPCeHfQc9Ug10skdiUpCrP+oR3TFFPPxR3+fUZR3Pb19tVKuSCdGmdCAQ2f4mLZKeaTRy2cwEH7xc/Kx0By8/P1ijuOI53xQtNT5zHNOSSUKFIeNM9KF2+t7P8Dr3EH0NvNGHUAAAAldEVYdGRhdGU6Y3JlYXRlADIwMjUtMDQtMjFUMTA6MjA6MDMrMDA6MDAgot+sAAAAJXRFWHRkYXRlOm1vZGlmeQAyMDI1LTA0LTIxVDEwOjIwOjAzKzAwOjAwUf9nEAAAAB50RVh0aWNjOmNvcHlyaWdodABHb29nbGUgSW5jLiAyMDE2rAszOAAAABR0RVh0aWNjOmRlc2NyaXB0aW9uAHNSR0K6kHMHAAAAFXRFWHRpY2M6bWFudWZhY3R1cmVyAHNSR0Iq8ipvAAAADnRFWHRpY2M6bW9kZWwAc1JHQltgSUMAAAAASUVORK5CYII=;strokeWidth=5;imageBorder=#99479B;" vertex="1" parent="1">
          <mxGeometry x="1333" y="585" width="85" height="85" as="geometry" />
        </mxCell>
        <mxCell id="fkhzhb3UsODcdzvoW7---52" value="" style="shape=image;verticalLabelPosition=bottom;labelBackgroundColor=default;verticalAlign=top;aspect=fixed;imageAspect=0;image=data:image/png,iVBORw0KGgoAAAANSUhEUgAAAFUAAABVCAIAAAC3lz8NAAABAGlDQ1BpY2MAABiVY2BgPMEABCwGDAy5eSVFQe5OChGRUQrsDxgYgRAMEpOLCxhwA6Cqb9cgai/r4lGHC3CmpBYnA+kPQKxSBLQcaKQIkC2SDmFrgNhJELYNiF1eUlACZAeA2EUhQc5AdgqQrZGOxE5CYicXFIHU9wDZNrk5pckIdzPwpOaFBgNpDiCWYShmCGJwZ3AC+R+iJH8RA4PFVwYG5gkIsaSZDAzbWxkYJG4hxFQWMDDwtzAwbDuPEEOESUFiUSJYiAWImdLSGBg+LWdg4I1kYBC+wMDAFQ0LCBxuUwC7zZ0hHwjTGXIYUoEingx5DMkMekCWEYMBgyGDGQCm1j8/yRb+6wAAACBjSFJNAAB6JgAAgIQAAPoAAACA6AAAdTAAAOpgAAA6mAAAF3CculE8AAAABmJLR0QA/wD/AP+gvaeTAAAACW9GRnMAAACqAAAAqgA2RdAlAAAAB3RJTUUH6QQVChQD1ejivgAAAAl2cEFnAAAA/wAAAP8AYjLrtwAAFBBJREFUeNrVfO2OJElynJlFVM/MUns83oEUjyQIQTz94jPxF99FL6cHEHCAJIBHcUHyDkdCq53r7gw3/fD4yqrqme4ZLgEFGoXqrMz48PBwtzD3SP7Xv/0bYZYgXPxENCH6NStQGh+enmRcAsXoTxAhI45GwBD69Shu5NNPf/JBeBYOOgCYgkUcH/AkPq0mAaNemv7653/57pChAPtvdCMvl58ECRjnUvI2xn6R/PjD978WPwazUdAoxlPBP+vpSSju9ZgIoo6G4K0iGSBoADAgwCbAgIw6xwln/2fXon8yAAMBBB1ZEdEACAb7RQ8pAgArHaPm3if3nwIo+HFKFUCHCcBBCBEAc8wMGiDgFL/BgCMIGXQIjVtdhsa/bYxLXZpAsAt6DpFIoQ9pnubR46J63bflPPOn69c/uX/eqJGAnB8Hw0QAZg40lSSACGZXYrQaQICN8yLUx2UBCAggLLmLAKZiykq0kJNr4cUSS6F+tFKvZGZGgyAQtnuXbQSzw7GJLICDzmXfF78p5g2u/aI1p1EWnepVgYCDCCG1SLvye8qKXzp4jonmfe3p4393CIigxgypBIQgRJe0goFqCA2BMAIWEcJBGGhGCzRCJmCm7RSfCRFPYiOOMc8CD6IBBxEGQBMojuKjqTUHrDQ1kcYCAR7yndER1M0YC6NGE1sMwckg0IxLHMgVnSIGYNQ/+/Dz1LFg18Y//unPhbRYgW4a8yeOLxgLBYfif/32757KdBYEIUDG+8vvixtxAE2pPESx2Y5t4TjVprr+0+9+XVsBRAMMZyuu7+q/wnWunlxTNH76B9/GMC69kyDxw1/84X+Q1BgpFxnBeC74o8uHxxq7cjSivnsuaWAj5wd4d9Rloryr31qNHCqlGsVPBW0Zc4Z8iE0g2OQD7J1P80g0ATk/chCQK3GE1BCMIs7pyQcb97VBlBANIorTEvcJNSVEdVMcVGCMKugmVEdEd3P5SAEq+xxEGSqkbe3cWVaf+WXWkZ5jaDG2H9Plf3UZCGW3oAGEMa1Vl9+0Jh5zWMbdkruLynXC17X9tn6uLurzt78g+2XO/Jrb75S7N9YcPC0TKQveMzbAHdks3UN8Zmxp/14rXXfoxflQ2kqYWUVsNV1rQZ/57DI/I6Calb1iXl4qEw7cXOmX4vPS+aQsgJAVX6SZ++CndmtYTRO1MRHLELavH5tFfrkRXpnJ9FuEPeDw3dre7NsHaJ6SxRk+dv3lmNEOPYeq6ryIaNSOYOeO461ipoEDaJvMcsIPoILHEEfrtaddX/5vPMKESX0NAgOSjX81nMFcdDuUPvUohx1rWAKmpyhp+Qe8ro+Oud7yBxbVtlW2OnlWpi4vXh7k6lUFKFOQ4xlo3jyoLRgqKKFpkwkIknVRIVVY0v8DxSRZCpgTVwBYYF/VHz9+TFdF5+4TJio+PvzsPVnTz5X8lWbBhwtK6ZpShl7UxrXVW3r06iIHEWA729ec3raUfwkHt0t5gd3bJcbAmPBpDrsm8+4jkbigjV85alagsBu7MpZLbQLA4aMp+tSnrfbp2a+uAwd4bH4uB5zae9bzDlPLdmFuDe4Ilzu86UPd1jzdYSpAhLlg8FzqiaQ4OseBbrjddrWI+Mk92b352Xb7GwWwL5ZPuSD5SuXitgn6Th3ydSP570mUc+N7ZfmGmdjne6FM3rQknzdo98sLi8d7fa+BQCGfh7GB1iHf2ZZ3beTaqr6iHUMagtz//k3LBv7epFl7L29Ii9d28uzdgGvRVBqAiruVum7phWZeQqOfFMEkSL5IwLxF+y+W5PYwsEC/st8wbqv/5+FU66X58fLkaMn5TCvCEG1aMgccTp3Uw/E+B2au1SUHHDKI3HJrTEQjmuBBGyViEc2kUrgJXRanyvR99/r+0qwYNVA9yMvcDjWEASMCGowLTNb/8f4xAWa2+M3x+Pvf/uZ9+2gGeGTnStTayi//7Je1obTK7jAjFBfoP//Rf5nc6a5cZYD208zo+bvf/E/rcdhw0CiAhMIqqJwrEUgUQsW7beJgI5akhgzqb377f8XHWNgHZhzyIx6fy+FJq5qA6vcPCC6RtxLfxu+lj+ZhRk7rpT0Ql9AT4oGQIEZYMCyrHIO0uJqNZCrO11tRCTWejekgE17Q5mU4cswvrQEagowIFHhYNiLgwBGoMMwIhCFQcK35zOBPspoGPoFtQBcBByA56BCChhDhKIH40j3zUhlj8K5JqJ9MVAw1ermmN3rryeIayT5qggE6ufBYSrLkupoSkMQBTfV1++XlyiBPcBhEEMZrndkr5LJc5oDYUSeQBDY9dC7DQqf6PcAXoMIFrqNHZSNUvnj007zdEcFrn91EeRVFYLLPIxRhh3O3mpMHVDBi6vlSePUnu2npoLARJKC0ak4386Yt4/AFSvC6607/7t7Xr5Br2gsu0hlt/YSmAQqBqE1tsBORyInLaE/nBDAagzLxhNjJligziPDK3lkI5VzlNrBDUXPH7RpC4fCR20Sj37SP+fSlKDq1A0AOW4TYAxCarFK9tDCDnYZWdSs+So+IpalTOvHQY0OD2KwklXMwMunXx+dES1GCuQ0SgBIJvzMYd4qX6c3Gheid0aCpDdSkh9GjNUvN689ii9sZHwLvFJd6rPrS7Bt//0+/SpSiHf/Ewy//41+r1dtFwMXerVLAb7/5Q7DtVi3Hfzw+5Rck9OqPq6IQwiA/gHT/a2+DMxP0/GR25KYgzDBbHOFLsYON1mSFWR+anfy8BbQarTjooGENUoMtiIajB3KTMGcAqIf9thCVStQrEJwOtUShg90MlY0yeIsK9Krr3G7QGY4MWDID0ogMAapNR5ccY2LYnOSI6LqSO2+mmsaICQcAxRFvGT8NOf0u9pBONtqt47a8udzTfSmYi7OOHmIxRnxVRlAYyNoZ1t5EX4GERLMsEk4Wuq2LoE0haQbAwzx/ES0r2iY0aqFDVgMATb09QbI3lavI8pyetK+nPkfFJAyX0NM/dSdvutM4PnEE/cG4fAW3vSQye34duB8Rx3s7Ub1c2zU1nI83AIyV2gLVlz1t1zyagATYNsG5y+sbQb3Ii3+ubHCsk8SnbApeX/niskXAY890oVFh6ezwgSP4pL6UcpcWYIA9ItwhSkKor8xNOLOjxlLXsUu7K+JXatxtVAIbJSsw6vv2PO8z9RDPQlNPdQEIOSKTcRZlPVMABLbQYysnMQiARZKdNF/d1VpK05PMqZG8uQV3rjY2C3dqZWVJwac4l7DHi5w2stCNlinGyHoC6rdP32cqgomACp4voMbmHLDJkulQKgPrFszAu46//91/n2B5y/NQ1UN+UWgz9fzLP/5PJbRm+HMkUpmYIKU0ALJGxFnbdVr/8o+/2cBizp0QpfIdLHf/2iesvm/Pcke+jRKOcps8NFOZbjpqHq20DHSNwhKiq2hEFRjSikZHHSllr+XwYttgyB2hh5Hmh+4U+lIBqyeR9O60DvsMoYYDa7Y6dJd6LRyiPnUtgR5XP86ZcuhpH7tuwhy45RwX+NLyGivbRTAyPzDyt7aMsFjgOvHL1EJ9gvm9Dm9+pqvbgr9hvq1/E6N+6ynP12eqysyju59KVTFpw7uh8hdHPr4TwOUFKdz2bgUzP11eCasG4EMMP1Uy3bJHigbPsaD0gr4DVtDOzD92ZMgR6lDf3vXuasMhCyC+uD/r6U3XUvGeD/Ojlnut7GyyBaseJWaINkZglL7WWwEcSGH71Mgoi/P9M559hleci3N43Bc8+a4ge1c48cj594HpM4ulXxrZAtlEY98aLRQPoF5a4sHuveiolM5JRYnGSQ4qYutKyu20cubSSKujm4XzI+bzjukdO1wOXssFTlBTl/+z6s+WscxHEoN0hJDrsAAzRjCyQJf4mUzxXgdIZ+jh6FvRfIoAVFWqy0nDklzzlRKdBHprm5KibWc7qMC33/5EcX6cBo4fHr9HNweLsKkXt5l4bSKczFTGF7KbExtr/y8YMkJNQFwbY42kIPVA+NSCL85nfV2JkcW1kDuyD+mSK3zswq2NAcXJWLioi3LXXp157mELvCfzTQiYYCKG7mEbuW/ns//e3dC1RXjJK0/HvTU99yajQ5PUXYzuDj1VO3sxbhrGY6XDjfFw60rSJG8haXsr/y6Wf6nblSh3k9yz0mt2awhsrXeeDjbclmsLvE3F1UVcmUBl6qYXBXS28Nmxtw56B/yY49ww+56JsqJ1O/0+p8e3qzS2qbtH+F0leW4r8PT5I6SX3ike6fm3ySjXE1pHYG9lgZ7ywaZIGSvpmUs1zkp2MhALXFudgtg3coM+xyfQ3lq9N9dxMqVrfFe5VJ6D31NG1la1yj3knmQOQ8I1pcWeC1DzRMwpPsmDTdSxK0XueclBlu2p+PdX1DWyzpkglmGeAlyfY9t/2nxZeTLlJAVkNHouw7JSBT7oPbCRjX74iz/5K8bDbRfJcmf8ev71P/+qlcerkQhQ2hGeJpjEd9/979oextGSVdcvfvHnpzkeEQS7x9EzTr993kFXIvj+G2VgGuG1F/Q39d20dMFIFFjLmYqGS2kPjHe3c8R7gb5WVKKCM8C2vMm4/bQR4Kdcxom0XEbVpy8vfc75N9AIM8A9ZZRBavWG6eDPobuvimR/2hfupwNWp+NLzf3L7Wx5r6tcR5np1B6u8feA7H73/6dlMJd96Fd5bcN20pI1x/+VY34lEEqLuLIGBsTaSNJbnP8V/bkiGlb0wkpIV+d9wS/jZeINKPCNhV83+JvaYhdHCuI6dP9lwQxdNXkyS/c0ayW2d2+H5ap2HrmnwHxRudoC9k+6m+rMPKjTLo0E+zcvhLfO0me17DRLPue3flEhINtsdPAEqFR/8ad/PuURkHzBcb8W23cvllJYyivvB9DaMyLOFLgA/ON3/5D94G4NiD/5xZ++bbQ74sb0CPHhXRlpz4HhYE/2X/8+8Pwzvf/Uv2+ohKdt9VD+J43dTe7xr+3/F7V3awL1wvdZfLXOZ9NcdWKEMeINlvmUVjGjWK2n4dLA08iK6XHdrxX228pboM4b8rxP5dr+z4QdOe1p9COSjooR2PqyA2a9vVcmK5zw5RaZOPU7o72DbvmyXnEjoG7FOlIsTvN/dTbsleWt/vLT3uVuqv+bXTK9Q6zr4biDIEXZ8d9XFfY0s7N6n7cl2z9xFfnGiX1ZnZbPL5h4VZkj31NVqJlclCH1kCm41H/95uMQdB6SOtQgV+x00eiTfM1PhR6P+mg9ndhLZ6ahx8HvAbqdJi06oWLlYfmwZVpHwlL0ZCU1tiAyLnWX0DvNamcCIvTcU8DxPFiwaHhGJXhoHs80YNX/1n41061oXZreHyrBxnWKogSKUZpLYO6Xx6/t3btWfORAG2GIVrHePZcipaSDLUcVYCuXOJ95UkjGEeV0vmIo1Hf/8HeZpPLJ8ffV3spT+YPWytN4sYCACIbp5x8iGNY8xigA9XffPM4j8SX00PD8jDw/Z6LlywwCl0A9XKMfpAyoKTJjg42X6Bv7Qwmi5FaqoOjpbCYiU86pYMn40sggRcgwaZZkOk7EAYbqrpiR9mHPNWUAEXboqel5qkUwDBwFj4ieU77FiJeei2hCM0IBw0BTv4sjOrriH4TGedBQaTMDb7gXj2YENEVKE3GCWFtuK3lzOHecR1ZuVG+nfKUn7ao0yI/dmkTPaPDyJlz3TwH2rjetwb/s1IL9/EB8yl/Q8/Renp0Yl8lttNoAL3uWHT5/rODeDadDTp86V9pvr/PWKfXYwodTWJm1sHNS4y1AuXAwdTarkqM4+osqBl9cDMV9R3vTw5d2VXvq+dX960twRdmvp/D8mqcqz7cbpdGe7zZSIPKNNf29NSt+FMmaRyYIjAEMjV17m8wRC1NEdDO+kdYj7xxbAs3IQVgh+JEpnxKPsUm9soZ99jxOyI9XZrFnfnN+1x4gqjVOC+kSqKFiINRjieN9I8psvxUUWypH9vlKp6DI9R/9CXieZMnEG6Gb5cEBSIhgmaFUQd06IgI9DXnXzanpJ0dCtZ71PskFBbIb2acegx7pSaxPBd50LT3cpU3n0XOhCcneAzvBngZsIYA2TKaRCq+nkjgDsI4CIJpRwaJAJP0cLXm4FAGPQE89yLfXBMNWsWNugfrCHIGdPc8LAKJ14W6T1LGH8v7FDhow6r9ctt2b8W3ow+Pz5VlY9yDyIASVetiWRUUTcKGJ4rSduTRwCOVyYVMG1Bt7F9TE79vSWABsdtCyKbt/7+y97Xg6uL8vYM55eO1y16mpaE8/fAxNDsMejpyXOtJ8eh1h1EPT+AlWIxX14cisyz1aGlTdXoqXifAyoklNUQLON/sgMifv2BOPBTOUwShtJ0j7+8IgOBeLILOh59WEIPNoeUx5vSwtvZXHacA8zxdwRyU+kStjL4QSmFaspMWqJbDH9kvkURwpMmg3BE9onwSmN+2x9PGCosh1XtL/D8t6n8NjbCEzJSLegjnqr14DoPkaoxV3NDu/NN7NlvqSaIc3SQQJwoSd4HMAquW0S0l6SDqHbmNg9RE2GJWub1vwLz+NfvSSnfFetqeb8z6kmYqW5q14rfB8H9/Yq8a8bqyY1bQF0df/IPIQY0+Qe4rdbC/3MfJ8Rt971XeR9u45xxMlIqKMAfeKZBSjumvTbLcESn//W4pb+nw6zMzFG+sOOJECdyLIzYwEpxNuBlFOEdrez12Q+WpGDBEOreIS/C6Iz70pYGaXxiDIDHp798RQsXW2V1fQ6Bb2cvv1SgcxXOMVkTNc5n1B1zn4/gUwo6lju+tM6O3kQH87HLrZK4HcqQZpQ0Yz2kA1M89jni/cg9bn8ZwyOXb8P5V0dmcs6a2e6RoJ3Bn0+QLx/wBj0RWNBbOOzAAAACV0RVh0ZGF0ZTpjcmVhdGUAMjAyNS0wNC0yMVQxMDoyMDowMyswMDowMCCi36wAAAAldEVYdGRhdGU6bW9kaWZ5ADIwMjUtMDQtMjFUMTA6MjA6MDMrMDA6MDBR/2cQAAAAHnRFWHRpY2M6Y29weXJpZ2h0AEdvb2dsZSBJbmMuIDIwMTasCzM4AAAAFHRFWHRpY2M6ZGVzY3JpcHRpb24Ac1JHQrqQcwcAAAAVdEVYdGljYzptYW51ZmFjdHVyZXIAc1JHQiryKm8AAAAOdEVYdGljYzptb2RlbABzUkdCW2BJQwAAAABJRU5ErkJggg==;strokeWidth=5;imageBorder=#99479B;" vertex="1" parent="1">
          <mxGeometry x="1425" y="585" width="85" height="85" as="geometry" />
        </mxCell>
        <mxCell id="fkhzhb3UsODcdzvoW7---54" value="&lt;font style=&quot;font-size: 40px; color: rgb(255, 255, 255);&quot;&gt;$$\times P_z$$&lt;/font&gt;" style="text;html=1;align=center;verticalAlign=middle;whiteSpace=wrap;rounded=0;" vertex="1" parent="1">
          <mxGeometry x="960" y="455" width="60" height="30" as="geometry" />
        </mxCell>
        <mxCell id="fkhzhb3UsODcdzvoW7---55" value="" style="endArrow=classic;html=1;rounded=0;strokeWidth=5;strokeColor=#FFFFFF;" edge="1" parent="1">
          <mxGeometry width="50" height="50" relative="1" as="geometry">
            <mxPoint x="1060" y="468.89" as="sourcePoint" />
            <mxPoint x="1210" y="468.89" as="targetPoint" />
          </mxGeometry>
        </mxCell>
        <mxCell id="fkhzhb3UsODcdzvoW7---57" value="&lt;font style=&quot;font-size: 25px; color: rgb(255, 255, 255);&quot;&gt;$$C^{pca}_z = 8$$&lt;/font&gt;" style="text;html=1;align=center;verticalAlign=middle;whiteSpace=wrap;rounded=0;" vertex="1" parent="1">
          <mxGeometry x="1150" y="344" width="60" height="30" as="geometry" />
        </mxCell>
        <mxCell id="fkhzhb3UsODcdzvoW7---58" value="&lt;font style=&quot;font-size: 33px; color: rgb(255, 255, 255);&quot;&gt;$$\texttt{DINOv2} \; \texttt{PCA}$$&lt;/font&gt;" style="text;html=1;align=center;verticalAlign=middle;whiteSpace=wrap;rounded=0;" vertex="1" parent="1">
          <mxGeometry x="1345.5" y="690" width="60" height="30" as="geometry" />
        </mxCell>
      </root>
    </mxGraphModel>
  </diagram>
</mxfile>
